<svg xmlns="http://www.w3.org/2000/svg" viewBox="0 0 518.16 538.06"><defs><style>.cls-1,.cls-3{fill:#1d1d1b;}.cls-2,.cls-5{fill:none;}.cls-2,.cls-3,.cls-5{stroke:#1d1d1b;stroke-miterlimit:10;stroke-width:1.34px;}.cls-4{fill:#fff;}.cls-5{stroke-dasharray:3;}</style></defs><g id="Jennifer"><circle class="cls-1" cx="223" cy="167.07" r="4.14"/><path class="cls-2" d="M301.13,175.5c-6.08-.62-11.59-1.29-12.93-1.84"/><path class="cls-2" d="M306.52,160.17c8.74.88,14.57,7.11,15.81,8.56a.43.43,0,0,1,0,.57,24.12,24.12,0,0,1-16,6.36"/><path class="cls-2" d="M300.82,160.4c-4.67.82-9.91,3.34-15.56,8.63"/><path class="cls-3" d="M317.71,169.86a1.08,1.08,0,0,0,0-1.11c-3-4.95-11.22-8.58-11.22-8.58,8,.81,13.61,6.14,15.42,8.12a1,1,0,0,1-.05,1.38,24.19,24.19,0,0,1-15.57,6C314.34,173.69,316.93,171,317.71,169.86Z"/><path class="cls-1" d="M285.93,163.75c11.36-12.3,28.08-12.34,38.64,1-12.15-11.58-25.81-11.47-38.64-1Z"/><path class="cls-1" d="M323,174.58a29.29,29.29,0,0,1-8.07,3.51c-2.82.72-5.95,1.31-8.79.36,5.84-.42,11.15-2.64,16.86-3.87Z"/><path class="cls-1" d="M325,175.34a12.53,12.53,0,0,1-8.27,3.56,19.2,19.2,0,0,1,8.27-3.56Z"/><path class="cls-2" d="M296.12,167.93a8.16,8.16,0,0,0,5.41,7.6,39.59,39.59,0,0,0,5.6.16,8.08,8.08,0,0,0,.21-15.49h0a25,25,0,0,0-6.11.23A8.17,8.17,0,0,0,296.12,167.93Z"/><circle class="cls-1" cx="304.72" cy="167.66" r="4.14"/><ellipse class="cls-4" cx="305.27" cy="166.14" rx="0.27" ry="0.35"/><ellipse class="cls-4" cx="306.17" cy="169" rx="0.22" ry="0.28"/><ellipse class="cls-4" cx="307.7" cy="165.72" rx="1.52" ry="1.94"/><path class="cls-2" d="M225.81,174.91a72.11,72.11,0,0,0,13.37-2.5"/><path class="cls-2" d="M220.43,159.59c-8.75.87-14.58,7.1-15.82,8.55a.44.44,0,0,0,0,.57,24.16,24.16,0,0,0,16,6.36"/><path class="cls-2" d="M226.12,159.81c4.67.83,9.92,3.34,15.56,8.63"/><path class="cls-3" d="M209.23,169.27a1.08,1.08,0,0,1,0-1.11c3-4.95,11.23-8.57,11.23-8.57-8,.8-13.62,6.13-15.43,8.11a1.05,1.05,0,0,0,.05,1.39,24.25,24.25,0,0,0,15.57,6C212.6,173.1,210,170.45,209.23,169.27Z"/><path class="cls-1" d="M241,163.16c-12.84-10.5-26.49-10.6-38.63,1,10.56-13.32,27.29-13.26,38.63-1Z"/><path class="cls-1" d="M203.92,174c5.71,1.23,11,3.45,16.85,3.87-2.84.95-6,.36-8.79-.36a29.36,29.36,0,0,1-8.06-3.51Z"/><path class="cls-1" d="M202,174.75a19,19,0,0,1,8.27,3.57,12.61,12.61,0,0,1-8.27-3.57Z"/><path class="cls-2" d="M230.83,167.34a8.14,8.14,0,0,1-5,7.6,34.06,34.06,0,0,1-5.19.16,8.1,8.1,0,0,1-5.45-7.76,8.19,8.19,0,0,1,5.26-7.73h0a21.48,21.48,0,0,1,5.66.23A8.2,8.2,0,0,1,230.83,167.34Z"/><ellipse class="cls-4" cx="221.68" cy="165.55" rx="0.27" ry="0.35"/><ellipse class="cls-4" cx="220.77" cy="168.41" rx="0.22" ry="0.28"/><ellipse class="cls-4" cx="219.25" cy="165.13" rx="1.52" ry="1.94"/><path class="cls-1" d="M278.33,148.88a4.52,4.52,0,0,1,0-4.75,4.47,4.47,0,0,1,0,4.75Z"/><path class="cls-1" d="M278.06,152.06a7.53,7.53,0,0,1-1-6.19,7.53,7.53,0,0,1,1,6.19Z"/><path class="cls-1" d="M277.25,153a14.5,14.5,0,0,1-1.66-8.64,14.41,14.41,0,0,1,1.66,8.64Z"/><path class="cls-2" d="M279.22,152.64a.93.93,0,0,1-.6-.95l.94-6.92.42,1.56.39-1.08.29.51s9.74-5.41,17.4-6.06c7.2-.61,23.3-1.17,25.18-1.23a1.34,1.34,0,0,1,.35,0c1.23.23,8.6,1.64,9.47,2.34s6.68,5.57,7.39,6.17a.8.8,0,0,1,.13.13L342.1,149s-18.79-3-27.27-2.1-28.29,4.39-30.88,5.84A5.2,5.2,0,0,1,279.22,152.64Z"/><path class="cls-1" d="M244.5,148.05a3.86,3.86,0,0,1,0-4.37,3.86,3.86,0,0,1,0,4.37Z"/><path class="cls-1" d="M245.29,151.82a6.41,6.41,0,0,1,.84-5.71,6.44,6.44,0,0,1-.84,5.71Z"/><path class="cls-2" d="M243.7,150.55a1,1,0,0,1-.49,1A74,74,0,0,0,220.76,147h-.06c-3.17-.6-6.1-1.11-8.23-1.38-7.33-1-23.54,2.17-23.54,2.17l1.31-1.92a.47.47,0,0,1,.11-.13c.62-.62,5.6-5.65,6.37-6.37s7.12-2.18,8.18-2.42a1,1,0,0,1,.3,0c1.63.07,15.5.64,21.73,1.28,6.61.67,13.74,4.78,13.74,4.78l1.52,1,.33,1.1.38-1.61Z"/><path class="cls-1" d="M245.71,207.43c-2.14,4.42-4.42,9.31-4,14.24.38,3.67,3.58,6.39,6.51,8.3a6.18,6.18,0,0,0,3.57.94,5.89,5.89,0,0,1-3.85-.35c-3.51-1.63-7.14-4.66-7.56-8.74-.39-5.36,2.21-10.3,5.35-14.39Z"/><path class="cls-1" d="M278.71,206.1c3.53,4.45,7.66,10.64,6.66,16.64-1.5,4.61-6.15,7.75-10.63,8.95,4-2,9.67-6.15,9.49-11.06-.4-5.22-3.13-9.94-5.52-14.53Z"/><path class="cls-1" d="M247.6,223.74a9.82,9.82,0,0,1,9.08,5.18c.59.89.84,2.3,1.64,2.82,2.14,1.44,6,1.13,7.75-.94a6.32,6.32,0,0,0,.67-2.06c1.19-3.37,6.76-6.77,10.13-5-3.24-1.09-8,2.34-9,5.36-.25,3.11-2.57,4.43-5.33,4.78-2.1.19-4.79-.17-5.89-2.26-1.37-4.1-4.45-7.45-9-7.88Z"/><path class="cls-1" d="M184.45,136.89A123.71,123.71,0,0,1,188.14,100c2.72-9.59,6.57-17.51,15.84-22.2a77.39,77.39,0,0,1,8.31-4.13c-2.72,1.47-5.41,3-8,4.69S199.16,81.7,197.2,84c-3.91,4.67-6.13,10.53-7.78,16.35-3.23,11.86-4.42,24.24-5,36.5Z"/><path class="cls-1" d="M182.17,150.38c-1,9-1.9,18-2.66,27-.23,3.37-.71,6.72-.18,10.09.72,5.59,1.5,11.22,2.39,16.77,1.45,8.9,2.82,17.84,5.35,26.51,3.81,13.48,7.21,27.42,14.71,39.37,5.53,7.94,14.17,12.66,22,18a13.09,13.09,0,0,1,2.33,2.64c7.88,10.68,19.12,19.86,32.61,21.51a93.85,93.85,0,0,0,20.1-.63c4.36-.62,8.84-1.57,12.61-3.87a21.52,21.52,0,0,0,4.92-4.38A111.29,111.29,0,0,1,312.64,291a51.47,51.47,0,0,1,6.69-3.67,41.42,41.42,0,0,0,4.59-3.56,124.31,124.31,0,0,0,9.58-9.49c2.86-3.27,6.1-6.73,7.86-10.68a47.8,47.8,0,0,1,2.52-6.34A60.18,60.18,0,0,0,349.45,238c.26-2.23.34-4.48.39-6.72a45,45,0,0,1,1.25-6.76c1.67-7.69,4.7-18.74,5.91-26.43,1.47-8.89.31-18-.58-26.93-1.19-12.36-2.19-24.76-4.2-37a13.53,13.53,0,0,0-.87-3.26c1.52,4.23,1.74,8.87,2.47,13.3s1.13,9,1.64,13.46c.91,9,2.17,17.95,2.75,27a58.89,58.89,0,0,1-.47,13.59c-1.14,7.7-4.07,18.8-5.74,26.52a48.31,48.31,0,0,0-1.18,6.56c0,2.27-.1,4.55-.35,6.81-.66,8-3.56,15.53-6.91,22.72-.58,1.31-.85,2.68-1.45,4a25,25,0,0,1-1.32,2.25,105.15,105.15,0,0,1-16.06,17.6,40.79,40.79,0,0,1-4.77,3.7,53.35,53.35,0,0,0-6.65,3.68,109.56,109.56,0,0,0-16,12.24,22.87,22.87,0,0,1-5.16,4.59c-8,4.61-17.71,4.69-26.71,5a41.9,41.9,0,0,1-13.58-1.77c-11-3.47-19.92-11.48-26.68-20.6a12.34,12.34,0,0,0-2.12-2.43c-8.29-5.67-17.81-10.86-23.1-19.77C193.08,257.45,189.83,244,186.26,231s-5.21-26.64-7-40.08a65.48,65.48,0,0,1-.62-6.77c.1-2.27.32-4.52.53-6.77.87-9,1.91-18,3-27Z"/><path class="cls-1" d="M235.43,62.37a27.57,27.57,0,0,1,14.2-19.31c15.26-7.32,33.16-1.41,48.23,3.65,19.16,6.76,56.88,24.93,67,42.62,4.5,9.3,7.12,19.32,9.77,29.25,1.23,3.83,1.85,8.22,4.66,11.25-2.9-3-3.64-7.36-5-11.16-2.94-9.79-5.71-19.75-10.29-28.91C353.28,72.26,316.78,55,297.45,47.85c-13.31-4.52-27.7-9.44-41.81-6.27a27.22,27.22,0,0,0-20.21,20.79Z"/><path class="cls-1" d="M215.14,38.52c7.22-16.56,24.8-26.36,42.3-28,17.73-1.86,35.45,2.41,52,8.41C331.91,30.68,354.34,49.22,364.42,73c3.92,9.66,7.69,19.38,10.72,29.36,1.68,4.94,2.33,10.18,4.11,15.07-1-2-1.6-5.33-2.23-7.48a208.45,208.45,0,0,0-7.56-22.14c-1.87-4.86-3.84-9.68-5.86-14.46-6.23-14.3-16.84-26.24-28.78-36.11A150.05,150.05,0,0,0,309,20.08c-11-4-23.09-7.44-35-8.54-1.87-.24-4.67-.31-6.56-.43s-4.79-.07-6.57.1c-18.42.65-37.65,10-45.67,27.31Z"/><path class="cls-1" d="M222.75,50.7c-.08-4.42-.06-9.47,2.89-13.11l3.2-3.21c6.95-7.27,17.06-6.23,25.86-3.69a150.35,150.35,0,0,0,17.57,3.48c2.85.21,6.13,1,8.82-.21-2.56,1.46-6,.88-8.89.87a123.09,123.09,0,0,1-17.79-2.91,65.59,65.59,0,0,0-8.73-1.7,19.54,19.54,0,0,0-16.15,4.91l-3.28,3c-2.88,3.35-3.19,8.24-3.5,12.53Z"/><path class="cls-1" d="M268.45,31c15.14-8.72,32,3.25,44.53,11.54,4.45,2.86,8.94,6,14.27,6.94-5.44-.32-10.24-3.4-14.82-6.07C299.51,35.64,284,23.79,268.45,31Z"/><path class="cls-1" d="M251.92,65.16c7.2-5.26,16.49-8.78,25.56-7.32,9.08,1.63,16.37,8.64,21.3,16.1a34.54,34.54,0,0,0,5.46,7A19.31,19.31,0,0,0,312.07,85c-6.74-1.1-10.49-5-14.13-10.44a44.35,44.35,0,0,0-12.62-12.25c-10.23-6.69-23.64-3.08-33.4,2.89Z"/><path class="cls-1" d="M257.51,69.16c10.55-2.3,21.55.76,31.12,5.25l4.74,2.52a119.09,119.09,0,0,1,10.38,7l5.49,4.58a111.05,111.05,0,0,0,14.12,5.68,53.26,53.26,0,0,0,15,2.78c2.6.08,5.29-.62,7.84.11a23.82,23.82,0,0,1,7.16,3.39c11.8,8.06,26.07,27.67,24.23,42.48A57.15,57.15,0,0,1,375,154.29c-1.44,4.88-4.9,9.42-4.09,14.71-1-5.26,2.36-9.95,3.66-14.85A51,51,0,0,0,377,139.06c-1.29-13.67-13.16-29.91-24.32-37.55a22.37,22.37,0,0,0-6.77-3.17c-2.52-.69-5,.07-7.55-.07A54.55,54.55,0,0,1,323,95.35a100.28,100.28,0,0,1-14.51-6l-5.4-4.57a118.78,118.78,0,0,0-10.15-7.08l-4.65-2.56c-9.43-4.56-20.22-8-30.76-6Z"/><path class="cls-1" d="M215.14,42.85a28.65,28.65,0,0,0-13.94,2.3c-8.46,4.39-14.63,12.24-19.94,20a64.39,64.39,0,0,0-6.48,12.8,49.46,49.46,0,0,1,5.6-13.34A65.18,65.18,0,0,1,189.14,53c3.39-3.49,7.09-6.88,11.65-8.77a25.85,25.85,0,0,1,14.35-1.36Z"/><path class="cls-1" d="M182.73,111c-5.5,4.23-12.47,7.44-14.78,14.5.45-7.74,8.36-12,14.78-14.5Z"/><path class="cls-1" d="M186.64,99.75c-15.82,1.58-19.33,4.09-20.2,20.36-.65-5.6-.62-12.3,3.48-16.69,4.55-3.88,11.07-4.06,16.72-3.67Z"/><path class="cls-1" d="M190.19,87.63c-2.9,0-5.79,0-8.65.14-3.17.22-6.43.31-9.2,1.68-2,1.35-2.66,3.87-3.41,6.07a73.43,73.43,0,0,0-1.84,8.43c0-4.76.39-12.58,4.57-15.63,3.06-1.61,6.63-1.59,9.86-1.59a52.35,52.35,0,0,1,8.67.9Z"/><path class="cls-1" d="M207.19,72.2c-12.78-1.74-26.23.87-36.52,8.89,9.14-9.61,24-12.55,36.52-8.89Z"/><path class="cls-1" d="M313,95.59c7.22,8.91,16.13,17.07,27.05,21a30.13,30.13,0,0,1,8.65,4.33c.42.37,1.48,1.22,1.87,1.58s1.32,1.39,1.69,1.77a24.17,24.17,0,0,1,1.93,2.62,28.45,28.45,0,0,1,4,10.55c.86,4.21.21,8.53.06,12.78s-.23,8.44-.13,12.66.1,8.53,1.59,12.49c-1.77-3.88-1.84-8.28-2.24-12.46-.24-4.24-.31-8.48-.25-12.72s.66-8.38-.23-12.54a26.44,26.44,0,0,0-4.8-11.3l-.93-1.23c-.36-.35-1.24-1.34-1.58-1.68a26.57,26.57,0,0,0-4.32-3.23,38.37,38.37,0,0,0-5.69-2.5c-11-4.05-20-12.69-26.67-22.09Z"/><path class="cls-1" d="M169.27,136.89a36.45,36.45,0,0,1,4.57,6.42c1.27,2.4,2.52,4.9,2.25,7.77-.58,2.54-1.21,5.06-1.57,7.65a54.05,54.05,0,0,0-.7,7.75,28.82,28.82,0,0,1-.34-7.87,50.68,50.68,0,0,1,1.28-7.73c.27-2.38-.9-4.9-1.85-7.1s-2.32-4.63-3.64-6.89Z"/><path class="cls-1" d="M236,259.3c6.95-2.54,14.64-4.44,22.09-2.86,2.31.61,4.73,1.41,7.06,1a16.23,16.23,0,0,1,11,.34,81.21,81.21,0,0,0,10.73,3,36.65,36.65,0,0,0,7.37.88,36.05,36.05,0,0,1-7.38-.83A80.87,80.87,0,0,1,276.12,258a15.75,15.75,0,0,0-10.81-.13,9.56,9.56,0,0,1-3.83.72,22.24,22.24,0,0,1-3.67-1c-7.19-1.7-14.75-.13-21.79,1.66Z"/><path class="cls-1" d="M240.74,262.51c6.67-.43,13.56-1.25,20.12.43a11.23,11.23,0,0,0,3.88.13,30.7,30.7,0,0,1,8.07.06,30.79,30.79,0,0,0-8,.56,12.42,12.42,0,0,1-4.13.19,133.33,133.33,0,0,0-20-1.37Z"/><path class="cls-1" d="M239.68,265.33c4.37,4.47,10,8,16.29,8.51,2.55.18,5.29.34,7.84.45,3,.11,6,.22,9,.24a72.53,72.53,0,0,1-18.09.5,22.33,22.33,0,0,1-15-9.7Z"/><path class="cls-1" d="M212.68,281.38c.79,4.93-3.22,9.57-7.88,10.66a17.68,17.68,0,0,1-2,.32c.58-.35,1.18-.62,1.76-.93a15,15,0,0,0,8.12-10.05Z"/><path class="cls-1" d="M328,281.3c0,1.77-.07,3.65.81,5.18a8.4,8.4,0,0,0,2.5,1.73c7.79,3.93,16,7.07,23.77,11a113.53,113.53,0,0,1-24.29-10.11,7.92,7.92,0,0,1-2.64-2.24c-.8-1.75-.49-3.8-.15-5.57Z"/><path class="cls-1" d="M254.49,237.9a21.33,21.33,0,0,1-2.72,10.36,21.07,21.07,0,0,1,2.72-10.36Z"/><path class="cls-1" d="M270.92,237.9a20.56,20.56,0,0,1,1.89,10.36,20.52,20.52,0,0,1-1.89-10.36Z"/><path class="cls-1" d="M493.94,386.94c-5.8-14.67-12.09-29.21-19.84-43-3.11-5.08-9-16-15.15-17.16a26.7,26.7,0,0,1-5.9-.68c-21.16-5-41.62-12.53-62.19-19.47q-22.38-7.79-44.62-15.94l.27-.94c13.37,4.19,15.48,20.63,13.83,32.59-.88,6.28-1.9,12.8-5.54,18.13-16.73,24-56,36.13-84.12,38.08-32.05,2.38-65.78-7.47-80.75-38.24-9.11-16.86-8.18-38.91,4.47-53.77l.45.72a336.87,336.87,0,0,1-38,7.83c-12.75,2-25.61,3.42-38.44,4.75C93,302.76,67.72,315,52.51,336c15.09-21.21,40.37-33.63,65.85-36.75,25.61-2.76,51.36-5.91,76.23-12.78l1.38-.4-.93,1.12c-21.64,26.29-6.15,64.18,21.05,79.65,27.75,15.41,62,12.5,91.29,3.13,17.39-6.12,35.63-14.58,46.47-30.06,3.57-5.21,4.53-11.54,5.41-17.65,1.61-11.53-.22-27.37-13-31.5l.27-.94c35.23,12.6,70.35,26.37,106.61,35.71a25.85,25.85,0,0,0,5.83.72,6.8,6.8,0,0,1,2.86,1.11c5.67,4.11,9.07,10.55,12.57,16.44,7.64,13.84,13.81,28.43,19.5,43.16Z"/><path class="cls-1" d="M57,341.91c10.87,6.21,19.33,16.09,25.62,26.8,1.1,2,2.2,4.23,3.25,6.24.89,2.09,1.89,4.39,2.73,6.49.81,2.5,2.23,6.38,2.79,8.93A104.87,104.87,0,0,1,94,404.12c-1-4.36-2.08-9.22-3.46-13.51l-.66-2.23-.81-2.17c-1.16-3.44-2.93-7.42-4.41-10.7-6.49-13.08-15.58-25.24-27.7-33.6Z"/><path class="cls-1" d="M58.22,347.53a22.48,22.48,0,0,1,2.59,1.52l-.14.19A26.15,26.15,0,0,0,58.22,347.53Z"/><polygon class="cls-1" points="63.23 350.83 65.54 352.76 65.13 353.2 62.96 351.15 63.23 350.83"/><polygon class="cls-1" points="67.72 354.84 69.78 357.04 69.14 357.6 67.18 355.35 67.72 354.84"/><polygon class="cls-1" points="71.74 359.33 73.61 361.7 72.74 362.33 70.99 359.92 71.74 359.33"/><polygon class="cls-1" points="75.36 364.15 77 366.68 76 367.3 74.41 364.79 75.36 364.15"/><polygon class="cls-1" points="78.56 369.27 80.02 371.9 78.91 372.49 77.5 369.87 78.56 369.27"/><polygon class="cls-1" points="81.4 374.58 82.7 377.3 81.49 377.85 80.24 375.15 81.4 374.58"/><polygon class="cls-1" points="83.9 380.07 85.01 382.87 83.82 383.33 82.69 380.57 83.9 380.07"/><polygon class="cls-1" points="86.05 385.7 87.01 388.55 85.88 388.93 84.88 386.11 86.05 385.7"/><polygon class="cls-1" points="87.91 391.42 88.73 394.31 87.67 394.61 86.8 391.76 87.91 391.42"/><polygon class="cls-1" points="89.47 397.23 90.14 400.16 89.28 400.36 88.5 397.48 89.47 397.23"/><polygon class="cls-1" points="90.75 403.1 91.31 406.05 90.66 406.18 90 403.26 90.75 403.1"/><polygon class="cls-1" points="91.78 409.02 92.19 411.99 91.9 412.04 91.31 409.1 91.78 409.02"/><polygon class="cls-1" points="92.54 414.97 92.64 415.95 92.46 414.98 92.54 414.97"/><path class="cls-1" d="M196.31,285.89a23,23,0,0,1,5.94-3.37c2.14-.77,4.45-1.56,6.75-1.14-4.26,1.35-8.28,3.51-12.69,4.51Z"/><path class="cls-1" d="M184.65,292.36c-12.39,22.06-3.42,50.82,13.17,68.21,13,13.14,30.8,21.38,49.09,23.52,12.28,1.47,24.74.58,36.9-1.51a153,153,0,0,0,51.93-19.17c9.85-6,22.22-13.63,26.66-24.7a97.53,97.53,0,0,0,4.76-17.93,42.55,42.55,0,0,0-1.33-18.39,62.82,62.82,0,0,1,1.89,9.12c.78,9.35-1.83,18.61-4.7,27.42-4.36,11.31-16.84,19.2-26.76,25.37A152,152,0,0,1,284,383.84c-12.27,2.17-24.86,3.06-37.27,1.52-18.51-2.26-36.67-10.59-49.68-24.08-16.65-17.75-25.34-46.84-12.43-68.92Z"/><path class="cls-1" d="M187.92,290.26a24.6,24.6,0,0,0-1.37,2.65l-.2-.09A24.7,24.7,0,0,1,187.92,290.26Z"/><polygon class="cls-1" points="185.41 295.67 184.48 298.5 183.96 298.33 185.06 295.53 185.41 295.67"/><polygon class="cls-1" points="183.74 301.38 183.16 304.3 182.38 304.15 183.07 301.21 183.74 301.38"/><polygon class="cls-1" points="182.76 307.24 182.53 310.2 181.54 310.13 181.87 307.13 182.76 307.24"/><polygon class="cls-1" points="182.48 313.16 182.57 316.13 181.42 316.18 181.38 313.15 182.48 313.16"/><polygon class="cls-1" points="182.8 319.08 183.19 322.02 181.99 322.2 181.63 319.2 182.8 319.08"/><polygon class="cls-1" points="183.73 324.94 184.41 327.82 183.16 328.14 182.51 325.18 183.73 324.94"/><polygon class="cls-1" points="185.21 330.68 186.13 333.5 184.88 333.94 183.95 331.06 185.21 330.68"/><polygon class="cls-1" points="187.15 336.3 188.28 339.05 187.12 339.56 185.94 336.77 187.15 336.3"/><polygon class="cls-1" points="189.52 341.75 190.88 344.39 189.83 344.97 188.42 342.29 189.52 341.75"/><polygon class="cls-1" points="192.35 346.98 193.93 349.5 193 350.13 191.35 347.58 192.35 346.98"/><polygon class="cls-1" points="195.6 351.97 197.38 354.35 196.66 354.93 194.77 352.57 195.6 351.97"/><polygon class="cls-1" points="199.26 356.66 201.25 358.88 200.74 359.38 198.65 357.21 199.26 356.66"/><polygon class="cls-1" points="203.33 361.03 205.49 363.09 205.21 363.41 202.93 361.45 203.33 361.03"/><polygon class="cls-1" points="207.74 365.06 210.06 366.96 210.03 367 207.58 365.27 207.74 365.06"/><polygon class="cls-1" points="242.07 379.91 245.01 380.46 244.98 380.63 242.07 379.91"/><polygon class="cls-1" points="247.97 380.86 250.95 381.15 250.9 381.59 247.93 381.17 247.97 380.86"/><polygon class="cls-1" points="253.93 381.34 256.91 381.44 256.88 382.13 253.89 381.91 253.93 381.34"/><polygon class="cls-1" points="259.9 381.48 262.88 381.44 262.89 382.29 259.89 382.25 259.9 381.48"/><polygon class="cls-1" points="265.86 381.33 268.84 381.14 268.9 382.15 265.9 382.26 265.86 381.33"/><polygon class="cls-1" points="271.81 380.88 274.78 380.56 274.9 381.7 271.9 381.97 271.81 380.88"/><polygon class="cls-1" points="277.74 380.2 280.69 379.77 280.87 380.95 277.89 381.36 277.74 380.2"/><polygon class="cls-1" points="283.63 379.27 286.56 378.72 286.8 379.95 283.84 380.48 283.63 379.27"/><polygon class="cls-1" points="289.48 378.11 292.38 377.44 292.68 378.7 289.75 379.35 289.48 378.11"/><polygon class="cls-1" points="295.27 376.71 298.16 375.95 298.51 377.22 295.61 378 295.27 376.71"/><polygon class="cls-1" points="301.03 375.14 303.89 374.27 304.27 375.48 301.4 376.38 301.03 375.14"/><polygon class="cls-1" points="306.73 373.36 309.56 372.4 309.96 373.54 307.13 374.54 306.73 373.36"/><polygon class="cls-1" points="312.36 371.38 315.15 370.33 315.58 371.41 312.78 372.5 312.36 371.38"/><polygon class="cls-1" points="317.93 369.22 320.69 368.09 321.11 369.07 318.36 370.27 317.93 369.22"/><polygon class="cls-1" points="323.44 366.92 326.17 365.7 326.56 366.52 323.85 367.82 323.44 366.92"/><polygon class="cls-1" points="328.88 364.45 331.58 363.15 331.92 363.81 329.25 365.19 328.88 364.45"/><polygon class="cls-1" points="334.25 361.82 336.92 360.46 337.18 360.93 334.56 362.4 334.25 361.82"/><polygon class="cls-1" points="339.57 359.07 342.2 357.64 342.34 357.87 339.77 359.42 339.57 359.07"/><polygon class="cls-1" points="344.82 356.19 346.55 355.21 344.88 356.28 344.82 356.19"/><path class="cls-1" d="M454,334.79a398,398,0,0,0-22.34,45.46c-4.8,11.69-9,23.73-11.19,36.18A88.39,88.39,0,0,0,419,429c-.38-30.68,18.63-68.63,35-94.22Z"/><path class="cls-5" d="M458.75,334.79s-35,55.72-35,94.22"/><path class="cls-1" d="M377.39,188.47c-3.56,11.68-6.36,23.72-7.09,35.93a63.79,63.79,0,0,0,.07,8.41c.59,7.5,2.64,14.79,4.5,22.05s4.58,14.59,4.38,22.2A46.88,46.88,0,0,0,377.2,266c-3.22-10.86-7.09-21.73-8.16-33.07-.77-15.24,3-30.3,8.35-44.44Z"/><path class="cls-1" d="M173.9,124.26A31.44,31.44,0,0,0,161.61,147c-.18,8.87,2.08,17.67,3.87,26.32A119.53,119.53,0,0,1,168.13,191c.62,8.93,1.26,17.93.56,26.88a37.33,37.33,0,0,1-2.38,11c-.83,2.11-2.37,3.93-3.53,5.77-5,7.67-4.11,17.25-1.69,25.71-2.86-8.41-4-18.27,1-26.14,1.17-2,2.56-3.61,3.34-5.71,2.29-6.22,2.4-13,2.37-19.64-.39-11.83-.92-23.8-3.48-35.4-1.78-8.75-3.93-17.64-3.52-26.64a31,31,0,0,1,13.13-22.64Z"/><path class="cls-1" d="M158.86,175.73c-1.91,9.3-3.86,21.15.41,30,9.68,16.07,20,32.89,17.46,52.52a144.84,144.84,0,0,1-3.33,14.16c-.68,2.32-1.37,4.64-2.18,6.93-.38,1.14-.88,2.26-1.2,3.4a10.52,10.52,0,0,0,.06,3.58,10.49,10.49,0,0,1-.26-3.62c.28-1.2.73-2.31,1.06-3.48,1.39-4.61,2.47-9.32,3.53-14,5.75-22.23-5.32-40.51-16.09-59-4.2-9.23-2-21.06.54-30.47Z"/><path class="cls-1" d="M369.37,197.51c-.49,11.62.61,23.81,6,34.27,5.66,9.87,6.53,15,2,25.62a42.22,42.22,0,0,0-2.52,8.46,37.12,37.12,0,0,1,1.9-8.68c3.94-10.43,2.93-15.31-2.57-24.77-5.48-10.68-6.37-23.2-4.84-34.9Z"/><path class="cls-1" d="M220.62,202a1.22,1.22,0,1,1-2.43,0,1.22,1.22,0,1,1,2.43,0Zm0,0c0-.88-1.24-.77-1.1,0-.15.77,1.06.89,1.1,0Z"/><path class="cls-1" d="M195.84,197.41a1.22,1.22,0,1,1-2.43,0,1.22,1.22,0,1,1,2.43,0Zm0,0c0-.88-1.24-.76-1.09,0-.16.77,1.06.89,1.09,0Z"/><path class="cls-1" d="M230.72,206.1a.85.85,0,1,1-1.69,0,.85.85,0,1,1,1.69,0Zm0,0c0-.28-.39-.43-.51-.18s.17.3.16.18-.26,0-.16.17.53.1.51-.17Z"/><path class="cls-1" d="M237.71,199.63a.85.85,0,1,1-1.69,0,.85.85,0,1,1,1.69,0Zm0,0c0-.28-.39-.42-.51-.17s.17.29.15.17-.26,0-.15.18.52.1.51-.18Z"/><path class="cls-1" d="M224.87,190.42a.85.85,0,1,1-1.69,0,.85.85,0,1,1,1.69,0Zm0,0c0-.28-.39-.43-.51-.18s.17.3.15.18-.26,0-.15.17.52.1.51-.17Z"/><path class="cls-1" d="M236.19,191.44a.85.85,0,1,1-1.69,0,.85.85,0,1,1,1.69,0Zm0,0c0-.28-.39-.43-.51-.18s.17.3.16.18-.26-.05-.16.17.53.11.51-.17Z"/><path class="cls-1" d="M215.71,198.61a.85.85,0,1,1-1.69,0,.85.85,0,1,1,1.69,0Zm0,0c0-.28-.39-.42-.51-.18s.17.3.16.18-.26-.05-.16.18.53.1.51-.18Z"/><path class="cls-1" d="M204.43,189.45a.85.85,0,1,1-1.69,0,.85.85,0,1,1,1.69,0Zm0,0c0-.28-.39-.42-.51-.17s.17.29.16.17-.26,0-.16.18.53.1.51-.18Z"/><path class="cls-1" d="M210.77,206.61a.85.85,0,1,1-1.69,0,.85.85,0,1,1,1.69,0Zm0,0c0-.28-.39-.43-.51-.18s.18.3.16.18-.26-.05-.16.17.53.1.51-.17Z"/><path class="cls-1" d="M220.62,196.53a1.22,1.22,0,1,1-2.43,0,1.22,1.22,0,1,1,2.43,0Zm0,0c0-.88-1.24-.77-1.1,0-.15.77,1.06.89,1.1,0Z"/><path class="cls-1" d="M228.09,197.41a1.22,1.22,0,1,1-2.43,0,1.22,1.22,0,1,1,2.43,0Zm0,0c0-.88-1.24-.76-1.09,0-.16.77,1.06.89,1.09,0Z"/><path class="cls-1" d="M217.6,213.94a.84.84,0,1,1-1.68,0,.84.84,0,1,1,1.68,0Zm0,0c0-.28-.38-.43-.51-.18s.18.3.16.18-.26-.05-.16.18.53.1.51-.18Z"/><path class="cls-1" d="M228.93,215a.85.85,0,1,1-1.69,0,.85.85,0,1,1,1.69,0Zm0,0c0-.28-.39-.43-.51-.18s.17.3.15.18-.25-.05-.15.18.53.1.51-.18Z"/><path class="cls-1" d="M239.47,208.32a1.22,1.22,0,1,1-2.43,0,1.22,1.22,0,1,1,2.43,0Zm0,0c0-.89-1.24-.77-1.1,0-.15.77,1.07.88,1.1,0Z"/><path class="cls-1" d="M199.25,215.84a1.22,1.22,0,1,1-2.43,0,1.22,1.22,0,1,1,2.43,0Zm0,0c0-.88-1.24-.77-1.1,0-.15.77,1.07.89,1.1,0Z"/><path class="cls-1" d="M255.43,192.37a1.22,1.22,0,1,1-2.44,0,1.22,1.22,0,1,1,2.44,0Zm0,0c0-.88-1.25-.76-1.1,0-.15.77,1.06.89,1.1,0Z"/><path class="cls-1" d="M265.53,196.48a.85.85,0,1,1-1.69,0,.85.85,0,1,1,1.69,0Zm0,0c0-.28-.39-.43-.51-.18s.17.3.16.18-.26,0-.16.18.53.1.51-.18Z"/><path class="cls-1" d="M272.51,190a.85.85,0,1,1-1.69,0,.85.85,0,1,1,1.69,0Zm0,0a.28.28,0,0,0-.51-.17c-.1.23.18.29.16.17s-.26,0-.16.18.53.1.51-.18Z"/><path class="cls-1" d="M259.67,180.8a.85.85,0,1,1-1.69,0,.85.85,0,1,1,1.69,0Zm0,0c0-.28-.38-.43-.51-.18s.18.3.16.18-.26-.05-.16.18.53.1.51-.18Z"/><path class="cls-1" d="M271,181.82a.85.85,0,1,1-1.69,0,.85.85,0,1,1,1.69,0Zm0,0c0-.28-.39-.42-.51-.18s.17.3.15.18-.26,0-.15.18.52.1.51-.18Z"/><path class="cls-1" d="M250.52,189a.85.85,0,1,1-1.69,0,.85.85,0,1,1,1.69,0Zm0,0c0-.28-.39-.42-.51-.17s.17.29.15.17-.26-.05-.15.18.52.1.51-.18Z"/><path class="cls-1" d="M239.24,179.84a.85.85,0,1,1-1.69,0,.85.85,0,1,1,1.69,0Zm0,0c0-.28-.39-.43-.52-.18s.18.3.16.18-.26-.05-.16.17.53.11.52-.17Z"/><path class="cls-1" d="M245.58,197a.85.85,0,1,1-1.69,0,.85.85,0,1,1,1.69,0Zm0,0c0-.28-.39-.43-.51-.18s.17.3.16.18-.26-.05-.16.18.53.1.51-.18Z"/><path class="cls-1" d="M255.43,186.91a1.22,1.22,0,1,1-2.44,0,1.22,1.22,0,1,1,2.44,0Zm0,0c0-.88-1.25-.76-1.1,0-.15.77,1.06.89,1.1,0Z"/><path class="cls-1" d="M262.9,187.8a1.22,1.22,0,1,1-2.43,0,1.22,1.22,0,1,1,2.43,0Zm0,0c0-.89-1.24-.77-1.1,0-.15.77,1.06.88,1.1,0Z"/><path class="cls-1" d="M274.28,198.7a1.22,1.22,0,1,1-2.43,0,1.22,1.22,0,1,1,2.43,0Zm0,0c0-.88-1.24-.77-1.1,0-.15.77,1.06.88,1.1,0Z"/><path class="cls-1" d="M302,196.91c0,.88,1.25.77,1.1,0,.14-.77-1.06-.88-1.1,0Zm0,0a1.22,1.22,0,1,1,2.43,0,1.22,1.22,0,1,1-2.43,0Z"/><path class="cls-1" d="M291.85,201c0,.28.39.43.51.18s-.17-.3-.16-.18.26.06.16-.17-.53-.11-.51.17Zm0,0a.85.85,0,1,1,1.69,0,.85.85,0,1,1-1.69,0Z"/><path class="cls-1" d="M284.86,194.55c0,.28.39.42.52.18s-.17-.3-.16-.18.25,0,.16-.18-.53-.1-.52.18Zm0,0a.85.85,0,1,1,1.69,0,.85.85,0,1,1-1.69,0Z"/><path class="cls-1" d="M297.7,185.33c0,.28.39.43.52.18s-.17-.3-.16-.18.25.06.16-.17-.53-.11-.52.17Zm0,0a.85.85,0,1,1,1.69,0,.85.85,0,1,1-1.69,0Z"/><path class="cls-1" d="M286.38,186.36c0,.27.39.42.51.17s-.17-.3-.16-.17.26,0,.16-.18-.53-.1-.51.18Zm0,0a.85.85,0,1,1,1.69,0,.85.85,0,1,1-1.69,0Z"/><path class="cls-1" d="M306.86,193.53c0,.28.39.42.51.18s-.17-.3-.16-.18.26.05.16-.18-.53-.1-.51.18Zm0,0a.85.85,0,1,1,1.69,0,.85.85,0,1,1-1.69,0Z"/><path class="cls-1" d="M318.14,184.37c0,.28.39.43.51.18s-.17-.3-.15-.18.25.06.15-.17-.53-.11-.51.17Zm0,0a.85.85,0,1,1,1.69,0,.85.85,0,1,1-1.69,0Z"/><path class="cls-1" d="M311.8,201.52c0,.28.38.43.51.18s-.17-.3-.16-.18.26.06.16-.17-.53-.11-.51.17Zm0,0a.85.85,0,1,1,1.69,0,.85.85,0,1,1-1.69,0Z"/><path class="cls-1" d="M301.19,206.1c0,.27.39.42.52.17s-.17-.3-.16-.17.25.05.16-.18-.53-.1-.52.18Zm0,0a.85.85,0,1,1,1.69,0,.85.85,0,1,1-1.69,0Z"/><circle class="cls-2" cx="308.39" cy="209.56" r="0.51"/><path class="cls-1" d="M315.38,195.86c0,.89,1.26.77,1.1,0,.15-.77-1.06-.88-1.1,0Zm0,0a1.22,1.22,0,1,1,2.44,0,1.22,1.22,0,1,1-2.44,0Z"/><path class="cls-1" d="M321.3,207.43c0,.89,1.25.77,1.1,0,.14-.76-1.06-.88-1.1,0Zm0,0a1.22,1.22,0,1,1,2.43,0,1.22,1.22,0,1,1-2.43,0Z"/><path class="cls-1" d="M334.61,208.32c0,.88,1.25.77,1.09,0,.15-.77-1.06-.89-1.09,0Zm0,0a1.22,1.22,0,1,1,2.43,0,1.22,1.22,0,1,1-2.43,0Z"/><path class="cls-1" d="M336.37,188.68c0,.88,1.25.77,1.1,0,.14-.77-1.06-.88-1.1,0Zm0,0a1.22,1.22,0,1,1,2.43,0,1.22,1.22,0,1,1-2.43,0Z"/><path class="cls-1" d="M320.29,192.48c0,.28.39.42.52.18s-.17-.3-.16-.18.25.05.16-.17-.53-.11-.52.17Zm0,0a.85.85,0,1,1,1.69,0,.85.85,0,1,1-1.69,0Z"/><path class="cls-1" d="M325.23,200.48c0,.28.39.42.51.17s-.17-.29-.16-.17.26.05.16-.18-.53-.1-.51.18Zm0,0a.85.85,0,1,1,1.69,0,.85.85,0,1,1-1.69,0Z"/><path class="cls-1" d="M302,191.45c0,.88,1.25.77,1.1,0,.14-.77-1.06-.88-1.1,0Zm0,0a1.22,1.22,0,1,1,2.43,0,1.22,1.22,0,1,1-2.43,0Z"/><path class="cls-1" d="M294.48,192.33c0,.89,1.25.77,1.1,0,.14-.77-1.06-.88-1.1,0Zm0,0a1.22,1.22,0,1,1,2.43,0,1.22,1.22,0,1,1-2.43,0Z"/><path class="cls-1" d="M283.1,203.24c0,.88,1.25.77,1.1,0,.14-.77-1.06-.89-1.1,0Zm0,0a1.22,1.22,0,1,1,2.43,0,1.22,1.22,0,1,1-2.43,0Z"/><path class="cls-1" d="M39.18,355.21c-10.81,36.67-20.67,73.84-25.31,111.85-.14,1-.35,3-.42,3.94l-.72,7.89a269.78,269.78,0,0,1,2.93-31.58,530.85,530.85,0,0,1,23.52-92.1Z"/></g></svg>