<svg id="Johanna" xmlns="http://www.w3.org/2000/svg" viewBox="0 0 538.06 518.16"><defs><style>.cls-1,.cls-4{fill:#1d1d1b;}.cls-2{fill:none;}.cls-2,.cls-4{stroke:#1d1d1b;stroke-miterlimit:10;stroke-width:1.38px;}.cls-3{fill:#fff;}</style></defs><path class="cls-1" d="M363.55,264.27c12.61,9.59,29.08,10,43.42,15.49a78.23,78.23,0,0,1,36,28.52c2.26,3.33,5.2,8.73,5.69,11.85a258.22,258.22,0,0,1,16.63,25.34c2.45,4.47,4.84,9,6.12,14,.56,2.56.45,5,1,7.53a75.77,75.77,0,0,0,4.21,14.36c1.18,2.68,2.21,5.83,4.11,8a2.15,2.15,0,0,1,.48.54c2.2,3.7,3.84,7.69,5.66,11.57,4.16,9.2,8.16,18.45,12.12,27.73a72.13,72.13,0,0,1,1.86,8.19A246.59,246.59,0,0,1,503.79,462c1.94,27.52,1.5,55.14.27,82.68l-.86,16.52.61-16.53c.81-30.26,1.1-60.65-1.9-90.81-.56-5.34-1.26-11.07-2.24-16.33a75.67,75.67,0,0,0-1.79-7.92c-5-11.56-10-23.14-15.39-34.51a45.94,45.94,0,0,0-2.49-4.68,5.39,5.39,0,0,1-1.37-1.69,50.79,50.79,0,0,1-3.25-6.94,77.53,77.53,0,0,1-4.24-14.63c-.52-2.43-.44-5.08-.95-7.46-1.22-4.8-3.59-9.31-6-13.66a280.82,280.82,0,0,0-16.58-25.49,39.31,39.31,0,0,0-5.54-11.72,77.33,77.33,0,0,0-35.39-28.47c-14.25-5.68-30.73-6.36-43.17-16.13Z"/><path class="cls-1" d="M126.63,228.5c2.32-11.32,5.3-22.51,7.09-33.93,1.5-8.55.12-17.29.18-25.93,0-2.9-.17-5.83.6-8.68a254.63,254.63,0,0,1,2.09-33.87c5.66-42.92,21.55-94.6,64.25-113.67,23.65-11,58.6-13.1,83.69-6.23,27.07,9.07,50,30.41,59.56,57.48A117.86,117.86,0,0,1,350,88.57c2.13,14,3.43,28.17,4.42,42.3,2.18,32.34,2.49,65.28,2.43,97.69a39.75,39.75,0,0,0,3.19,16.26c2,3.61,4.81,7,6.56,10.86a44.76,44.76,0,0,1,3.2,7.9,87.05,87.05,0,0,0-8.6-14.53,21.76,21.76,0,0,1-2.38-3.64,40.48,40.48,0,0,1-3.38-16.82c0-32.39-.37-65.32-2.61-97.61-1-14.1-2.36-28.18-4.43-42.17a116.63,116.63,0,0,0-5.8-24.6c-9.34-26.66-31.9-47.7-58.52-56.69-24.85-6.8-59.33-4.9-82.79,5.92-42.48,18.79-58.22,70.15-64.17,112.72A256,256,0,0,0,134.8,160c-.72,2.76-.51,5.76-.51,8.61,0,8.65,1.34,17.41-.13,26-1.77,11.41-4.8,22.65-7.53,33.86Z"/><path class="cls-1" d="M24.05,524.19c5.95-20.63,11.7-41.33,18.48-61.72.57-1.72,1.61-4.3,2.33-6,2.26-6.08,2.19-12.67,4-18.87a17.24,17.24,0,0,1,.94-2.29l.45-.71.23-.36A4.94,4.94,0,0,0,52,432.05c1-6.25.2-12.84.75-19.2A126.47,126.47,0,0,1,54.06,400a130.24,130.24,0,0,1,14.77-42.56,114.23,114.23,0,0,1,9.84-16.73c2.58-3.46,5.33-7,9.47-9.08l-.28.23a107.48,107.48,0,0,1,20-19.93c9.64-7.78,13.64-24.78,16.53-36.49a81.6,81.6,0,0,1,2.09-8.39c.73-2.8.62-5.73.72-8.6.22-7.91-.27-15.91,1-23.74l.24-1c.11-.35.25-.68.38-1,2-3.93,1.94-8.4,2.21-12.69a5.29,5.29,0,0,1,.65-2.09A106.08,106.08,0,0,0,133,207.13c-.22,3.6-.71,7.2-.79,10.79a5.12,5.12,0,0,1,.11,2.2,29.7,29.7,0,0,1-1.05,4.23c-.93,3.15-1.5,6.32-2.88,9.3-1.65,8.13-1,16.54-1.24,24.79A79.36,79.36,0,0,1,125,275.57c-2.78,11.92-6.08,26.74-14.77,35.82-7.8,6.37-15.35,13.29-21.36,21.41-3.77,1.83-6.56,5.4-9.06,8.73a113.19,113.19,0,0,0-9.76,16.53,129.55,129.55,0,0,0-15,42.09,127,127,0,0,0-1.41,12.76c-.61,6.42.22,13-.94,19.36a5.27,5.27,0,0,1-1.63,2.41l-.21.33-.41.64-.34.7a12.37,12.37,0,0,0-.56,1.47c-1.87,6.14-1.87,12.79-4.19,18.84l-1.24,3c-.42,1-.75,2-1.13,3-6.93,20.32-12.85,41-19,61.55Z"/><path class="cls-1" d="M214.22,62.79c-1.05,9.51-1.74,19.06-2,28.62s-.2,19.23,2.22,28.46l-.54.09c-.52-8.1-.95-16.22-.83-24.34A41.46,41.46,0,0,1,214.5,84.7c.34,10.4.62,20.83,1.49,31.2a25.32,25.32,0,0,0,.6,3.87l-.82.19q-.37-8.1-.51-16.21c-.11-6.67-.13-13.47,1-20.1.31,2.58.68,6.42,1,9a13.61,13.61,0,0,0,.3,1.61l-1,.1c.78-6.88,1.29-13.78,2.84-20.56l1-3.71.05,3.86c.14,4.28-.06,8.66.71,12.88l-1,.25c.14-2.15.29-4.29.48-6.44a49.91,49.91,0,0,1,.79-6.07c.12-.36.95-2.64,1.08-3,0,.8,1.28,21.26,1.37,22.81h-1.2c.54-7.45.73-14.94,1.83-22.34,0-.36.29-1,.8-1s.79.47.85.88a75.39,75.39,0,0,1,.59,9.23l-1.31,0c.31-3.09.32-6.29,1.3-9.27.17-.43,1.12-1.13,1.43-1.46v30.47l-1.31-.06c.6-6,2.15-21.47,2.81-27.29.35-2.75.68-6.42,1.25-9.16L232.13,59c0,1.34-.07,43-.07,45.89l-1.07,0,1-22.07h1l1,26h-.9l1-28.56H235l.8,33.43h-.7l1-37.28h.36l1.37,19.08h-.18l1.08-18.84-.9,18.85h-.18L236,76.41h.36l-.65,37.29h-.7l-.91-33.42H235l-1,28.56h-.9l-1.09-26h1L232.06,105l-1.07,0-.06-40.45,1.17.18c-.49,2.39-.87,6.42-1.18,8.95-.64,5.75-2.15,21.31-2.72,27.27l-1.32-.06V71.86l1.06.54a55.13,55.13,0,0,0-1.14,8.76l-1.31,0a69,69,0,0,0-.57-9.12.57.57,0,0,0,.88.1c.1-.11.05-.08,0,0a17.69,17.69,0,0,0-.34,2.12c-.16,1.32-.28,2.67-.4,4-.47,5.38-.83,10.77-1.17,16.16h-1.2l-1.13-20,1.07.22-.09.28a131.49,131.49,0,0,0-1.43,14.59l-.86-2.07a3.8,3.8,0,0,1-.29-1,117.69,117.69,0,0,1-.55-12.46l1,.15c-1.69,7.49-2.26,15.3-3.12,22.94l-.69-2.47a66.9,66.9,0,0,1-.94-6.94l.95,0c-1.13,11.7-.29,23.59.08,35.32l-.94-2.84a21.62,21.62,0,0,1-.65-4.14c-.77-9.45-1-18.93-1.32-28.4l.74.09a40.31,40.31,0,0,0-.75,8c-.14,9,.29,18,.81,26.9L214,120c-2.35-9.35-2.17-19.06-2-28.61s1.1-19.12,2.24-28.62Z"/><path class="cls-1" d="M186.17,83c0,10.59-.77,21.51.27,32l-.55.07c.34-7.08.45-14.13,1.17-21.2a.44.44,0,0,1,.83-.08,14.55,14.55,0,0,1,.24,2.38c.16,3.19.34,10.81.41,14.1l-1,0L189,89.51l1.17,0,.61,18.4-1.22-.08c1.68-11,3.47-22.06,5.92-33,1-3.68,1.59-7.46,3.5-10.82l1.85-2.79c-.87,4.61-1.71,9.36-2.39,14-.71,5.31-1.62,10.72-1.34,16,.26,3.46,1,12.71,1.23,16.28l-1.23,0,.38-19.69h1.17l.39,22.67-1,0c.7-8.15,1.46-19.22,2.49-27.24a3.56,3.56,0,0,1,.26-1,.35.35,0,0,1,.57,0,2.16,2.16,0,0,1,.15.9c.1,2.67-.15,8-.2,10.79l-.52,13.24-.24,0c.6-4,1.34-9.61,2.23-13.51-.81,3.89-1.46,9.55-2,13.54l-.24,0c.09-6.54.5-17.56.29-24l0-.4a.63.63,0,0,0,0-.16s0,0,0,0a.32.32,0,0,0,.5,0c0-.07,0,0,0,0a2.47,2.47,0,0,1-.06.29c-1,8.11-1.63,19.36-2.27,27.61l-1,0L197.47,88h1.17l-.32,19.69-1.23,0c-.28-3.6-1-12.74-1.28-16.22-.32-5.52.58-10.94,1.29-16.37q.78-5.39,1.76-10.74l1.24.51c-1.7,3-2.44,6.92-3.32,10.34-.84,3.61-1.58,7.24-2.28,10.89-1.38,7.29-2.61,14.62-3.74,22l-1.22-.07L189,89.57l1.17,0-1.61,20.74-1,0c-.08-4.36-.07-11.84-.4-16.08l0-.1v0a.41.41,0,0,0,.72,0c-.74,6.93-.94,14-1.41,21l-.13,2.14a40.92,40.92,0,0,1-.77-10.17c0-8,.31-16.07.62-24.1Z"/><path class="cls-2" d="M168.53,143.34s2.8,17.73,9.92,23.63,21,6,21,6,15.58.93,22.76-5.61,11-20.94,11.22-26.2.65-12.16-4.51-16.67-15.3-7.82-27.43-7.91-25.48,2-29.27,6.52C167.3,129,167.34,136.37,168.53,143.34Z"/><path class="cls-1" d="M345,118.8l0,2.51c0,3.1,0,4.29,0,5.52a1.08,1.08,0,0,1-.46.78,2.83,2.83,0,0,1-.86.26,5.46,5.46,0,0,0-3.35,2.67c-1.22,2.06-1.53,4.43-2,6.76a135.07,135.07,0,0,1-6.66,20.37c-2.53,6.65-6.07,13.72-13,16.66-6.57,3-14,3.14-21.14,3.43-4.75,0-9.66.34-14.3-.89a28,28,0,0,1-6.57-3c-12.53-7.47-18.65-24.91-19.53-39a1.35,1.35,0,0,1,.19-1.07c2.46-3.59,5.14-6.69-1-8.08-3.41-.87-17.23-1.81-17.9,2.74.2,2,1.67,3.75,2.78,5.38a1.38,1.38,0,0,1,.17,1,58.8,58.8,0,0,1-9.37,28.86,30.76,30.76,0,0,1-14.79,12.29c-3.82,1.62-8.07,1.47-12.13,1.55a102.11,102.11,0,0,1-18.32-1.33c-8.75-1.5-14.82-6.79-18.06-15a179.15,179.15,0,0,1-8.31-23c-1-3.73-1.37-9.29-5.94-10.1a1.52,1.52,0,0,1-1.33-1.5v-.77l0-3.06,0-3.06c0-.88-.12-2,.84-2.56,10.06-3.14,20.68-4.24,31.12-5.17,8.15-.45,16.37-1.09,24.51-.27A60.77,60.77,0,0,1,232.88,119a3.7,3.7,0,0,0,3.89.1c4-1.3,8.35-1.22,12.55-1.38,4.19.11,8.51,0,12.56,1.33a3.64,3.64,0,0,0,3.83-.08,63.15,63.15,0,0,1,29.48-7.66,233.14,233.14,0,0,1,30.57,2c5.85,1,12,1.37,17.46,3.87l.59.26a2.31,2.31,0,0,1,.59.29,1.36,1.36,0,0,1,.55,1.12Zm0,0a1.1,1.1,0,0,0-.61-1,4.79,4.79,0,0,0-1.23-.25,49.21,49.21,0,0,1-7.52-1.27,236.07,236.07,0,0,0-40.41-4.06c-10,.06-20.49,2.19-29.25,7a4,4,0,0,1-4.16.1c-4-1.3-8.29-1.27-12.45-1.42-4.17.1-8.48.08-12.47,1.39a4,4,0,0,1-4.1-.1c-8.86-5-19.19-7-29.29-7.13-6.11.15-12.21.45-18.29,1a175.81,175.81,0,0,0-30,4.92l-.37.11a.64.64,0,0,0-.48.39,5.87,5.87,0,0,0-.06,1.3c0,1.54-.07,4.59-.06,6.12,0,1.37-.08,1.18,1.31,1.54,2.15.66,3.48,2.69,4.18,4.68a53.51,53.51,0,0,1,1.4,6,140.32,140.32,0,0,0,5.66,17.41c1.55,3.73,2.91,7.66,5.18,11,4.42,7.23,13.06,9.65,21,10.17a121.24,121.24,0,0,0,12.2.47c4.05-.11,8.22.08,12-1.54a30.26,30.26,0,0,0,14.56-12.14,57.49,57.49,0,0,0,9.08-26.83l.15-1.78a.92.92,0,0,0-.08-.7c-1.24-1.9-4.33-5.38-2-7.46,3-2.29,7-2.1,10.56-2.26a35,35,0,0,1,7.2.72c6.49,1.47,4.19,5.08,1.32,9-.16.2-.08.38-.07.65a60.72,60.72,0,0,0,5.73,22.38c4.07,8.64,10.52,16.15,20,18.91,4.52,1.19,9.42.81,14.09.83,7-.31,14.35-.41,20.8-3.43,9.05-4,11.78-14.39,15.15-22.86a133.45,133.45,0,0,0,4.4-13.53c.51-2.28.91-4.74,2.22-6.79a5.55,5.55,0,0,1,3.51-2.64c.59-.08,1.2-.27,1.26-1,0-.28,0-.59,0-.88l0-7.14Z"/><path class="cls-2" d="M330.11,143.34s-2.79,17.73-9.92,23.63-21,6-21,6-15.58.93-22.75-5.61-11-20.94-11.23-26.2-.64-12.16,4.51-16.67,15.3-7.82,27.43-7.91,25.48,2,29.28,6.52C331.35,129,331.3,136.37,330.11,143.34Z"/><path class="cls-1" d="M206.86,215.75c11.46-6.61,33.18-13.52,44.57-8.49,9.9-1.78,20.39-1,29.56,3.27.57.32,2.49,1.32,3.06,1.64s2.17,1.48,2.86,1.94c-10.44-6.49-23.49-7.77-35.39-5.52-12.49-4.86-32.84,1.74-44.66,7.16Z"/><path class="cls-1" d="M284.06,223.35A49,49,0,0,1,247,236.73c-10.06-.5-21-2.3-28.54-9.54a29.28,29.28,0,0,1-4.66-6.1,6.55,6.55,0,0,0-1.55-2,5.85,5.85,0,0,1,1.95,1.65,51,51,0,0,0,5.13,5.46c7.56,6.68,17.81,9,27.71,9.77a48.66,48.66,0,0,0,37.05-12.67Z"/><path class="cls-1" d="M212.22,216.34c9.8-2.17,19.81-3.8,29.89-3.49a8.86,8.86,0,0,0,1.91-.16,21.85,21.85,0,0,1,5.68.72c2.24.37,5-.29,7.32-.31a149,149,0,0,1,15.09-.11c-5,.26-10,.61-15,1.13l-3.73.39a12.52,12.52,0,0,1-3.94.12c-1.22-.17-2.42-.46-3.66-.54s-2.43-.7-3.69-.72c-10-.49-20.08.86-29.86,3Z"/><path class="cls-1" d="M219.81,220.62a116.62,116.62,0,0,1,21,2.6,15.36,15.36,0,0,1,4.26,2.61c-1.48-.55-2.87-1.46-4.42-1.72a135,135,0,0,1-20.83-3.49Z"/><path class="cls-1" d="M242.17,223.67a30.74,30.74,0,0,1,14.49.42,47.58,47.58,0,0,1-14.49-.42Z"/><path class="cls-1" d="M237.46,213.33c.25,2.12.41,4.22.51,6.34a3,3,0,0,0,.5,1.72c.62,1.07,2.16.61,3.36.68,1.41,0,2.82,0,4.23,0a2,2,0,0,0,1.78-.71,5.49,5.49,0,0,0,.43-2.28c.13-1.74.24-3.5.39-5.27a44.69,44.69,0,0,1,.52,5.29c.12,1.48,0,3.34-1.61,4s-3.78.24-5.77.34c-.9-.06-2.66.16-3.43-.44A3.52,3.52,0,0,1,237,219.7c.1-2.13.26-4.25.51-6.37Z"/><path class="cls-1" d="M249.61,214c.27,2.31.44,4.69.54,7a1.25,1.25,0,0,0,.57,1,2.52,2.52,0,0,0,1.38.16l3.48,0c1,0,2.44.06,3.39,0a1.65,1.65,0,0,0,1.56-1.82c.09-2.32.27-4.63.53-7q.4,3.49.54,7a2.93,2.93,0,0,1-3.39,3.12c-1.58,0-4.52,0-6.13,0s-3-.67-3-2.41c.08-2.39.26-4.67.53-7Z"/><path class="cls-1" d="M262,213.33a53.2,53.2,0,0,1,.56,5.62c0,.53.3,1.29.76,1.42a6.58,6.58,0,0,0,1.34.09c-.1,0,3.56,0,3.09,0a1,1,0,0,0,.74-.94l.13-2c.11-1.37.24-2.75.47-4.14a49.15,49.15,0,0,1,.57,6.31,2.25,2.25,0,0,1-1.68,2.1c-1.11.07-2.22.11-3.34.07l-.82,0a2.45,2.45,0,0,1-2.37-2.8,56.06,56.06,0,0,1,.55-5.64Z"/><path class="cls-1" d="M269.12,219.46a15.58,15.58,0,0,1,.69,1.83.17.17,0,0,0,.18.09c.49-.08,1.06-.11,1.56-.15,0,0,.27,0,.21,0a9.58,9.58,0,0,1,.75-1.51,7.86,7.86,0,0,1,.42-.72,27.78,27.78,0,0,1,.68-5.65,26.87,26.87,0,0,1,.65,5.12,2.12,2.12,0,0,1-.14,1.17l-.4.75c-.48.68-.7,1.67-1.53,2a4.66,4.66,0,0,1-1.49,0l-.64-.06c-1.4-.11-.92-1.88-.94-2.85Z"/><path class="cls-1" d="M268.38,222.61a11.93,11.93,0,0,1,4.1-1c1.37-.09,3-.15,4.21.79-2.8.34-5.53,1.1-8.31.22Z"/><path class="cls-1" d="M278.83,221.33a2.42,2.42,0,0,1-3.32.67,2.42,2.42,0,0,1,3.32-.67Z"/><path class="cls-1" d="M273,220.2c1,.13,1.16.88.38,1.46-1-.12-1.16-.88-.38-1.46Z"/><path class="cls-1" d="M278.58,213.67a7.26,7.26,0,0,1,.68,3.51,7,7,0,0,1-2.13,2.52,6.87,6.87,0,0,1,.84-3l-.08.32a7,7,0,0,1,.69-3.32Z"/><path class="cls-1" d="M229.45,213.65a32,32,0,0,1,.65,5.5c0,1.11.62,1.4,2,1.47,1,.09,2.07.15,3.11.19a1.29,1.29,0,0,0,1.58-1,1.57,1.57,0,0,1-1.61,1.84c-2.07.39-6.64,1.07-6.39-2.51a32.53,32.53,0,0,1,.64-5.46Z"/><path class="cls-2" d="M222.51,138.63a63.94,63.94,0,0,1-14,2.75"/><path class="cls-2" d="M202.63,141.53c-6.14-.2-12.68-1.65-18.13-5.68a.33.33,0,0,1,0-.5,31.31,31.31,0,0,1,17.94-7.63"/><path class="cls-2" d="M226.53,135.62c-6.4-4.72-12.35-7-17.65-7.7"/><path class="cls-2" d="M214.22,134.61c0,3.1-2.37,5.72-5.69,6.77a49.65,49.65,0,0,1-5.9.15c-3.58-.92-6.18-3.68-6.18-6.92s2.49-5.9,6-6.89h0a30.63,30.63,0,0,1,6.43.2C212,129,214.22,131.61,214.22,134.61Z"/><circle class="cls-1" cx="205.47" cy="134.37" r="3.69"/><circle class="cls-3" cx="203.83" cy="133.01" r="0.31"/><circle class="cls-3" cx="202.81" cy="135.56" r="0.25"/><path class="cls-1" d="M233.12,166.18c-2.38,4.49-5.32,9.21-5.61,14.36-.12,3.14,2.38,4.74,5.16,5.34,1.16.34,2.35.55,3.55.82a21.9,21.9,0,0,1-5.53-.48c-9.3-2.74-2.14-15.19,2.43-20Z"/><path class="cls-1" d="M233.59,184.43a2.93,2.93,0,0,1-1.33-3.65,6,6,0,0,1,3.12-2.9c3.5-1.54,7.47,0,10.4,2.07,2.38,2.43-1.94,4.26-3.87,4.68-2.71.63-5.73,1-8.32-.2Zm0,0c2.58,1.15,5.58.49,8.11-.46.84-.31,4.45-2,3.22-3-2.71-1.68-6-3.39-9.3-2.44a5.49,5.49,0,0,0-3.19,2.34,2.74,2.74,0,0,0,1.16,3.57Z"/><path class="cls-1" d="M240.76,188.46a41.22,41.22,0,0,1-3.95,14.69,40.87,40.87,0,0,1,3.95-14.69Z"/><path class="cls-1" d="M258.71,188.46a46.41,46.41,0,0,1,4.76,15.45,46.34,46.34,0,0,1-4.76-15.45Z"/><path class="cls-1" d="M267.37,183.16c1.52-.76,3.45-2.84.84-3.65-2.53-1.19-5.94-1.53-8,.41-.73.75-2.8,2.6-1.41,3.54,2.53,1.41,5.92.9,8.53-.3Zm0,0c-2.75,1.22-6.08,2.33-9,1.11-1.68-.83-1.24-2.68-.29-3.9a6.3,6.3,0,0,1,5-3,10.53,10.53,0,0,1,6.15,2.23c1.43,1.33-.64,2.94-1.82,3.51Z"/><path class="cls-1" d="M270.92,169.81c3.12,2.67,6.95,7.1,5,11.49-1.89,2.74-5.23,4.22-8.34,5.13a29.12,29.12,0,0,1-3.15.52,35.11,35.11,0,0,0,5.71-2.57c1.62-1.06,3.5-2.08,4.57-3.74,1.6-3.59-1.75-7.82-3.76-10.83Z"/><path class="cls-1" d="M266.16,109.06a5.47,5.47,0,0,1,0-5.36,5.42,5.42,0,0,1,0,5.36Z"/><path class="cls-1" d="M265.93,112.65a9.14,9.14,0,0,1-.83-7,9.1,9.1,0,0,1,.83,7Z"/><path class="cls-1" d="M265.25,113.69a17.48,17.48,0,0,1-1.41-9.75,17.46,17.46,0,0,1,1.41,9.75Z"/><path class="cls-2" d="M266.91,113.31a1.13,1.13,0,0,1-.51-1.07l.8-7.81.36,1.76.33-1.22.24.57s8.26-6.1,14.76-6.83c6.11-.7,19.75-1.32,21.35-1.39a.77.77,0,0,1,.3,0c1,.26,7.29,1.85,8,2.64s5.66,6.29,6.26,7a.83.83,0,0,1,.11.15l1.29,2.09s-15.93-3.41-23.12-2.37-24,5-26.19,6.59A3.46,3.46,0,0,1,266.91,113.31Z"/><path class="cls-1" d="M228.92,112.55a5.45,5.45,0,0,1,0-5.35,5.4,5.4,0,0,1,0,5.35Z"/><path class="cls-1" d="M229.16,116.15a9.08,9.08,0,0,1,.83-7,9.17,9.17,0,0,1-.83,7Z"/><path class="cls-2" d="M228.68,115.73a1.08,1.08,0,0,1-.47,1,66.45,66.45,0,0,0-22.07-5h0c-3.13-.66-6-1.21-8.1-1.5-7.2-1-23.13,2.37-23.13,2.37l1.28-2.1a.87.87,0,0,1,.12-.14c.6-.68,5.5-6.17,6.25-7s7-2.39,8.05-2.64a.73.73,0,0,1,.29,0c1.6.07,15.24.7,21.35,1.4,6.5.73,13.51,5.23,13.51,5.23l1.49,1,.33,1.21.36-1.77Z"/><path class="cls-4" d="M202.63,141.53c-6-.2-12.31-1.57-17.66-5.34a.79.79,0,0,1-.06-1.23,31.44,31.44,0,0,1,17.5-7.24s-9.28,3.24-12.73,7.64a.77.77,0,0,0,0,1C190.61,137.4,193.54,139.77,202.63,141.53Z"/><path class="cls-1" d="M225.77,130.91c-14.18-9.14-30.17-9.41-43.84.86,12.22-12.06,31-11.84,43.84-.86Z"/><path class="cls-1" d="M224.61,214.24a22.94,22.94,0,0,1,.67,4.93c.38.6.85,1.17,1.23,1.78l-.47-.27c.68.11,1.36.22,2,.37l-.47.23a17.23,17.23,0,0,1,1.84-2,18.94,18.94,0,0,1-1.11,2.76c-.9,0-1.81,0-2.7-.06-.45-.58-.9-1.17-1.32-1.78a1.61,1.61,0,0,1-.37-1,22.39,22.39,0,0,1,.66-4.93Z"/><path class="cls-1" d="M220.61,214.88a5.06,5.06,0,0,1,.65,3.19l0-.19a8.83,8.83,0,0,1,.14.94c0,.33,0,.65,0,1a2.9,2.9,0,0,1-1.44-1.62,5.09,5.09,0,0,1,.64-3.36Z"/><path class="cls-1" d="M216.59,215.75a2.51,2.51,0,0,1,.6,2.34,2,2,0,0,0,.13.83,1,1,0,0,1-1.09-.35,2.26,2.26,0,0,1,.36-2.82Z"/><path class="cls-1" d="M281.73,213.91a3.61,3.61,0,0,1,.65,2.63,2.63,2.63,0,0,1-1.58,1.53,3.34,3.34,0,0,1,.1-1.21c0-.18.1-.34.13-.49a3.88,3.88,0,0,1,.7-2.46Z"/><path class="cls-1" d="M183.68,140.56c6.48,1,12.6,2.95,19.13,3.45-3.21.92-6.63.43-9.84-.2a37.29,37.29,0,0,1-9.29-3.25Z"/><path class="cls-1" d="M163.54,147.05c-.68,5.6-1.75,11.74.47,17.11l-.13.09a11.28,11.28,0,0,1-1.65-3.72,42.12,42.12,0,0,1-1.14-12.11h.31l.07,17.88C161,184.07,164,202.25,172,218.18a159.89,159.89,0,0,0,8.84,15.47c2,3.1,4.09,6.17,6,9.37.91,1.2,3.29,3.89,4.28,5.07s1.8,2.39,2.71,3.58a55.41,55.41,0,0,0,6.38,6.25c5.42,5,10.55,10.6,16.83,14.48a60.15,60.15,0,0,0,17.36,8.73c6.32,1.63,12.93,1.09,19.41.82,4.41.1,8.46-1.53,12.38-3.4a64.5,64.5,0,0,0,11.18-6.62l10.16-8.22,20.35-16.39L287.74,264l-10.09,8.3a66.65,66.65,0,0,1-17.3,9.27,22.2,22.2,0,0,1-6.51,1,114.22,114.22,0,0,1-13.09.23c-8.83-.42-16.94-4.81-24.12-9.7a47.93,47.93,0,0,1-7.17-5.38,118.23,118.23,0,0,1-12.76-12.56c-3-3.39-6.8-5.87-9.57-9.47a18.67,18.67,0,0,1-2.57-3.78c-1.53-2.5-3.21-5-4.78-7.54a141.52,141.52,0,0,1-12.31-23.92,117.65,117.65,0,0,1-6-26.2c-.92-5.93-.5-11.94-.54-17.89l.12-17.89h.31c0,1.35-.06,2.7,0,4,.2,3.94.44,8.26,2.61,11.66l-.13.09c-1.23-2.66-1.25-5.67-1.21-8.55a67.67,67.67,0,0,1,.89-8.63Z"/><path class="cls-2" d="M259.11,465.35c.85,1.47,12.65-42.36,28.08-55.72"/><path class="cls-2" d="M198.09,256.34s1.51,26,2.92,30.48c0,0,.39,11.62,2.89,14.5s5.5,6.41,5.4,8.51,20,23.9,20.65,26.19,14.37,18.43,15.06,22.11,10.53,20.3,10.15,41c0,0,3.1,64.73,4,66.2,0,0,5.82,35.21,11.53,56.25,5,18.32,4.58,39.64,4.58,39.64"/><path class="cls-2" d="M170.69,114.23c.64-3.37,2.69-13.83,4-16.11"/><polyline class="cls-2" points="168.37 114.6 170.34 104.92 168.89 114.51"/><line class="cls-2" x1="171.79" y1="88.44" x2="167.42" y2="114.76"/><path class="cls-2" d="M290.52,140.36a63.94,63.94,0,0,1-14-2.75"/><path class="cls-2" d="M296.63,126.7a31.31,31.31,0,0,1,17.94,7.63.32.32,0,0,1,0,.5c-5.44,4-12,5.48-18.13,5.68"/><path class="cls-2" d="M290.17,126.9c-5.31.74-11.26,3-17.66,7.69"/><path class="cls-4" d="M309.33,135.33a.78.78,0,0,0,0-1c-3.44-4.41-12.73-7.64-12.73-7.64a31.44,31.44,0,0,1,17.5,7.24.78.78,0,0,1-.06,1.23c-5.35,3.77-11.7,5.14-17.66,5.34C305.5,138.75,308.44,136.38,309.33,135.33Z"/><path class="cls-1" d="M273.27,129.89c12.84-11,31.62-11.2,43.84.86-13.67-10.27-29.66-10-43.84-.86Z"/><path class="cls-1" d="M315.36,139.54a37.12,37.12,0,0,1-9.29,3.24c-3.21.64-6.63,1.13-9.83.21,6.52-.5,12.64-2.45,19.12-3.45Z"/><path class="cls-1" d="M317.55,140.22a15,15,0,0,1-9.39,3.18,21.65,21.65,0,0,1,9.39-3.18Z"/><path class="cls-1" d="M294.9,239.66c7.64-8.81,16.48-18.93,16.89-31.14,1.77,11.94-8.09,24.11-16.89,31.14Z"/><path class="cls-1" d="M273.61,71.4l-3.34,30.22-.35,0,.66-27.92.69,0-2.56,27.93-.88,0-.05-15.36,1,.07-2.29,14.59-1.07-.09c.07-3.9,0-9.54.41-13.38a155.89,155.89,0,0,0,.35-19.81c-.56-1.44,1.05-1.32.3,0-1.08,5.41-1.68,10.92-2.36,16.4L262.84,84V75.23l1.27.09-2.36,16.14-1.3-.09,0-13.91,1.33.11-1.43,9.08L259,86.54V70.74l1.35.06-.94,11.54-1.33-.06V66l1.3,0-2,31.33-1.23,0,0-28.36,1.17,0L255,108.82l-.91,0,.13-34.9.66,0-1.74,29h-.32L253,76.15l.16,26.72h-.32l1.4-29,.66,0,.12,34.9-.91,0,2.07-39.84,1.17,0,0,28.36-1.23,0,1.91-31.34,1.29,0,0,16.3-1.33,0L259,70.69l1.36,0v15.8L259,86.43l1.45-9.07,1.33.1V91.37l-1.3-.1,2.39-16.13,1.26.09V84l-1.25-.08c.53-4.41,1.09-8.81,1.8-13.21a21.7,21.7,0,0,1,1.15-5,.7.7,0,0,1,1.06-.18,1.11,1.11,0,0,1,.32.65,56.82,56.82,0,0,1,.31,8c0,5.52-.28,11.1-.79,16.63-.1,2.26-.17,7.62-.23,10l-1.07-.08,2.39-14.57,1,.08-.05,15.36-.88,0,2.75-27.91.69,0-1,27.91-.36,0,3.69-30.18Z"/><path class="cls-1" d="M334.88,159.91c1.85,5.5,2.1,11.39,2.05,17.16a111.12,111.12,0,0,1-2.68,21.49c-.5,2.47-1.4,6-2.07,8.42a25.4,25.4,0,0,1-1.39,4.16L327.11,219c-1.28,2.58-2.51,5.19-3.82,7.75,1-2.69,2.14-5.35,3.2-8l3.32-8c1.59-4.58,2.51-9.83,3.56-14.56,2.11-11.9,4-24.29,1.51-36.27Z"/><path class="cls-1" d="M354.23,285.5c4.73,13.05,18.67,20.19,31.95,20.84,6.47.56,13.66-.49,20.12-1.2a86.09,86.09,0,0,1,13.53-.13c11,1,23.62,5,29,15.58l-.76.34c-5.37-8.46-15.38-12.91-25-14.51a71.3,71.3,0,0,0-16.7-.74c-6.51.56-13.69,1.58-20.2,1-13.31-.75-27.28-8-31.92-21.14Z"/><path class="cls-1" d="M324.94,236.5l-16.63,31.25-2.08,3.91A54.25,54.25,0,0,0,301.31,284a81.7,81.7,0,0,0-2.82,15.21c-.94,6.55-2,13.08-2.49,19.69-.55,8.73-1.1,17.68.9,26.25,1.86,7,4.21,14.64,1.91,21.84a21.6,21.6,0,0,1-1.93,4,21.56,21.56,0,0,0,1.73-4.05c1.65-5.69.18-11.74-1.31-17.3-3.46-9.87-3.26-20.54-2.55-30.83.41-5.91,1.14-11.79,2.11-17.63s3.05-11.43,4.45-17.17a54.44,54.44,0,0,1,4.92-12.29l2.08-3.91,16.63-31.25Z"/><path class="cls-1" d="M172.68,228.5a237.59,237.59,0,0,1,11.24,56.17,118.23,118.23,0,0,1,0,19.19c-1.78,19.29-10.28,36.81-14.7,55.4-1.39,6.17-2.07,12.61-.87,18.89-2.88-12.65,1.64-25.47,5.25-37.49,4.8-15.07,9.64-30.44,9.38-46.4-.3-22.24-4.41-44.36-10.32-65.76Z"/><path class="cls-1" d="M196.08,217.58c-3-4.33-3-10.84,1.15-14.49,3.78-3.48,7.85-6.52,11.87-9.68,2-1.57,4-3.08,5.93-4.77a5.41,5.41,0,0,0,1.56-1.94,4.91,4.91,0,0,1-1.3,2.19,56.69,56.69,0,0,1-5.5,5.35c-3.79,3.37-7.88,6.47-11.67,9.79-3.94,3.33-4.13,9-2,13.55Z"/><path class="cls-1" d="M328.24,303.13c-.61,21.77-4.35,61-21.24,76.14l-1.81,1.41c-6.7,4.6-11,11.84-13.3,19.56a65.2,65.2,0,0,0-2.6,17.48c0,5.87,0,12,1.85,17.61a9.68,9.68,0,0,1-.76-2.09c-3.54-15.95-2.45-36.44,8.95-49.13a51.5,51.5,0,0,1,6.82-5.84,32.67,32.67,0,0,0,5.64-6.63c11.39-18,14.84-47.36,16.45-68.51Z"/><path class="cls-1" d="M88.6,332.37C78.22,350.93,71.07,373,76,394.26c1.85,7.35,4.51,17.86,6.12,25.17A81.85,81.85,0,0,1,83.82,429a5.77,5.77,0,0,1-.41,3.16c.92-2,.22-4.3,0-6.37-1.15-6.37-2.77-12.65-4.32-18.94l-3.2-12.55c-3.07-12.68-1.63-26,2-38.44a108.76,108.76,0,0,1,5.6-15c0-.06.08-.11,0-.23-.24-.26-.06-.33,0-.46.44-.84,1.12-1.56,1.55-2.41,1.07-1.89,2.17-3.74,3.28-5.61l.36.23Z"/><path class="cls-1" d="M304.1,72.81c.3,8,.58,16.06.62,24.1,0,3.39.08,6.83-.78,10.17l-.13-2.14c-.46-7-.66-14.06-1.4-21a.39.39,0,0,0,.69.06l0,0s0,0,0,0c0,.23-.07.7-.09.94-.2,3.8-.27,11.34-.33,15.24l-1,0-1.62-20.74,1.17,0-.55,18.4-1.23.07c-2.05-12.79-4-25.68-7.4-38.2a22.15,22.15,0,0,0-1.93-5l1.24-.51c1.27,7.16,2.44,14.31,3,21.58A65.86,65.86,0,0,1,294,86.69l-.85,10.81-1.24,0-.31-19.69h1.17l-.6,22.66-1,0-1-13.21c-.4-4.81-.69-9.63-1.31-14.4a1.36,1.36,0,0,1-.06-.29s0-.07,0,0a.34.34,0,0,0,.52,0c-.34,6.64.16,17.8.23,24.55l-.24,0-.88-6.78c-.32-2.26-.62-4.53-1.1-6.76.52,2.23.86,4.49,1.22,6.74l1,6.77-.24,0c-.19-6.76-.86-17.81-.69-24.46a1.16,1.16,0,0,1,.12-.47.36.36,0,0,1,.58,0,7.23,7.23,0,0,1,.37,1.85c.9,7.64,1.73,18.65,2.38,26.41l-1,0,.39-22.67h1.17l.38,19.69-1.24,0,.82-10.85a64.33,64.33,0,0,0,.35-10.74,246.1,246.1,0,0,0-3.66-24.73l1.85,2.79c1.91,3.36,2.54,7.14,3.49,10.82,2.46,10.9,4.25,21.92,5.93,33l-1.22.08.61-18.4,1.17,0,1.43,20.75-1,0c.06-3.34.24-10.87.41-14.1,0-.4.09-1.39.12-1.78a1.8,1.8,0,0,1,.15-.67s.13-.19.28-.19a.44.44,0,0,1,.51.34c.73,7.07.83,14.12,1.18,21.2l-.55-.07c1-10.52.31-21.44.27-32Z"/><path class="cls-1" d="M145.55,375.47c5.18,9.19,15.47,27.82,20.56,37.06l-.87.16c3.83-26.39,8-52.75,14.28-78.69,1.26-4.47,5.1-21.95,9.55-22.86,9.2-1.56,15.5,6.55,21.58,12a246.58,246.58,0,0,1,20.88,21.52,278.19,278.19,0,0,0-21.38-21c-6-5.1-11.92-12.91-20.62-11.51-3.75.53-7.72,18.19-8.77,22.09-6.1,25.91-10.39,52.23-14.6,78.51l-.22,1.39c-5.29-9.95-15.19-28.74-20.39-38.74Z"/><path class="cls-1" d="M240.13,561.24c-.42-22.84-1-45.68-.61-68.53a23.52,23.52,0,0,0-1.2-7.28c-3.61-12.11-8.8-23.74-14-35.25a21.74,21.74,0,0,1-2.31-7.4c-.74-5.07-1.06-10.14-1.36-15.22s-.49-10.15-.64-15.22c-.48-14.67-.54-30.92-.49-45.68-.12-4.29.58-10.9-.77-15-.68-2.2-1.81-5-2.57-7.14-2.41-7.19-5.52-14.3-6.63-21.82.74,5,2.81,9.74,4.43,14.52,1.25,3.4,2.73,7.26,4.07,10.66a26.61,26.61,0,0,1,2.15,7.36c.26,2.45.11,8.88.19,11.45.26,20,.41,40.87,1.57,60.83.46,6.27.7,12.63,2.14,18.72,3.41,8.1,7.26,16.2,10.38,24.46a120.21,120.21,0,0,1,5.88,18.19l.29,1.93c0,.66.06,1.38,0,2-.63,20.84-.34,47.4-.54,68.45Z"/><path class="cls-1" d="M265.51,523.68c.17,8.75-9.31,14.9-15.75,7.41a12,12,0,0,1,0-14.81c6.44-7.5,15.93-1.34,15.76,7.4Zm0,0c.11-4.89-3.61-10.26-8.82-10.06-10.75.83-10.76,19.31,0,20.13,5.21.2,8.93-5.17,8.82-10.07Z"/><path class="cls-1" d="M261.48,523.87c0,3.31-1.66,7.47-5.48,7.79-8.19-.25-8.19-15.34,0-15.59,3.82.32,5.49,4.48,5.48,7.8Zm0,0c-.35-9.31-10.09-9.49-10.27,0,.18,9.5,9.93,9.31,10.27,0Z"/><path class="cls-1" d="M275.23,523.68c.73-9,3.93-17.73,7.11-26.17s7.18-16.67,11.28-24.75c4.12-7.92,14.8-28.47,18.75-36.15,2.09-4,4.15-8.05,6.14-12.12-7.07,16.68-15.48,32.75-23.66,48.9q-6.28,12-11.54,24.51c-3.39,8.34-6.78,16.83-8.08,25.78Z"/><circle class="cls-3" cx="201.08" cy="132.64" r="1.73"/><path class="cls-2" d="M284.82,133.61c0,3.1,2.37,5.73,5.7,6.77a47.4,47.4,0,0,0,5.89.15c3.58-.92,6.18-3.67,6.18-6.92s-2.49-5.89-6-6.88h0a30.52,30.52,0,0,0-6.42.2C287,128.05,284.82,130.62,284.82,133.61Z"/><circle class="cls-1" cx="293.57" cy="133.37" r="3.69"/><circle class="cls-3" cx="295.21" cy="132.01" r="0.31"/><circle class="cls-3" cx="296.24" cy="134.57" r="0.25"/><circle class="cls-3" cx="297.97" cy="131.64" r="1.73"/></svg>