<svg xmlns="http://www.w3.org/2000/svg" viewBox="0 0 518.16 538.06"><defs><style>.cls-1,.cls-4{fill:#1d1d1b;}.cls-2,.cls-3{fill:none;}.cls-2,.cls-3,.cls-4{stroke:#1d1d1b;stroke-width:1.42px;}.cls-2,.cls-4{stroke-miterlimit:10;}.cls-3{stroke-linejoin:round;}.cls-5{fill:#fff;}</style></defs><g id="Marcus"><path class="cls-1" d="M270.46,110.61a5,5,0,0,1,1.49-5,5,5,0,0,1-1.49,5Z"/><path class="cls-1" d="M269.25,113.86a8.29,8.29,0,0,1,1.2-6.7,8.32,8.32,0,0,1-1.2,6.7Z"/><path class="cls-1" d="M268.34,114.62a15.84,15.84,0,0,1,1.45-9.41,15.84,15.84,0,0,1-1.45,9.41Z"/><path class="cls-2" d="M270,114.75a1.08,1.08,0,0,1-.16-1.13l2.89-7-.16,1.73.63-1,.06.6s9.15-3.28,15.21-2.1c5.7,1.11,18.18,4.43,19.64,4.83a.66.66,0,0,1,.26.11c.87.54,6.05,3.8,6.5,4.74s3.35,7.44,3.7,8.23a.58.58,0,0,1,.06.17l.58,2.3s-13.41-7.71-20.18-8.81-23-2.28-25.45-1.4A3.22,3.22,0,0,1,270,114.75Z"/><path class="cls-1" d="M235.07,110.4a5,5,0,0,1,0-5.19,5,5,0,0,1,0,5.19Z"/><path class="cls-1" d="M235.26,113.88a8.36,8.36,0,0,1,.68-6.77,8.28,8.28,0,0,1-.68,6.77Z"/><path class="cls-2" d="M234.87,113.48a1.15,1.15,0,0,1-.39,1,47.32,47.32,0,0,0-18-4.81h0c-2.55-.64-4.9-1.17-6.61-1.45-5.89-1-18.91,2.29-18.91,2.29l1.05-2,.09-.14c.49-.66,4.5-6,5.12-6.74s5.71-2.31,6.57-2.56a.51.51,0,0,1,.24,0c1.3.07,12.45.68,17.45,1.35,5.31.71,11,5.07,11,5.07l1.22,1,.27,1.17.3-1.7Z"/><path class="cls-1" d="M187,113.36c-2.39,12.7-5.2,26.55-7,39.26a80.6,80.6,0,0,0-.76,8.2c0,1.64.25,3.26.36,4.91.76,10.5-.09,21,1.16,31.42,1,2.58,1.87,5.25,2.67,7.89,1.23,4.27,2.45,8.53,3.56,12.83-1.42-4.2-2.77-8.43-4.22-12.61-.87-2.47-1.63-5-2.73-7.33a6.25,6.25,0,0,1-.39-1.33c-1.28-10.21-.68-20.59-1.47-30.77-.09-1.67-.32-3.35-.31-5a82.84,82.84,0,0,1,.85-8.35c2-13.18,5-26.17,8.27-39.08Z"/><path class="cls-1" d="M216.64,183.62l1.8.15c1.09.51,2.26,1,3.43.41a20.67,20.67,0,0,1,3.55-.87c.78-.06,2,0,2.56-.5a13.17,13.17,0,0,1,2.36-2l.1.21.91,2-.22-.12,3.39-.57a3.62,3.62,0,0,1,2.55,0c.15.09.24.26.37.37.33.33,1,.18,1.43.48a7.9,7.9,0,0,0,2.8-1h.09l2.33.16a1.46,1.46,0,0,0,.8-.38c.33-.36.58-.89,1.2-.75a4.77,4.77,0,0,1,2.19,1.39l-.16-.1,2.34.7h-.25a17.08,17.08,0,0,1,2.34-.6c.25-.07.88-.09,1.07.26.56.81.56,2.31,1.36,2.78a1.86,1.86,0,0,0,.68-.24c1.31-.42,2.73,0,4,.32a7.76,7.76,0,0,1,3.22,2.37l-.42-.17,2.15-.19.31,0a3.23,3.23,0,0,0,1.22,1.24,1.69,1.69,0,0,0,1.33.09,3,3,0,0,1,3.43,1.65l-.69-.28a10.76,10.76,0,0,1,2.25-.58,1.19,1.19,0,0,1,.91.41,6.09,6.09,0,0,1,1,1.54l-.1-.15a9.83,9.83,0,0,0,2.58,2.14.56.56,0,0,0-.61.5c-.21-1.41,1-3.8,2.56-2.22,1.3,1.59,1.64,3.26,2.84,4.87a2.62,2.62,0,0,1,.77,1.82l-.07.38v.05s0,.07,0-.11,0-.11-.19-.29a.63.63,0,0,0-.8,0c.35-.65.79-1.62,1.1-2.39l.07-.18,0-.09a.82.82,0,0,1,1-.54,1.11,1.11,0,0,1,.41.3,12.9,12.9,0,0,1,1.55,3.33c.3.56.94,1.58,1.2,2.17a.66.66,0,0,1-1.1.66,1.33,1.33,0,0,1-.15-1.41,6.84,6.84,0,0,1,1.15-1.71l-.13.21.71-2,0,.16c.13-1.65.37-4.6.5-6.22.13-.66-.53-.94-.92-1.32-.83-.87-1.34-1.64-2.19-2.42a10.77,10.77,0,0,1-1.16-2.68l.53.48c-1.54-.43-3.57-.63-4.63-2-.31-.27-.85-.17-1.32-.4a1.2,1.2,0,0,1-.67-.72,5.67,5.67,0,0,0-2.46-1l-3.31-.76-.34-.07L271,180l-.71-1.62.58.41-3.56-.23c-.4,0-1.92-.11-2.28-.15a3.14,3.14,0,0,1-2.23-2.11l0-.13c0,.13.15.15-.06.05-.94-.35-4.09-.66-5.14-.87h-.07l-3-.8.51-.08-3.23,2-.18.11-.2,0-3-.18.31-.06-3,1.43-.2.09-.2-.05-5-1.08-.07,0-.06,0-3-1.44.11,0-3-.8.16,0-6.82,0H227c-.13-.5-.5-2.2-.62-2.68l.53.42-2,0,.19,0-3.26,1.24-3.43,1,.17-.09-2.88,2.38-.25.21-.27-.16-2.5-1.45.61-.19-1.09,2.15-.07.14-.15.06L208,179l.13-.1L204,183.15l.1-.25-.05,4.48v-.07l1.45,6.36H205l1-4.18,0-.09.08,0,2.16-.88-.06,0c.61-.7,1.91-1.92,2.09-.24,0,0,0,0,0,0s0,0,0,0a15,15,0,0,0,1.07-2.76l2.36-1.4,2.88-.5Zm0,0-2.85.58-2.3,1.46a9.54,9.54,0,0,1-1,2.8.34.34,0,0,1-.16.08.23.23,0,0,1-.19-.1c-.11-.19-.07-.4-.15-.56s-.22-.2-.44-.09a4.89,4.89,0,0,0-1.1,1l-2.15.92.11-.12-.94,4.2-.21.94-.24-.94-1.59-6.32a.22.22,0,0,1,0-.08l-.05-4.48v-.13l.1-.11,4.09-4.33.06-.06.08,0,3.93-1.64-.22.2,1.06-2.16.21-.41.4.23,2.52,1.41-.52,0,2.85-2.42.08-.07.1,0,3.4-1h-.05l3.22-1.27.09,0h2.5l.11.43.55,2.25-.55-.43,6.82-.05.15,0,3,.79h.05l0,0,3.05,1.42c-.71-.19,5.05,1.07,4.89,1l-.4,0,3-1.44.14-.07h.16l3,.17-.38.1,3.22-2.05.24-.15.27.07,3.05.78h-.07a45.78,45.78,0,0,1,5.48.94,1.41,1.41,0,0,1,.79.74c.22.5.59,1.2,1.14,1.33l5.81.36.41,0,.17.38.72,1.62-.48-.4,3.33.75c1.19.3,3,.62,3.48,1.89,0,0-.13-.14-.1-.12a3,3,0,0,1,1.81.77l.18.25,0,0a12,12,0,0,0,4,1.35l.12.39a10.93,10.93,0,0,0,.94,2.28,17.31,17.31,0,0,1,1.77,2c.59.65,1.38,1,1.56,2a5.76,5.76,0,0,1-.05,1.5c-.09,1.21-.36,4.27-.47,5.52,0,.11-.76,2.07-.79,2.16a6.41,6.41,0,0,0-1,1.44c-.08.12,0,.25-.09,0a.65.65,0,0,0-1.13.22.53.53,0,0,0,0,.43l0-.1c-.23-.45-.79-1.4-1-1.86a22.54,22.54,0,0,0-1.22-2.9,1.55,1.55,0,0,0-.15-.22s0,0,.11.05a.32.32,0,0,0,.19,0c.15,0,.39-.17.42-.24l-.28.67a13.79,13.79,0,0,1-1.2,2.4c-.13.1-.05.09-.29.19a.66.66,0,0,1-.84-.43,2,2,0,0,1,.05-.86c0-.08,0-.13-.11-.32a22,22,0,0,1-2.05-3.44,5.29,5.29,0,0,0-1.26-2s.07,0,.09,0,0,0,0,0a2.11,2.11,0,0,0-.34.81c-.12.39.11.77-.16,1.14a.68.68,0,0,1-.63.24,8.72,8.72,0,0,1-3.38-2.61,4.43,4.43,0,0,0-.85-1.38h0c.05,0,.08,0,0,0a14.47,14.47,0,0,0-2.4.64,3.16,3.16,0,0,0-1.14-1.42c-.8-.38-1.42,0-2.3,0a3.41,3.41,0,0,1-2.46-1.68l.49.25-2.4.19a7.57,7.57,0,0,0-2.91-2.31,7.76,7.76,0,0,0-3.4-.4c-2.17,1.21-2.49-1.51-3.07-2.87,0,0,0,0,.06,0a13.77,13.77,0,0,0-2.66.61l-.12,0-2.33-.73-.09,0-.07-.07A4.7,4.7,0,0,0,246,182c-.13,0-.13,0-.17,0a2.19,2.19,0,0,1-1.78,1.06l-2.33-.2.17,0a9.35,9.35,0,0,1-2.84,1c-.34.05-.61-.24-1-.27a1.59,1.59,0,0,1-1-.42c-.12-.1-.19-.24-.3-.32a3.36,3.36,0,0,0-2.15,0l-3.41.5-.16,0-.07-.15-.87-2,.28.08a12.26,12.26,0,0,0-2.12,1.72,1.29,1.29,0,0,1-.7.38,27.85,27.85,0,0,0-5.64,1c-1.17.57-2.43,0-3.48-.5l-1.79-.21Z"/><path class="cls-1" d="M232.73,242.9a20,20,0,0,1,3.31-4.66,2.45,2.45,0,0,1,2-.9,7.8,7.8,0,0,1,3,3l-.23-.23a27.93,27.93,0,0,0,4.21,2.23.72.72,0,0,0,.88-.24c.88-.86,2.33-2.28,3.53-.76a30.35,30.35,0,0,0,2.54,2l-.39,0q2.39-.79,4.83-1.46c-1.48.81-3,1.55-4.51,2.26l-.18.08a23.3,23.3,0,0,1-3.07-2,3.29,3.29,0,0,0-.42-.34.9.9,0,0,0-.28.14c-.62.41-1.24,1.44-2.11,1.67-2.12.25-4-1.53-5.74-2.46l-.14-.1a8.89,8.89,0,0,0-2.23-2.75c-.26-.09-.72.27-1.09.53a34.91,34.91,0,0,0-3.93,4Z"/><path class="cls-1" d="M215.7,225c-.41,1.53-1.15,3.23-1.11,4.78.48,1.42.74,3.41,1.31,4.58a.27.27,0,0,0-.19-.05h0a6.16,6.16,0,0,1,2.47.36,2.63,2.63,0,0,1,1.3,1.1,3,3,0,0,1,.3,1.58c0,1.28,1.2,2.7,2.35,3.7l-.57-.13c1.95-.42,3.89-.82,5.85-1.17l.19,0c1.73,1,3.44,2.1,5.11,3.24-1.83-.73-3.63-1.53-5.41-2.36l.32,0c-2,.6-4,1.14-6.06,1.67-1.7-1.34-3.36-3.14-3.19-5.5-.18-1.11-1.73-1.17-2.66-1.22a1,1,0,0,1-.74-.38,6.59,6.59,0,0,1-.81-2.73c-.15-.86-.21-1.67-.4-2.53.07-1.87,1.11-3.34,1.92-4.94Z"/><path class="cls-1" d="M290.13,235.24c0,.13.15.15.25.17a10.39,10.39,0,0,0,2.28-.53c.07.25.13.51.2.75s.42.19.65.13c.49-.15,1-.36,1.48-.48s1.2.05,1.23-.54a3.27,3.27,0,0,0-.48-1.55h.13l5.56.31-.09,0s5.26-4.81,5.13-4.68l3-4.15,0,0,0,0,2.31-1.45-.1.13.52-1.62,0-.1.1-.05,1.79-.91-.16.24.16-3v-.2l.19-.07,3.39-1.3,1-.38c-.33.47-2,3-2.36,3.59l0-.07-2.12,5.74,0,.08-.06.06-2.14,2.17.12-.29v3.22l-.12.12-1.61,1.62c.21-.28-5,6.56-4.73,6.19l-1.42,2.7-.05.1-.09.06-2,1.45.06,0-1.6,1.62.08-.12-1.06,2,0,.07a4.59,4.59,0,0,1-2,1.25s-.12,0-.07,0l0,0c.05-.05,0,0,0,.14a5.69,5.69,0,0,0,.54,1.92l-.42.24-1.61.9.22-.22-.88,1.7,0-.05-1.59,4-.13.32-.34,0-2.87.38.53-.6v4c-1.72,1.71-3.13,3.78-5.21,5.16l0,0a.23.23,0,0,0,.14-.07,15.93,15.93,0,0,0-.66,3.56l-.42.12-2.56.68-.08,0,.07,0h0a8.55,8.55,0,0,0-.87,2.44l-2.86-.22.55-.24-2,2.51-.18.23-.29,0-3.22.18h.11l-3.05.72.14-.05a4.58,4.58,0,0,1-1.65.49c-1.25.05-1.4-1.14-1-1.95l.14-.34v-.06h0l1.22.49c-.29.78-.78,1.93-1.08,2.71h-3.49l.4-.14c-1.62,1.2-2.86.42-2.69-1.56h1.34v1c0,.65,0,2,0,2.64l-1.08-.81-2.15-1.61,1-.15c-1.37,1.74-2.66,3.69-4.87,4.46l-.22-.08-4.12-1.42-.15-.06-.11-.11-.55-.54a.37.37,0,0,0,.3,0c.06,0,0,0-.08.08-.28.31-.58.87-1.08,1.09a7.46,7.46,0,0,1-4.25-.16,2.08,2.08,0,0,1-.66-.23.77.77,0,0,1-.28-.69.72.72,0,0,1,.43-.56c.05,0,.11-.06,0,0a.54.54,0,0,0-.19.48c0,.1,0,.1,0,.08s0,0,0,0c-.43-.14-1.05.2-1.59.28a4.49,4.49,0,0,1-.9,0,16.51,16.51,0,0,0-2.72.07l-.22-.17-1.61-1.28.43.15H234.7a23.34,23.34,0,0,1-1.24-2.38l0-.11s-.06-.12,0,0a.44.44,0,0,0,.2.18,14.33,14.33,0,0,0-4.21,1.87,3,3,0,0,1-1.12.35,5.57,5.57,0,0,1-3.07-.2.73.73,0,0,1-.24-.19,11.22,11.22,0,0,0-1.48-2.05l.51.23c-.61,0-2.57,0-3.18,0-1.42,0-1.68-2.05-2-2.92A5,5,0,0,0,217.4,271l.32.08H214c-1.66.09-1.65-1.49-.95-2.6l0,.09a2,2,0,0,0,.11-.73.94.94,0,0,0-.08-.34l0,0h0a1.82,1.82,0,0,0-.69,0,6.7,6.7,0,0,0-1,.27h-5.76v-.63c0-.75,0-4.36,0-5,0,0,0,0,0,.07-1.11-.1-3,.51-4.43.54-2.11-.13-1.13-2.43-.64-3.56a.67.67,0,0,0,0-.12s0,.14,0,.1a4.9,4.9,0,0,0-1.41-1.05,21.58,21.58,0,0,1-3-4.62c-.07-.3-1.84-.77-2.34-.9l-.2-.06a.93.93,0,0,1-.2-.1.72.72,0,0,1-.3-.56v0a.2.2,0,0,0,0,.1h0l0,0c-.23-.53-.54-1-.82-1.55l-.17-.31a7.91,7.91,0,0,0,1-1.9.61.61,0,0,0,0,.13.35.35,0,0,0,.27.24c-.8.06-1.76.75-2.24-.19a19.89,19.89,0,0,1-1.08-4.48,10.26,10.26,0,0,0-.51-3.13c0-.06,0,0,0,0s.07.06.12.05h-.06a.7.7,0,0,1-.19-.06,1.12,1.12,0,0,1-.56-.64,13.4,13.4,0,0,1-.6-3.72l.12-.15,1.84-2.32.11.69L186.72,232l-.2-.13v-.24l0-7.71v-.64l4.55,2,.2.09s0,0,0,0a5.13,5.13,0,0,0,1.56-1.14l.06-.07.07,0c3.28-.89,6.67-.58,10-.5l-.33.29.14-1.78c.19-1.83-.32-3.62.06-5.47a1.19,1.19,0,0,1,.74-.79c.29-.12.44-.21.53-.44.33-1.74-.45-3.67.13-5.49h.15l2.88,0h.16v.15l.5,6.44c.48,1.74.83,3.79,1.16,5.62,1,.94,2.51,1.06,3.8,1.34a7.72,7.72,0,0,1,2.35.77c.22.13.5.37.39.65.1-.28-.18-.51-.4-.64a7.72,7.72,0,0,0-2.35-.72c-1.32-.28-2.88-.35-3.9-1.33-.4-1.89-.73-3.8-1.28-5.67l-.61-6.43.17.16-2.88,0,.19-.13c-.47,1.78.36,3.58,0,5.41-.19.71-1.09.59-1.22,1.19-.3,1.68.2,3.59,0,5.35l-.11,1.82,0,.3H203a43.58,43.58,0,0,0-9.57.49c-.68.55-1.57,1.72-2.57,1.27l-4.05-1.7.59-.38,0,7.71-.19-.38,3.68,2.49.42.29c-.47.57-1.7,2.19-2.14,2.74l.11-.33a12.6,12.6,0,0,0,.53,3.18c0,.11.15.19,0,.11a.14.14,0,0,0-.11,0,.92.92,0,0,1,.73.48,10.27,10.27,0,0,1,.69,3.59,22.43,22.43,0,0,0,1,4s.11.09-.1,0l-.13,0a5.55,5.55,0,0,0,.58-.15c.61-.21,1.68-.38,1.76.57a5.85,5.85,0,0,1-1,2.25l0-.61c.3.55.64,1.11.9,1.68l0,.12a.67.67,0,0,1,0,.25v.05s0,0,0,0a.54.54,0,0,0-.24-.46c1,.31,2.48.43,3.17,1.49a19.94,19.94,0,0,0,2.86,4.33l-.18-.15a8.73,8.73,0,0,1,.91.58c.31.27,1.15.84,1,1.53s-.74,1.67-.68,2.3l0,0h.11a15.55,15.55,0,0,0,2.14-.31c1-.14,3.26-.81,3.5.84,0,.81,0,4.26,0,5.11l-.64-.64h5l-.22,0c.93-.26,2.37-.8,3.1.27a3.07,3.07,0,0,1-.22,2.82c-.07.16,0,.37-.07.19s-.22-.08.13-.1h3.92l.14.09c.72.47,2,1.15,2.16,2.21a4.57,4.57,0,0,0,.62,1.63s0,0,0,0,0,0,0,0h3.5a11,11,0,0,1,1.75,2.4s0,0,0,0a.61.61,0,0,0-.07-.1l-.06-.06a6.08,6.08,0,0,0,2.71-.13,15.58,15.58,0,0,1,4.7-2.1,1.63,1.63,0,0,1,.76.06,1.07,1.07,0,0,1,.53.45c.15.34.15.36.29.64.24.51.51,1,.79,1.51l-.6-.35h4.37l.19.15,1.61,1.27-.5-.15a16.06,16.06,0,0,1,3.1,0c.3.06.6-.15,1-.22a2.08,2.08,0,0,1,1.84.3,1.05,1.05,0,0,1,.13,1.63,1,1,0,0,1-.25.14h0a.66.66,0,0,0,.37-.5.73.73,0,0,0-.27-.67s-.19-.09-.11-.07a7.44,7.44,0,0,0,3.57.34c.06,0,0,0,.12-.09l.54-.66a1.17,1.17,0,0,1,1.67-.27c.32.29.4.38.67.65l-.26-.16,4.12,1.44h-.43c1.85-.85,3.15-2.82,4.36-4.42l2.7,2-1.08.53c0-.64,0-1.67,0-2.29h1.34v0a4.05,4.05,0,0,0,0,.73c0,.12,0,.05-.06,0s0,0,.16-.05a3.34,3.34,0,0,0,.6-.37h3.26l-.61.42c.21-.46.62-1.59.81-2l.07-.17,0-.09h0c2.43,1,.68.26,1.22.48h0v0l0,.05a4.78,4.78,0,0,0-.25.71.38.38,0,0,0-.15-.2c-.07,0,0,0,0,0a4.78,4.78,0,0,0,1.25-.41l3.05-.71h.11l3.23-.17-.47.24,2-2.5.21-.27c.85.08,1.94.15,2.67.21l-.66.48c.33-.95.5-2.39,1.57-2.8l2.65-.7-.47.54c.24-1.32.18-2.76,1-3.91,1.91-1.32,3.25-3.19,4.9-4.86l-.16.41c0-.32,0-4.11,0-4.3l.52-.06,2.87-.34-.47.36,1.64-4v-.05l.91-1.7.07-.15.15-.07,1.61-.89-.23.68c-.29-.91-1-2.4.23-3a3.65,3.65,0,0,0,1.69-1l-.09.12,1.09-2,0-.07.06-.05,1.62-1.6,0,0,0,0,2-1.43-.14.17,1.45-2.68,0,0,4.89-6.28,0,0,0,0,1.62-1.61-.13.3,0-3V227l.12-.12,2.16-2.14-.09.14,2.18-5.73v0l0,0,1.81-2.68.4.51-3.41,1.24.2-.27-.21,3v.17l-.15.07-1.8.88.14-.16-.55,1.61,0,.09-.08,0L309.79,225l.06-.06-3.09,4.12-5.26,4.62,0,0h0l-5.55-.4.07-.12c.3.55.86,2-.15,2.06s-1.74.51-2.65.59a.32.32,0,0,1-.32-.23c-.08-.26-.13-.51-.19-.76l0,0a7.77,7.77,0,0,1-2.27.5c-.1,0-.25,0-.25-.17Z"/><path class="cls-1" d="M256.43,241.87c1.19-.1,3.2-.36,4-.36a20,20,0,0,1,2.33-1.25c1.39-.49,1-1.13.43-2.09l.8.06,3.23.27-.26,0c2.34-1.5,4-6.07,5.09-7.52l.34-2.34.09-.58,3.83,0-.35.09,1.62-.89-.36.69a26.16,26.16,0,0,1-.19-3.77c.05-1.09,1.58-1.3,2.29-1.51a5.76,5.76,0,0,1,1.22-.35c1.21,0,1.5,1.4,1.57,2.32a.61.61,0,0,0-1.22.05.86.86,0,0,1,.2-.55c.36-.41,1.07-.3,1.43-.24a13.27,13.27,0,0,1,1.8.5l.06.31.62,3.43-.6-.34,2.29-.76c1,1.55,2,3.14,2.89,4.73a31.63,31.63,0,0,1,.53,3.45c-.12-.86-.74-2.68-.87-3.3-1-1.39-2.06-2.77-3.05-4.18l.47.15-2.43,1c-.07-.22-.85-3.58-.94-3.91l.38.42a7.06,7.06,0,0,0-1.83-.3.43.43,0,0,0,.28-.35v0a.63.63,0,0,1-.73.59c-.45-.14-.47-.35-.52-.71a2.11,2.11,0,0,0-.34-1s.12,0-.07.06c-.63.3-1.63.5-2.11.75,0,0,.06-.11,0,0a30.62,30.62,0,0,0,.28,3.91l-.41.23-1.77,1h-.18l-3.23,0,.69-.58-.37,2.32,0,.13-.06.1c-1.75,2.85-3,6.34-6.06,8.08l-.15,0-3.22-.45.41-.62c1.12,2.46-2.26,2.52-3.66,3.44-1.39.08-2.82,0-4.23,0Z"/><path class="cls-1" d="M213.06,191.15a76,76,0,0,1,20.27-.42A28,28,0,0,1,240,192.4a8.77,8.77,0,0,0,4.58.81,53,53,0,0,1,15.09-.33,29.75,29.75,0,0,1,6.22,1.46c1.11.44,2.35,1,3.47,1.38a25.85,25.85,0,0,0,11.2,1.16,30.67,30.67,0,0,1-6.87,5.69c-5.19,3.37-11.75,3-17.68,3.49a19.55,19.55,0,0,0-3.57.5c4.64-1.28,9.55-1.18,14.25-2.16s8.66-3.89,11.88-7.21l.52,1a27.69,27.69,0,0,1-13.66-2.59,43.88,43.88,0,0,0-15.8-1.71c-2.55.07-5,.91-7.6.41a8.5,8.5,0,0,1-2.51-.84,27,27,0,0,0-6.34-1.79,90.24,90.24,0,0,0-20.12-.54Z"/><path class="cls-1" d="M220.58,186.62a87.11,87.11,0,0,1,10-2c4.42-.53,9.27-1.45,13.42.75,1.28.61,2.68,0,4.06,0,2.68-.25,5.05,1.09,7.48,1.93a46.71,46.71,0,0,0,4.87,1.36,33.44,33.44,0,0,1-5.06-.69c-2.42-.55-4.71-1.69-7.23-1.35-1.53.09-3.17.78-4.68,0-3.89-2-8.51-1.13-12.73-.92l-10.1.92Z"/><path class="cls-1" d="M214.21,197.27c2.44,5.35,5.82,10.39,10.7,13.72,3.68,2.46,8.09,3.43,12.3,4.64a37.75,37.75,0,0,0,4.37,1,39,39,0,0,1-15.45-3.23c-6.16-3.18-10.3-9.49-11.92-16.08Z"/><path class="cls-1" d="M215.7,193.91c2.83,2.93,5.65,6.13,9.22,8.13,3.7,1.61,8.12,2.57,11.8,3.69,1.9.35,3.79.73,5.68,1.19-1.94,0-3.87-.13-5.8-.27-4.19-.78-8.35-1.56-12.29-3.39-3.73-2.21-6.4-5.72-8.61-9.35Z"/><path class="cls-1" d="M234,192a70.75,70.75,0,0,1,.63,7.69v-.13a3,3,0,0,0,.82,1.35c1.43.8,3.8.56,5.48.81l-.3.07a1.49,1.49,0,0,0,.82-.95c.2-1.83.28-3.76.54-5.61a36.79,36.79,0,0,1,.46,3.78c0,1,.34,2.25-.35,3.12a3.14,3.14,0,0,1-1,.85,34.49,34.49,0,0,1-4.3-.21,3.49,3.49,0,0,1-3.41-3.08A68.34,68.34,0,0,1,234,192Z"/><path class="cls-1" d="M242.69,193.79a64.5,64.5,0,0,1,.57,8.06c.05-.15,0-.06,0-.06s0,.06,0,.1a1.61,1.61,0,0,0,.27.34s0,0,0,0,0,0,.08,0a1.82,1.82,0,0,0,.4.07,57.07,57.07,0,0,0,5.92.12,1.32,1.32,0,0,0,.87-1.34c.11-2.56.28-5.35.62-7.89.35,2.53.5,5.36.6,7.92a2.52,2.52,0,0,1-1.88,2.66c-1.41.07-2.8.11-4.22,0a7.58,7.58,0,0,1-3.11-.52,1.29,1.29,0,0,1-.32-.29,1.73,1.73,0,0,1-.43-1.55,75.34,75.34,0,0,1,.57-7.64Z"/><path class="cls-1" d="M227.89,192c.18,1.36.09,2.73.29,4a16.71,16.71,0,0,0,1.14,2.81,1,1,0,0,0,.07.09,1.18,1.18,0,0,0-.17-.07h0l2.74.48c.09,0,.31,0,.25.06a1.44,1.44,0,0,0,.31-.12c.5-.22,1-.48,1.54-.68a11.46,11.46,0,0,1-1.15,1.26c-.48.52-1.23.42-1.84.45a16.16,16.16,0,0,1-2.09-.09,1.21,1.21,0,0,1-.78-.6,9,9,0,0,1-1.2-3.36,10.26,10.26,0,0,1,.93-4.23Z"/><path class="cls-1" d="M223.07,190.57c.43,1.75.33,3.58.74,5.27.32.52.8,1.71,1.14,2.2.05.07.08.09.06.09s-.15,0,0,0c.8-.28,1.74-.94,2.58-1.33a6.53,6.53,0,0,1-2.17,2.36c-1.38.58-2.1-1.45-2.62-2.34a2.85,2.85,0,0,1-.36-.86,12,12,0,0,1,.68-5.41Z"/><path class="cls-1" d="M221.05,190.56a6.83,6.83,0,0,1,.67,3.92l0-.16s.21,1.18.11,1.13c0,.18.4.2.61.24a.88.88,0,0,1-1,.38,2.81,2.81,0,0,1-1-1.43,6.85,6.85,0,0,1,.64-4.08Z"/><path class="cls-1" d="M219.1,190.68a3.59,3.59,0,0,1,.68,2.85c0,.24-.1.51,0,.74-.64.19-1.15-.57-1.37-1.08a3,3,0,0,1,.66-2.51Z"/><path class="cls-1" d="M251.76,200.22c.46.39,1,1.06,1.52,1.13l.69,0c.94,0,1.9-.05,2.85,0l-.45.15c.9-.75,1.82-1.47,2.79-2.14l-.25.51c.16-1.85.54-7.54,1.08-2.41.12.9.19,1.79.23,2.69-1,.86-2,1.67-3,2.43l-.23.16h-.23a21.24,21.24,0,0,1-3.62-.54c-.87-.31-1.09-1.18-1.38-1.91Z"/><path class="cls-1" d="M259.18,200.85a9.1,9.1,0,0,1,.61.78l-.26-.15a22.47,22.47,0,0,1,3.46-.87l-.56.48a23.85,23.85,0,0,1,2-5.23c.55-1.34.64-1.35.62.12a25.93,25.93,0,0,1-1.44,6l-.42,0a22,22,0,0,1-3.81,0c-.07-.37-.13-.74-.17-1.11Z"/><path class="cls-1" d="M263.92,199.38a8.39,8.39,0,0,1,.88,1.2l-.37-.27a11.39,11.39,0,0,0,3-.76c.81-1.19,2.16-5.33,1.73-1.21a5.39,5.39,0,0,1-.61,2c-1.12,1.23-2.76,1-4.2.76l-.33-.08a8.37,8.37,0,0,1-.14-1.67Z"/><path class="cls-1" d="M269.17,198.49c.39.19.83.31.85.18s.55-.32.63-.39a8.15,8.15,0,0,1,.83-.39,3.16,3.16,0,0,1,.56-.73,2.67,2.67,0,0,1,.36.91c0,1.72-3.51,2.66-3.23.42Z"/><path class="cls-1" d="M225.24,216.58c-.69,1.92-1.39,3.83-2.12,5.74L220.88,226l-.06-.46c1.16,1.11,2.45,2.33,2.61,4,0,.51-.18.83.09,1.23a2.11,2.11,0,0,0,1.34.84c.11.05.28,0,.08.06a1.74,1.74,0,0,1,.72-.23,17.2,17.2,0,0,1,5.36-.18.8.8,0,0,1,.55.58c.12.39-.36.82-.51.87l-1.32.78.32-.48-.35,3-.81-.74,5-1.12.11,0,4-.29h.11l3.54.29h.1l.09,0,3,1.11-.12,0a8,8,0,0,1,1.47.43c1.26.52,1.9,1.61,3.49,1.81h-.22l6.09-1,.16,0,.12.05,3.5,1.17-.46.08c1.89-1.26,3.77-4.37,4.69-5.67.12-3.4.19-6.81.36-10.21.12,3.45.33,7,.31,10.38a20.18,20.18,0,0,1-4.94,6.47l-.26-.08-3.55-1,.28,0-6.07,1.17-.11,0a5.63,5.63,0,0,1-3-1.28,4.57,4.57,0,0,0-2.12-.91l-.12,0-3-1.1.18,0-3.54-.27c.52,0-4,.27-3.92.27l.11,0-5.91,1.29.53-4,0-.32,1.16-.65.45-.25c.05,0,.07-.09,0,.09a.54.54,0,0,0,.2.71,20.45,20.45,0,0,0-5,.11s-.2.07,0,0-.27.15-.32.13a1.45,1.45,0,0,1-.59,0,2.52,2.52,0,0,1-2.12-3.09c-.11-1.34-1.21-2.5-2.19-3.52l-.22-.23.16-.23,2.47-3.52c.73-1.64,1.66-3.72,2.49-5.49Z"/><path class="cls-2" d="M251.49,222.76s.67,4.88,0,5.88"/><path class="cls-2" d="M249.67,225.7a19.21,19.21,0,0,1-1.58,5.38"/><path class="cls-2" d="M259.18,221.18c.11,3-.4,6,0,7.21"/><path class="cls-2" d="M230.78,218.34s-.14,3.16-.81,3.82"/><path class="cls-2" d="M232.3,222.76a6.17,6.17,0,0,1-1,3.72"/><path class="cls-1" d="M239.65,247.93a22.56,22.56,0,0,1,.08,7c-.38,2.26-.8,4.79-2.46,6.52,1.08-4.4,1-9.13,2.38-13.48Z"/><path class="cls-1" d="M234,256.49a6.49,6.49,0,0,1-1.71,5.71,6.47,6.47,0,0,1,1.71-5.71Z"/><path class="cls-1" d="M242.68,252.69a4.22,4.22,0,0,1,.19,4.23,8.52,8.52,0,0,1-.62,1.32,4,4,0,0,1-.38-2.9,12,12,0,0,1,.81-2.65Z"/><path class="cls-1" d="M217.77,245.56a7.32,7.32,0,0,1-.57,5.19,2.47,2.47,0,0,1-1.5,1.15,8.51,8.51,0,0,0,.48-1.59c.33-1.59.43-3.47,1.59-4.75Z"/><path class="cls-1" d="M217.77,253.48a4.22,4.22,0,0,1-.82,3.18,4.08,4.08,0,0,1-2.31,1.81c-.16,0-.45,0-.43-.23.22.11.33-.29.44-.44a16.46,16.46,0,0,1,3.12-4.32Z"/><path class="cls-1" d="M212.22,239.21c.7,1.52,1,3.76-.63,4.76-.2-1.64-.61-3.44.63-4.76Z"/><path class="cls-1" d="M275.48,183.94a12,12,0,0,1-.21,3.64s0,.1,0,.12a2.16,2.16,0,0,1-.24,1.84,8.36,8.36,0,0,0-.88-1.39l-.07-.15a3.88,3.88,0,0,1,1.38-4.06Z"/><path class="cls-1" d="M272,181.76a2.5,2.5,0,0,1,.6,3.6,2.93,2.93,0,0,1-.6-3.6Z"/><path class="cls-1" d="M278,186.74c.47.35.35,1,.5,1.4a2,2,0,0,1,0,2.42,3.89,3.89,0,0,1-.7-.84,3.21,3.21,0,0,1-.68-1.44c0-.78.43-.92.84-1.54Z"/><path class="cls-1" d="M222.42,176a2.57,2.57,0,0,0,0,1.6,3.11,3.11,0,0,1-1.36,3,8.91,8.91,0,0,1,0-3c.06-.69.49-1.71,1.35-1.62Z"/><path class="cls-1" d="M224.28,178.27a5.46,5.46,0,0,1,.73,1.56,1.37,1.37,0,0,1-1.5,1.49,5.35,5.35,0,0,1,.08-.93.82.82,0,0,0,0-.37,1.55,1.55,0,0,1,.68-1.75Z"/><path class="cls-1" d="M348.27,144.55a124.45,124.45,0,0,0-2.65,18.09c-.92,5.44-3.82,10.31-5.21,15.56-.2,5.83-.79,16.91-9.14,15.55a12.59,12.59,0,0,1-3.46-1.27,15.1,15.1,0,0,0,3.51.9c3.93.59,6.32-2.83,6.95-6.3.87-3.26.37-6.73,1-10,1.49-4.95,4.05-9.56,5.13-14.61a81.25,81.25,0,0,1,3.87-17.88Z"/><path class="cls-1" d="M331.14,173.87c-.84,10.27-2.37,20.6-6,30.31-1.11,2.81-3.48,6.35-5,9,.08-.31.32-.83.43-1.13,1.1-2.69,2.64-5.51,3.54-8.22,3.05-9.77,4.64-20,7-29.92Z"/><path class="cls-1" d="M331.14,158.35c3.44-2.94,6.95-5.7,10.28-8.65,3.16-3,6.9-5.88,8.28-10.15-.47,7.54-12.27,15.63-18.56,18.8Z"/><path class="cls-1" d="M348.27,138.9a5.45,5.45,0,0,0,2.61-3.77c.11-1,.31-2,.5-2.94.23-1.26.46-2.55,0-3.46a10.74,10.74,0,0,1-1-1.89,2.62,2.62,0,0,1,.19-1.33c1.34-4.67,1.41-9.62,1.2-14.46a15.26,15.26,0,0,1,.63-1.91c-.62,2.8.65,4.82.55,7.83a29.88,29.88,0,0,1-1.21,9.59c.13.41.62,1.07.84,1.6.85,2-.17,4.21-.66,6.18l-.24.95a5.32,5.32,0,0,1-3.41,3.61Z"/><path class="cls-1" d="M329.29,78.91c6.57.43,13.84,1.88,18.63,6.78,1.09,1.41,2,3,2.9,4.44,1.06,1.77,2.59,3.52,2.87,5.66a7.89,7.89,0,0,1-.09,2.12,6.84,6.84,0,0,0-1.17-3.84c-1.85-2.41-3.74-5-5.53-7.46-4.69-4.53-11.46-6-17.61-7.7Z"/><path class="cls-1" d="M329.29,70.33c6.59,1.3,19.44,4.56,23.28,10.3.92,2.24.55,4.85.33,7.19-.2,1.55-.71,3-.5,4.57-.5-1.27-.19-3.28-.2-4.63a28.07,28.07,0,0,0-.39-5.65,3,3,0,0,0-.33-.87c-1.22-1.78-3.27-2.87-5.18-3.91-5.44-2.79-11.28-4.81-17-7Z"/><path class="cls-1" d="M332.15,62a51.74,51.74,0,0,1,8,.86c3.26.72,6.95,1.34,9.64,3.61,2.67,2.53,3.22,6.2,3.21,9.67a13,13,0,0,1-.38,4,17.41,17.41,0,0,0-.31-4c-.43-3.21-1-6.46-3.47-8.74A15.48,15.48,0,0,0,343.75,65c-3.81-1.24-7.7-2.08-11.6-3.06Z"/><path class="cls-1" d="M269.83,37.63c-1.85-7.27-3.93-17.79-.23-24.7A6.16,6.16,0,0,1,274,10a24.31,24.31,0,0,1,8.78-.72,3.46,3.46,0,0,1,1.32.47c.91.15,3.62.82,5.11,1.19a51.55,51.55,0,0,1-6.55-.89,28.37,28.37,0,0,0-8.36,1.2,4.91,4.91,0,0,0-3.54,2.38c-2.26,4.25-2,9.39-1.85,14.13q.26,4.92.89,9.84Z"/><path class="cls-1" d="M277.18,36.41c-1-5.42-2.11-11.31.06-16.6a3.6,3.6,0,0,1,1.8-1.72,11.29,11.29,0,0,0,1.89-.66c2.37-1.16,4.25-3.21,6.25-5,1.12-.9,2.47-2.42,4.1-1.83l-.2,0a9.21,9.21,0,0,1,4.17,1.31,22,22,0,0,1,3.19,2.83c-2.18-1.69-4.59-3.32-7.46-3.16-.39-.22-.93.06-1.49.48-3.13,2.56-5.72,6.44-9.95,7.35-3.44,1.95-2.39,13.24-2.36,17Z"/><path class="cls-1" d="M288.22,35.59c-1.42-7-2.24-20.2,7.28-21.41,2.24-.3,4.82-.31,6.71,1.17a6.47,6.47,0,0,1,2,3.35,4.56,4.56,0,0,0,.82,2c1.65,1.24,3.82,1.61,5.23,3.14A17.06,17.06,0,0,1,312.12,26,12.93,12.93,0,0,0,308.23,23a15.87,15.87,0,0,1-3.39-1.38,2.36,2.36,0,0,1-1.19-1.22c-.77-2.08-1.46-4.46-3.94-4.83-3.35-.63-7.54,0-9.25,3.41-2.66,5-2.48,11.05-2.24,16.57Z"/><path class="cls-1" d="M297.21,36.41c.38-4,1.37-9.21,5.42-11.13,3.1-1.39,5.7-2.86,8.83-.43a15,15,0,0,1,3.86,3.8c.32.57.32,1.16.69,1.65-.86-1-1-1.78-2.28-2.58-3.15-2.26-5.12-4-8.93-1.84l-1.65.68a7.06,7.06,0,0,0-3.31,3.38,35.49,35.49,0,0,0-2.63,6.47Z"/><path class="cls-1" d="M305.38,39.9c1.23-3.69,2.92-7.33,6.27-9.65a3.7,3.7,0,0,1,3.32-.4,22.07,22.07,0,0,1,4.94,3,5.9,5.9,0,0,1,1.82,2.24,7.54,7.54,0,0,0-2.22-1.67,39.6,39.6,0,0,0-5-2.33,2.36,2.36,0,0,0-2.09.37c-3,2-4.91,5.5-7,8.43Z"/><path class="cls-1" d="M311.1,44.58c1-3.24,3.1-7.62,7.16-7.62,1.16.08,2.31.15,3.49.2,2.21.29,8.18.06,8.86,2.88.41,1.54,1,3,1.54,4.54A24.72,24.72,0,0,1,329.61,40a2.1,2.1,0,0,0-1.15-.67c-3.32-.79-6.91-.58-10.31-1-3.38,0-5.36,3.63-7,6.28Z"/><path class="cls-1" d="M318.29,50.87c3.81-4.22,10.62-8.9,16.3-5.23,2.11,1.57,3.62,3.66,5.63,5.26.68.56,1.58,1.08,1.93,2,1.76,3.83,4.6,7.15,6.12,11.17-1.67-3-4.09-5.42-5.89-8.35-.59-.89-1-1.84-1.61-2.68a15.48,15.48,0,0,0-1.4-1c-2-1.55-3.62-3.62-5.56-5.16-5.17-3.28-11.31.88-15.52,4.08Z"/><path class="cls-1" d="M192.61,84.54c-3.89-2.5-6,.24-8.94,2.41a16.13,16.13,0,0,0-3.77,3.31c-1,1.4-.89,3.21-1.15,4.84-.05.8-.11,1.91-.21,2.81-.19-.94-.33-1.89-.45-2.83-.56-4.74.92-6.75,4.78-9.26,1.53-1,2.84-2.33,4.63-2.87a4.88,4.88,0,0,1,5.11,1.59Z"/><path class="cls-1" d="M187.87,97.91c-2.81-1.35-7.24-3.27-8.84.53a27.48,27.48,0,0,0-1.81,3.91c-.22.6.21,1.33.21,2.1-.16-.34-.36-.64-.55-1-1-1.81.35-3.89.93-5.61,1.87-4.79,7.43-3,10.06,0Z"/><path class="cls-1" d="M177.67,144.55a4.44,4.44,0,0,1-.5-2.26c.37-1.77,1.7-3.39,1.47-5.19l-.3-1.08c-.54-1.89-.21-3.79-.75-5.5a1.39,1.39,0,0,0-.46-.65,6.94,6.94,0,0,1-2.71-8.65c.58-1.51-.16-3,.56-4.48,1-2.11,2.44-3.83,3.22-6a5.42,5.42,0,0,1,1.52-2.36,2.5,2.5,0,0,1,2.64-.37,2.41,2.41,0,0,0-2.38.66,4.93,4.93,0,0,0-1.1,2.3,20.8,20.8,0,0,1-1.83,4.24c-.72,1.34-1.4,2.61-1.11,3.87a5.25,5.25,0,0,1-.21,2.54,5.39,5.39,0,0,0,.75,5.78c.56.9,2,1.47,2.34,2.66.58,1.91.12,3.95.52,5.74a4.6,4.6,0,0,1,.12,2.44c-.46,1.5-1.41,2.73-2,4.13a4.86,4.86,0,0,0,.18,2.18Z"/><path class="cls-1" d="M197.31,73.26c-3.68.68-7.51.94-10.91,2.48a23.25,23.25,0,0,0-4.34,4,4.31,4.31,0,0,0-1.14,2c-.39,1.4-.86,2.83-1.23,4.22-.39,1.13-.18,2.31-.5,3.44,0-1.2-.4-2.38-.18-3.57.17-1.47.48-2.91.75-4.35A5.58,5.58,0,0,1,181,78.85a19.14,19.14,0,0,1,4.75-4.32c3.63-1.54,7.7-1.5,11.55-1.27Z"/><path class="cls-1" d="M203.39,59.24c-2.7.48-5.86.57-8.17,2-1.57,2.27-4.32,3.44-6.32,5.13a4.52,4.52,0,0,1-1.18,1.14c-1.2.75-1.44,2.12-2.21,3.18s-2.34,1.71-3.23,2.59a.86.86,0,0,0-.18.43A22.6,22.6,0,0,1,182,77.1a1.73,1.73,0,0,1-.18.56,2.83,2.83,0,0,0-.14,1.45,2.52,2.52,0,0,1-.12-1.6,1.84,1.84,0,0,0,0-.44c0-1.06-.21-2.25-.34-3.31s1.24-1.93,1.92-2.5a6,6,0,0,0,2.17-3.1,8.31,8.31,0,0,1,2.2-2.33c1.84-2.21,4.91-3,6.67-5.2a3.11,3.11,0,0,1,.8-.6c2.76-1.08,5.53-.94,8.37-.79Z"/><path class="cls-1" d="M209.22,51.3c-2.24.33-5,.19-6.87,1.25l-1.87,1.62c-1.22,1.1-2.74,1.36-3.7,2.91-.61.74-1,1.84-1.94,2.42-.42.19-.27,1.15-.26,1.6a3.54,3.54,0,0,1-.38-1.23.89.89,0,0,1,.4-.91c.47-.73.76-1.64,1.25-2.48.66-1.65,2.39-2.28,3.74-3.41,1-.73,2-2,3.31-2.14a15.47,15.47,0,0,1,6.32.37Z"/><path class="cls-1" d="M218.52,42.12c-3,.21-6.27-.18-8.63,1.77a16.2,16.2,0,0,1-2.5,2,24.62,24.62,0,0,0-2.63,1.37c-.68.62-1.27,1.68-2,2.31-1,1.11-2.49,2-3,3.27a1.61,1.61,0,0,1-.66,1.45,1.52,1.52,0,0,0,.27-1.4,1.41,1.41,0,0,1,.2-.89,23,23,0,0,1,2.39-3.16c.74-.86,1.09-1.72,1.91-2.56a15.83,15.83,0,0,1,2.83-1.62,17.29,17.29,0,0,0,2.37-1.85c2.68-2.08,6.46-1.42,9.47-.73Z"/><path class="cls-1" d="M231.17,33.69c-3.43-.31-7.13-1.23-10.47-.74a1.07,1.07,0,0,0-.52.26A24.22,24.22,0,0,1,214.92,37a4.62,4.62,0,0,0-1.39.79c-1.21,1.17-2.72,2.49-3.91,3.58a2.21,2.21,0,0,0-.63,1.48,2.64,2.64,0,0,1-.78,1.65,2.69,2.69,0,0,0,.39-1.67c-.27-2,1.88-3.27,2.86-4.61a7.76,7.76,0,0,1,2.91-2.45,32.37,32.37,0,0,0,4.93-3.58,2.28,2.28,0,0,1,1.07-.52c3.81-.42,7.3.85,10.8,2Z"/><path class="cls-1" d="M240.35,29.72c-3.41-1.59-6.68-3.49-10-5.25-.34-.16-.19-.12-.56-.12a24.84,24.84,0,0,0-5.21,1c-.91.47-1.36,1.39-2.45,1.89-.41.15-.56.5-.82.89a12.36,12.36,0,0,1-1.62,2.27c-.17.3-.05.53-.27.91a1.63,1.63,0,0,1-.95.59,4.13,4.13,0,0,0-1.84,1.92,4,4,0,0,1,1.59-2.41c.31-.17.57-.31.59-.43a3.72,3.72,0,0,1,.13-.91,3.74,3.74,0,0,1,.56-.87c.68-1,1-2.71,2.28-3.17.59-.43,1.32-1.47,2.15-1.88A18.25,18.25,0,0,1,230.21,23a2,2,0,0,1,.8.3,89.38,89.38,0,0,1,9.34,6.43Z"/><path class="cls-1" d="M260.57,35.05a83.1,83.1,0,0,1-1.74-10.31c-.32-4.33-.94-9,.62-13.23a5,5,0,0,1,.82-1.24c1.51-1.66,2.75-3.63,4.87-4.63,1.8-.86,3.61.4,5.34.72a13.06,13.06,0,0,0,3.19.24c.3,0,.43.18.64.27l1.15.64-1.22-.44c-.19-.06-.42-.21-.57-.17L273,7a11.66,11.66,0,0,1-5.25-.49,3,3,0,0,0-2.19.16c-1.62.9-3,3-4.27,4.5a3.52,3.52,0,0,0-.6.93c-.88,2.3-.86,4.93-.91,7.41,0,5.19.42,10.36.76,15.56Z"/><path class="cls-1" d="M253.87,31.33a61,61,0,0,1-2.08-17.22c.15-2.25.42-4.77,2.35-6.29,1.11-1,1.89-2.66,3.47-2.9a12,12,0,0,1,2.25,0c1.43.1,2.87.19,4.31.35-1.44.16-2.88.25-4.31.35-1,.1-2.05-.06-2.79.59-.89,1-1.77,2.28-2.75,3.26-.93,1.3-1,3-1.11,4.71a78.49,78.49,0,0,0,.12,8.53l.54,8.61Z"/><path class="cls-1" d="M247.67,29.34c-.94-4.24-2.3-13.32-6.84-14.84-2.68-.22-5.43-.65-8.07-1-.45,0-.78-.06-1,.17,0,.09-.12.44-.16.54-.92,2-2.84,2.88-4.38,4.19-.7.9-1.55,1.84-2.27,2.72.54-1,1.27-2.06,1.85-3.05,1.21-1.46,3.26-2.58,3.79-4.41.4-2.16,3.17-1.23,4.62-1.16s3.1.39,4.65.49a5.3,5.3,0,0,1,2.56.69c4.5,3.21,5.06,10.63,5.23,15.68Z"/><path class="cls-1" d="M253,5.28c-4.19-.45-7.57,1.9-11.1,3.72a43.8,43.8,0,0,0-6.77,2.61,16.72,16.72,0,0,1,6.23-3.85c3.36-2,7.7-4.36,11.64-2.48Z"/><path class="cls-1" d="M333.28,97.91a9.88,9.88,0,0,1,11,.59c2.64,2,4.14,5.07,6.17,7.23a3.23,3.23,0,0,0-.14-1.28c.12.21.24.41.34.63s.42.92-.11,1a.55.55,0,0,1-.28,0,12.13,12.13,0,0,1-3-2.61c-3.53-4.6-8.15-7.18-14-5.56Z"/><path class="cls-1" d="M230,153.68c-3.33,3-8.88,7.26-6.67,12.24a9.39,9.39,0,0,0,6.67,5.69,7.76,7.76,0,0,1-5.95-2.39c-6.24-6.18-.26-12.7,5.95-15.54Z"/><path class="cls-1" d="M265,155.12c3.79,2.79,6.79,7.11,7.08,11.93a11.5,11.5,0,0,1-.93,4.88,6.84,6.84,0,0,1-5.35,2.32,6.41,6.41,0,0,1-1.85-.38,8,8,0,0,0,1.83-.07c1.58,0,3.8-1.74,4.29-2.41,2-5.93-1.4-11.69-5.07-16.27Z"/><path class="cls-1" d="M230,167.14a11,11,0,0,1,5.48,2c1.43,1.15,2.43,3,4.08,3.66a27.22,27.22,0,0,0,10.89,1c1.86-.29,3.24-1.77,5-2.43a4.59,4.59,0,0,1,1.93-.24,5.28,5.28,0,0,0-1.77.59c-1.63,1-2.92,2.72-4.9,3.16A21.91,21.91,0,0,1,239,174a8.37,8.37,0,0,1-3-2.76c-1.29-2.1-3.61-3.24-6-4.08Z"/><path class="cls-1" d="M235,123.21c-10.63-8.75-22.93-12.52-33.55-1.47,8.95-12.94,24.47-9.17,33.55,1.47Z"/><path class="cls-3" d="M212.72,123.21a5.15,5.15,0,0,0,2.67,4.39c-7.19-1.32-10.21-4.39-10.21-4.39s5.35-5.7,13.21-5.38C215.18,118.15,212.72,120.42,212.72,123.21Z"/><path class="cls-1" d="M234.24,127a2.28,2.28,0,0,1-1.38,1.13,1.23,1.23,0,0,1-.63-.12,6.17,6.17,0,0,0-2.23-.07,40.84,40.84,0,0,1-8.35.9.63.63,0,0,1-.22-1.21c4.24-1.49,4.57-6.7.48-8.53a.67.67,0,0,1-.31-.89.68.68,0,0,1,.79-.34,20,20,0,0,1,6.71,3.64,29.72,29.72,0,0,1,5.14,5.49Zm0,0c-3.48-3.38-7.48-6.58-12.21-7.85l.46-1.24c5.3,2.25,4.8,9.19-.62,10.89l-.19-1.22a60,60,0,0,0,8.25-.27,7.42,7.42,0,0,1,2.91.55,2.32,2.32,0,0,0,1.4-.86Z"/><path class="cls-1" d="M225.55,123.21a5.82,5.82,0,0,1-3.84,5.17,36.32,36.32,0,0,1-6.42-.22c-5.93-3.07-3.13-10.63,3.1-10.73a14.58,14.58,0,0,1,4,.9.2.2,0,0,1,0,.14l-.1-.16a5.7,5.7,0,0,1,3.26,4.9Zm0,0a5.1,5.1,0,0,0-3.41-4.58l-.11-.16a.17.17,0,0,0,.16.16,16,16,0,0,0-3.82-.4c-5,1-6.6,5.9-2.87,8.81a38.69,38.69,0,0,0,6.09.93,5.16,5.16,0,0,0,4-4.76Z"/><circle class="cls-4" cx="219.13" cy="123" r="2.61"/><circle class="cls-5" cx="218" cy="122.08" r="0.63"/><circle class="cls-5" cx="219.07" cy="122.35" r="0.27"/><circle class="cls-5" cx="218.58" cy="123.12" r="0.15"/><path class="cls-1" d="M215.39,127.6c-7.19-1.32-10.21-4.39-10.21-4.39s5.35-5.7,13.21-5.38c0,0-7.54.48-11,5.14A15.46,15.46,0,0,0,215.39,127.6Z"/><path class="cls-1" d="M215.39,127.6c-3.75-.48-7.61-1.53-10.59-4a.5.5,0,0,1,0-.7,19.16,19.16,0,0,1,6.22-4.33,17,17,0,0,1,7.43-1.42.7.7,0,0,1,.05,1.39,18.89,18.89,0,0,0-8.51,2.76,10.85,10.85,0,0,0-2.19,2v-.59a16.55,16.55,0,0,0,7.64,4.93Zm0,0a15.16,15.16,0,0,1-8.39-4.32.47.47,0,0,1,0-.57,12.31,12.31,0,0,1,5.13-4,20.64,20.64,0,0,1,6.24-1.6l0,1.4a17.65,17.65,0,0,0-10,2.89,20,20,0,0,0-2.8,2.15v-.74c2.71,2.47,6.32,3.83,9.83,4.77Z"/><path class="cls-1" d="M198.88,128.18c1.94-1.31,4.65-1.05,6.72-.37a27.33,27.33,0,0,1,6.18,2.44c-4.48.12-8.44-2.39-12.9-2.07Z"/><path class="cls-1" d="M270.31,127.73c10.92-8.74,26.88-9.5,33.22,4.88-8.35-12.86-21.14-11.46-33.22-4.88Z"/><path class="cls-3" d="M292.18,131.93a5.2,5.2,0,0,1-3.45,3.81c7.31,0,10.85-2.39,10.85-2.39s-4.17-6.61-11.95-7.77C290.71,126.5,292.7,129.19,292.18,131.93Z"/><path class="cls-1" d="M270.34,131.56a2.3,2.3,0,0,0,1.21,1.11,7.2,7.2,0,0,1,3,0,59.9,59.9,0,0,0,8.05,1.82l-.41,1.16c-5-2.69-4.18-9.6,1.44-10.82l.21,1.31c-4.88.36-9.41,2.74-13.46,5.41Zm0,0a29.46,29.46,0,0,1,6.08-4.42,19.92,19.92,0,0,1,7.27-2.31.66.66,0,0,1,.25,1.3c-4.38,1-5,6.2-1.15,8.46a.63.63,0,0,1-.43,1.15,41.24,41.24,0,0,1-8-2.45,6,6,0,0,0-2.2-.35,1.27,1.27,0,0,1-.64,0,2.2,2.2,0,0,1-1.14-1.37Z"/><path class="cls-1" d="M279.58,129.51a5.16,5.16,0,0,0,3,5.43,39.67,39.67,0,0,0,6.16.23c4.1-2.07,3.71-7.28-1.22-9.21a16.07,16.07,0,0,0-3.72-.3h-.05c.06,0,.18-.05.18-.12l-.13.13a5.09,5.09,0,0,0-4.21,3.85Zm0,0a5.67,5.67,0,0,1,4.13-4.19l-.14.13a.28.28,0,0,1,.08-.12,14.93,14.93,0,0,1,4.05-.15c6.09,1.28,7.43,9.24,1,11.13a35.34,35.34,0,0,1-6.34-1,5.8,5.8,0,0,1-2.8-5.8Z"/><circle class="cls-4" cx="285.92" cy="130.52" r="2.61"/><circle class="cls-5" cx="287.2" cy="129.82" r="0.63"/><circle class="cls-5" cx="286.1" cy="129.89" r="0.27"/><circle class="cls-5" cx="286.44" cy="130.74" r="0.15"/><path class="cls-1" d="M288.73,135.74c7.31,0,10.85-2.39,10.85-2.39s-4.17-6.61-11.95-7.77c0,0,7.31,1.89,9.84,7.13A15.56,15.56,0,0,1,288.73,135.74Z"/><path class="cls-1" d="M288.73,135.74c3.62-.26,7.43-.91,10.55-2.83l-.15.72a19.94,19.94,0,0,0-2.34-2.63,17.75,17.75,0,0,0-9.27-4.73l.28-1.37a18.49,18.49,0,0,1,8.29,4.87,11.56,11.56,0,0,1,1.83,2.75.45.45,0,0,1-.14.55,15.14,15.14,0,0,1-9,2.67Zm0,0a16.53,16.53,0,0,0,8.43-3.4l-.13.58a10.41,10.41,0,0,0-1.77-2.36,18.89,18.89,0,0,0-7.84-4.31.7.7,0,0,1,.31-1.36,16.77,16.77,0,0,1,7,2.8,19.25,19.25,0,0,1,5.27,5.37.51.51,0,0,1-.13.72c-3.39,1.9-7.4,2.19-11.17,2Z"/><path class="cls-1" d="M281.34,137.79c-2.63,1-5.57.14-8-1a11.16,11.16,0,0,0-4.58-.18,6.15,6.15,0,0,1,6.54-.52,25.18,25.18,0,0,0,6,1.71Z"/><path class="cls-1" d="M184.18,222.76l-5.63,0c-2.58.92-5.19,1.8-7.85,2.48a65.17,65.17,0,0,0-8,1.83c-15.76,4.67-31.4,9.8-47,14.84-16.65,1.56-33.45,5.38-48,13.82a50.07,50.07,0,0,0-5.83,3.93c-6.15,7.43-12.1,15-17.92,22.73C35.24,294,26.74,305.78,20,318.59,14,331.74,8,345,1,357.68a171.35,171.35,0,0,1-11.24,18.64c-3.9,6.09-7.68,12.27-11.37,18.49-1.83,3.11-3.67,6.22-5.31,9.42a6.86,6.86,0,0,0-.79,2.36c-.55,7.35,3.31,14.49,7.63,20.23,7.56,9.14,18,16.43,27.65,22.69A258.4,258.4,0,0,0,35.46,460a65.51,65.51,0,0,0,12.65,2.68,46.21,46.21,0,0,0,9.16-.85c2.27-.48,4.82-1,6.73-2.35l-.12.52a8.62,8.62,0,0,1,1-7.58c1.61-1.84,3.25-3.61,3.41-6.18.14-1.75.25-3.73.38-5.52a47.6,47.6,0,0,1-.15-5.62c.25-2.42,1.77-6,4.61-5.56-.36-3.17-1.93-6.86-2.88-10-1.44-4.69-4.83-9.17-3.87-14.3.31-2.49.87-4.93,1.4-7.34a5.25,5.25,0,0,0-.33-3.49c-.48-1-.8-2.42-1.74-3.05-.46-.29-1-.1-1.67,0-.84.17-1.28-.66-1.39-1.35-.55-3.72.06-7.46-.17-11.19-.17-5-.74-9.89-1.22-14.83s-1-9.93-.31-14.87c-1,9.94,1.53,19.77,1.83,29.69.27,3.69-.29,7.47.28,11.11.14.59.37,1.15.92,1a2.76,2.76,0,0,1,2,0,3.4,3.4,0,0,1,1.22,1.56,13.52,13.52,0,0,1,1.28,3.56c-.12,4.32-2.11,8.52-1.45,12.86.8,3.59,2.84,6.84,4,10.36,6.64,19,.37,4.95-1.58,15.88-.23,2.41.46,5,.06,7.43-.16,2.46,0,5.21-1.42,7.43A31.28,31.28,0,0,1,65.65,453a7.68,7.68,0,0,0-.83,6.68.44.44,0,0,1-.12.52A10.55,10.55,0,0,1,61.15,462,47.63,47.63,0,0,1,50,463.82a43.14,43.14,0,0,1-11.23-1.65,175.11,175.11,0,0,1-17.82-5.86c-4.69-1.79-9.34-3.67-13.94-5.7-4.14-2.56-8.12-5.32-12-8.22-5.77-4.43-11.51-9.05-16.11-14.76-4.56-6-8.54-13.42-7.93-21.24.29-2.21,1.64-4.06,2.62-6,1.19-2.12,2.4-4.21,3.63-6.29,3.69-6.25,7.45-12.45,11.37-18.56A172.31,172.31,0,0,0-.21,357c7-12.72,13-25.81,19.1-39,6.76-12.88,15.33-24.69,24-36.31Q51.68,270.14,61,259a45.53,45.53,0,0,1,6.12-4.12c14.61-8.39,32-12.27,48.33-13.64,15.7-4.9,31.39-9.85,47.21-14.37a64.89,64.89,0,0,1,8-1.74c2.66-.66,5.27-1.51,7.86-2.41l5.65,0Z"/><path class="cls-1" d="M53.7,479.71c-9,21.33-18.89,42.54-29.59,63.06,8.94-21.35,18.9-42.54,29.59-63.06Z"/><path class="cls-3" d="M42.2,546.18s8.8-21.26,10-21-1.66-6.42,0-9.75,5.24-32.84,5.24-32.84l4.42-21.39"/><path class="cls-1" d="M63.53,262.47c3.7,10.88,6,22.33,5.79,33.88-.46,8.33-2.67,17.28-4.07,25.52-.58,2.81-1.1,5.63-1.72,8.43.3-2.85.69-5.69,1-8.54l1.19-8.51c.7-5.64,2-11.28,2.15-16.95.28-11.38-1.75-22.77-4.37-33.83Z"/><path class="cls-1" d="M64.49,277.51c.29,1.23.55,2.47.81,3.71l-.42.06C64.74,280,64.6,278.77,64.49,277.51Z"/><polygon class="cls-1" points="65.94 284.96 66.4 288.74 65.4 288.81 65.19 285.05 65.94 284.96"/><polygon class="cls-1" points="66.67 292.55 66.71 296.37 65.4 296.33 65.48 292.57 66.67 292.55"/><path class="cls-1" d="M66.48,300.2c-.16,1.27-.31,2.56-.52,3.79l-1.4-.22c.22-1.26.37-2.48.55-3.71Z"/><polygon class="cls-1" points="65.33 307.73 64.69 311.47 63.38 311.26 63.96 307.51 65.33 307.73"/><polygon class="cls-1" points="64.02 315.2 63.33 318.93 62.32 318.76 62.83 315.01 64.02 315.2"/><path class="cls-1" d="M62.6,322.65c-.24,1.24-.52,2.48-.77,3.71l-.44-.07c.14-1.25.27-2.51.44-3.77Z"/><polygon class="cls-1" points="61.02 330.07 60.97 330.3 60.99 330.07 61.02 330.07"/><path class="cls-1" d="M2.18,432.22l3.27,1.87-.67,1.2c-1.1-.64-2.2-1.26-3.29-1.94Z"/><polygon class="cls-1" points="8.77 435.89 12.12 437.62 11.49 438.87 8.1 437.13 8.77 435.89"/><polygon class="cls-1" points="15.51 439.25 18.95 440.79 18.45 441.98 14.94 440.5 15.51 439.25"/><polygon class="cls-1" points="22.43 442.19 25.97 443.49 25.67 444.45 22.03 443.31 22.43 442.19"/><path class="cls-1" d="M29.56,444.66c1.21.37,2.42.76,3.62,1.16l-.17.55c-1.23-.3-2.45-.61-3.67-.93Z"/><path class="cls-1" d="M36.71,447.28a15.46,15.46,0,0,1,2.19,1.37,18.83,18.83,0,0,0-2.3-1.13Z"/><path class="cls-1" d="M-19.79,396.92c4.59,20.67,23.58,32.1,41.72,39.84a97.36,97.36,0,0,0,9.46,3.35c3.17,1,6.54,1.91,9.29,3.92-2.92-1.72-6.22-2.43-9.48-3.25a101.6,101.6,0,0,1-27.84-12C-8.09,421.9-18,410.5-19.79,396.92Z"/><path class="cls-1" d="M163.1,231.08c-3.76,16,1.17,33,10,46.43s21,25.44,35.68,32.28c17.59,8.11,38,9.68,56.95,6.34,25.46-5.38,45.66-27.78,51.42-52.78a52.21,52.21,0,0,0,.72-19.38,52.26,52.26,0,0,1-.31,19.47c-5.27,25.48-25.72,48.45-51.57,54-19.34,3.52-39.89,1.94-57.82-6.46-14.65-6.8-27-19.3-35.83-32.94S159,247.09,163.1,231.08Z"/><path class="cls-1" d="M160.21,233.8a31.22,31.22,0,0,0-.69,3.72l-.21,0A32.91,32.91,0,0,1,160.21,233.8Z"/><polygon class="cls-1" points="159.16 241.28 159.08 245.04 158.55 245.04 158.79 241.25 159.16 241.28"/><polygon class="cls-1" points="159.26 248.8 159.67 252.54 158.88 252.64 158.58 248.84 159.26 248.8"/><polygon class="cls-1" points="160.31 256.25 161.18 259.9 160.22 260.15 159.44 256.42 160.31 256.25"/><polygon class="cls-1" points="162.26 263.5 163.56 267.02 162.47 267.45 161.24 263.83 162.26 263.5"/><polygon class="cls-1" points="165.04 270.47 166.7 273.84 165.59 274.42 163.93 270.98 165.04 270.47"/><path class="cls-1" d="M168.54,277.11c.66,1.06,1.31,2.13,2,3.18l-1.1.73c-.69-1.07-1.34-2.17-2-3.25Z"/><polygon class="cls-1" points="172.67 283.4 174.91 286.42 173.81 287.26 171.57 284.18 172.67 283.4"/><polygon class="cls-1" points="177.26 289.36 179.7 292.23 178.66 293.16 176.17 290.26 177.26 289.36"/><polygon class="cls-1" points="182.24 295.01 184.88 297.69 183.96 298.65 181.25 295.95 182.24 295.01"/><polygon class="cls-1" points="187.64 300.26 190.49 302.71 189.69 303.7 186.77 301.23 187.64 300.26"/><polygon class="cls-1" points="193.44 305.04 196.5 307.24 195.82 308.24 192.7 306.03 193.44 305.04"/><polygon class="cls-1" points="199.64 309.31 202.88 311.2 202.41 312.11 199.06 310.26 199.64 309.31"/><polygon class="cls-1" points="206.26 312.88 209.68 314.44 209.37 315.21 205.85 313.71 206.26 312.88"/><polygon class="cls-1" points="213.19 315.79 216.76 317.01 216.59 317.57 212.95 316.49 213.19 315.79"/><polygon class="cls-1" points="220.38 318.07 224.05 319 223.99 319.26 220.28 318.49 220.38 318.07"/><polygon class="cls-1" points="227.75 319.79 229.12 320.05 227.74 319.87 227.75 319.79"/><path class="cls-1" d="M310.54,235c-1.69,9.67-5.14,19.34-7.14,28.92-.25-5,1.17-9.94,2.34-14.76a105.32,105.32,0,0,1,4.8-14.16Z"/><path class="cls-1" d="M311.46,235.58c3.86,3,7.65,6.27,11.93,8.71.67.29,15.88,8.09,17,8.65,15.06,7.7,30.12,15.46,45.52,22.45,2.57,1.14,5.16,2.27,7.78,3.16,2,.68,4.18.67,6.17,1.52,6.69,2.55,12.67,6.56,18.37,10.78,1.76,1.12,3,3.24,4.27,4.9,14.69,20.71,28.7,42,41.74,63.79,8.62,14.57,17,29.37,23.66,44.95a109.56,109.56,0,0,1,5.57,16c-3-10.88-8.17-21-13.37-31-17.31-32.3-37.69-62.92-58.73-92.9-.72-.94-1.74-2.48-2.45-3.34a30.08,30.08,0,0,0-3.2-2.55,82.66,82.66,0,0,0-14.37-8.62c-2.55-1.33-5.37-1.52-8.05-2.31s-5.31-2.07-7.89-3.23C370,269.44,355,261.43,340,253.55l-14.92-8-1.87-1c-4.25-2.54-8-5.86-11.79-9Z"/><path class="cls-1" d="M419.78,303.9c-8.45,30.34-12.41,61.7-15.13,93q.14-5.9.39-11.81c1.69-27.47,5.64-55.15,14.74-81.21Z"/><polygon class="cls-1" points="419.78 317.74 419 321.44 418.75 321.39 419.78 317.74"/><polygon class="cls-1" points="418.26 325.15 417.57 328.87 416.92 328.74 417.81 325.06 418.26 325.15"/><polygon class="cls-1" points="416.89 332.59 416.23 336.32 415.32 336.15 416.1 332.44 416.89 332.59"/><polygon class="cls-1" points="415.61 340.05 415.02 343.78 413.86 343.59 414.58 339.86 415.61 340.05"/><polygon class="cls-1" points="414.43 347.52 413.86 351.25 412.6 351.06 413.21 347.32 414.43 347.52"/><polygon class="cls-1" points="413.31 355 412.79 358.74 411.45 358.55 412.01 354.81 413.31 355"/><polygon class="cls-1" points="412.3 362.49 411.82 366.24 410.43 366.07 410.92 362.31 412.3 362.49"/><polygon class="cls-1" points="411.34 370 410.88 373.75 409.57 373.6 409.98 369.83 411.34 370"/><polygon class="cls-1" points="410.45 377.51 410.04 381.27 408.81 381.14 409.17 377.37 410.45 377.51"/><polygon class="cls-1" points="409.66 385.03 409.26 388.79 408.18 388.7 408.46 384.92 409.66 385.03"/><polygon class="cls-1" points="408.88 392.56 408.52 396.33 407.69 396.27 407.93 392.48 408.88 392.56"/><polygon class="cls-1" points="408.19 400.1 407.84 403.87 407.34 403.84 407.49 400.05 408.19 400.1"/><polygon class="cls-1" points="407.51 407.64 407.19 411.42 407.14 411.42 407.22 407.63 407.51 407.64"/><path class="cls-1" d="M180.42,226.48c-10.58,3.89-7.11,17.37-4.95,25.74,3.77,14,10.63,27.52,21.67,37.08,14.92,12.15,34.09,20.08,53.54,18.23A76.68,76.68,0,0,0,264.94,305a71.2,71.2,0,0,0,13.51-5.17c17.17-9,29.71-26.61,31.63-46,.5-4.27.33-10.27.46-14.61,0,4.39.31,10.34-.09,14.65-1.48,19.69-14.09,37.83-31.42,47a59.26,59.26,0,0,1-10.23,4.23,82.19,82.19,0,0,1-16.17,3.61c-20.77,2.45-40.38-5.51-56.29-18.5-11.16-9.76-17.92-23.69-21.54-37.84-2-8.51-5.19-22.31,5.62-25.92Z"/><path class="cls-1" d="M153.7,235.58c-10.33,4-20.66,8.06-31.54,10.4a182.45,182.45,0,0,0-48.33,10.44l-5.17,1.92A144.87,144.87,0,0,1,122,244.7c10.37-2.09,21.56-6,31.75-9.12Z"/><polygon class="cls-1" points="153.7 238.12 150.17 239.51 150.08 239.25 153.7 238.12"/><polygon class="cls-1" points="146.63 240.86 143.07 242.18 142.85 241.5 146.47 240.39 146.63 240.86"/><polygon class="cls-1" points="139.49 243.43 135.9 244.66 135.61 243.72 139.23 242.63 139.49 243.43"/><path class="cls-1" d="M132.29,245.84c-1.21.37-2.42.75-3.63,1.1l-.33-1.17c1.21-.35,2.43-.67,3.65-1Z"/><polygon class="cls-1" points="124.97 247.92 121.18 248.67 121.03 247.38 124.68 246.7 124.97 247.92"/><polygon class="cls-1" points="117.39 248.97 113.64 249.36 113.48 247.98 117.27 247.63 117.39 248.97"/><polygon class="cls-1" points="109.91 249.85 106.19 250.42 105.96 249.07 109.71 248.46 109.91 249.85"/><polygon class="cls-1" points="102.47 251.07 98.78 251.82 98.5 250.57 102.22 249.78 102.47 251.07"/><path class="cls-1" d="M95.1,252.65c-1.22.3-2.44.62-3.66.9l-.3-1.12c1.22-.34,2.44-.65,3.67-1Z"/><polygon class="cls-1" points="87.79 254.51 84.16 255.55 83.89 254.7 87.5 253.53 87.79 254.51"/><polygon class="cls-1" points="80.55 256.68 76.96 257.86 76.76 257.32 80.3 255.96 80.55 256.68"/><polygon class="cls-1" points="73.39 259.11 69.84 260.43 69.8 260.34 73.26 258.78 73.39 259.11"/><path class="cls-1" d="M397.32,461.17c-.27,10.1-2.08,20.09-3.82,30-1.32,6.68-4.36,12.77-6.31,19.21a29.63,29.63,0,0,0-1.63,9.68,158.09,158.09,0,0,1-.58,20.19c0-3.36,0-6.72-.08-10.08s-.17-6.71-.43-10c-.44-10.34,5.71-19.37,7.71-29.21,1.87-9.57,4.09-20.11,5.14-29.77Z"/><path class="cls-1" d="M397.32,446.28c1,8.73,1.79,17.59,4.4,26a16.34,16.34,0,0,0,2.26,4.17c2.87,4.41,5.59,8.89,8.29,13.39s5.35,9,7.93,13.58l-.21-.19c2.59,1.28,5.19,2.54,7.75,3.87,2.22,1.16,5.52,2.83,7.62,4.14-2.2-1.09-5.59-2.57-7.88-3.59l-7.91-3.53c-3-4.36-5.63-9.07-8.48-13.57s-5.45-9-8.26-13.36a17.43,17.43,0,0,1-2.31-4.5c-2.45-8.56-2.9-17.56-3.2-26.41Z"/><path class="cls-1" d="M426.23,511.24a304.13,304.13,0,0,1,21.08,36.55,303.56,303.56,0,0,1-21.08-36.55Z"/><path class="cls-1" d="M311.46,48.12a49.05,49.05,0,0,1,12,11.4A16.07,16.07,0,0,1,326,64.63c.52,1.85.11,3.77,0,5.65-.34,9.1-.57,18.39,1.75,27.25,1.76,7.16,2.64,14.48,4,21.75.49,3.63,1.18,7.4.38,11,.48-3.67-.36-7.32-1.07-10.9-1.63-7.15-2.81-14.44-4.59-21.58a50.21,50.21,0,0,1-1.84-11A131,131,0,0,1,325,67.43c.6-7.2-8.53-15-13.58-19.31Z"/><path class="cls-1" d="M197.31,76.87q4-9.68,9-18.92a53.23,53.23,0,0,1,5.75-8.9,6.81,6.81,0,0,1,2.19-1.76,46.7,46.7,0,0,0,6-4.88c4.1-3.39,10.11-9.95,15.9-9.13a66,66,0,0,1,12.79,3.07,46.35,46.35,0,0,1,9.37,4.75,55.55,55.55,0,0,0-19.74-6.31c-1.64-.16-3.33-.66-4.95-.2-4.86,1.6-8.57,5.57-12.43,8.88-2.15,1.86-4.24,4-6.79,5.33A6.15,6.15,0,0,0,213.09,50c-6.43,8.09-10.84,17.84-15.78,26.92Z"/><path class="cls-1" d="M447.31,511.24a167.28,167.28,0,0,1,22.15-8.56,54.81,54.81,0,0,1,13.22-2.59c7.21.1,14.9.16,21.45-3.22,3.6-1.71,5.95-4.78,8.56-7.73s5.46-5.76,8.36-8.47l.54-.5.28-.25a.6.6,0,0,0,.15-.68c-1.27-2.86-2.64-6-3.87-8.83,1.46,2.76,3,5.81,4.4,8.59a1.35,1.35,0,0,1-.5,1.64c-3,3-5.83,6-8.54,9.22-1.29,1.49-2.42,3.06-3.87,4.54-5.85,5.84-14.59,7.21-22.51,7.08-5.9-.48-11.66.69-17.37,2.24-7.62,2.06-15.07,4.73-22.45,7.52Z"/></g></svg>