<svg xmlns="http://www.w3.org/2000/svg" viewBox="0 0 518.16 538.06"><defs><style>.cls-1{fill:#1d1d1b;}.cls-2,.cls-3{fill:none;stroke:#1d1d1b;stroke-width:1.57px;}.cls-2{stroke-miterlimit:10;}.cls-3{stroke-linecap:round;stroke-linejoin:round;}.cls-4{fill:#fff;}</style></defs><g id="Sebastian"><path class="cls-1" d="M286.28,140.86a6.17,6.17,0,0,1,0-6.1,6.22,6.22,0,0,1,0,6.1Z"/><path class="cls-1" d="M329.63,139.45a6.2,6.2,0,0,1,6.07-.65,6.2,6.2,0,0,1-6.07.65Z"/><path class="cls-1" d="M332.57,140.2a6.21,6.21,0,0,1,6-.85,6.22,6.22,0,0,1-6,.85Z"/><path class="cls-1" d="M327,138.68a3.5,3.5,0,0,1,4.41-.47,3.5,3.5,0,0,1-4.41.47Z"/><path class="cls-1" d="M286,145a10.39,10.39,0,0,1-.94-8,10.38,10.38,0,0,1,.94,8Z"/><path class="cls-1" d="M285.23,146.12a19.85,19.85,0,0,1-1.6-11.09,19.85,19.85,0,0,1,1.6,11.09Z"/><path class="cls-2" d="M288.25,143.25a1.23,1.23,0,0,1-.5-1.12l.44-7.26.7.89.5-.55.32,1.23s9.44-4.87,15.8-5.65c6-.73,13.21-1,15.61-1.08,1.43,0,12.57,2.61,13.29,3.43.55.63,2.9,3.23,4.11,4.57a.37.37,0,0,1-.3.63c-3.42-.61-14.46-1.47-20.41-1.91-11.45-.86-23.48,5.21-25.63,6.93A3.2,3.2,0,0,1,288.25,143.25Z"/><path class="cls-1" d="M211.08,138.83a6.21,6.21,0,0,1-6.06-.65,6.18,6.18,0,0,1,6.06.65Z"/><path class="cls-1" d="M208.15,139.58a6.21,6.21,0,0,1-6-.85,6.22,6.22,0,0,1,6,.85Z"/><path class="cls-1" d="M213.7,138.06a3.51,3.51,0,0,1-4.42-.47,3.51,3.51,0,0,1,4.42.47Z"/><path class="cls-1" d="M253.51,142.87a10.37,10.37,0,0,1,1-8,10.36,10.36,0,0,1-1,8Z"/><path class="cls-1" d="M254.29,144.05A19.76,19.76,0,0,1,255.9,133a19.94,19.94,0,0,1-1.61,11.09Z"/><path class="cls-2" d="M252,141.18a3.46,3.46,0,0,0,.85-2l-.3-5-.7.89-.51-.55-.31,1.23s-9.45-4.87-15.81-5.65c-6-.73-13.21-1-15.61-1.08-1.43,0-12.56,2.61-13.29,3.43-.54.62-2.89,3.23-4.1,4.57a.36.36,0,0,0,.3.62c3.41-.6,14.45-1.46,20.41-1.91,11.44-.86,21.78,2.72,23.93,4.43C248.35,141.44,251.16,141.74,252,141.18Z"/><path class="cls-1" d="M303.08,14.09,297.25,11c-9.87-5-21.18-6.27-32.09-6.65-13.27-.57-26.2,3.07-38.27,8.38a100.65,100.65,0,0,0-17.26,9.52c-8.91,6.46-14.56,16.24-19.19,26.11a178.63,178.63,0,0,0-7.32,18.39c-5.33,19-5.57,39.63-6.57,59l2.66-1.48-2.61,1.57c-.29-4.28,0-8.92,0-13.32.37-13.28,1.14-26.57,3.63-39.67a64,64,0,0,1,2.63-9.69c5.08-13.41,10.48-27.37,20.7-37.8a50.2,50.2,0,0,1,10.81-8A120.35,120.35,0,0,1,238.83,6.75c12.74-4.2,26.47-4.27,39.6-2.09,6.53,1.16,13.1,2.83,18.93,6.08l5.72,3.35Z"/><path class="cls-1" d="M354.66,107.75c-.89-5.77-1.75-11.54-2.53-17.32-1.62-6.81-3.42-14.09-5.35-21-4.92-17.89-11-34.39-27.21-45-2.93-2.12-6-4.09-9-6.07,6.34,3.5,12.63,7.21,18.12,12.08,10.91,10,15.79,24.66,19.53,38.58,1.88,7,3.41,14.14,4.83,21.26.61,5.8,1.13,11.61,1.62,17.43Z"/><path class="cls-1" d="M263.13,3.77C266.7,7.15,268.58,12,270,16.65c3.35,11.84,3.18,24.35,1.82,36.48-.37,2.42-.68,4.84-1.09,7.24.42-9.68.92-19.43.18-29.1A88.31,88.31,0,0,0,268.8,17c-1.16-4.63-2.62-9.43-5.67-13.19Z"/><path class="cls-1" d="M354.83,121.49c1.55.26,6.48,1.11,5.94-1.16a34.65,34.65,0,0,0-2.82-6.48c-11.42-20.8-30.9-36.36-52.39-45.87-31.08-13.2-66.88-5.12-94,13.41a165.71,165.71,0,0,0-31.71,28.36A154.28,154.28,0,0,1,211,80.57c38.07-26.41,82.58-28.75,119.73.69,11.25,8.79,21.11,19.63,27.61,32.4,1.06,2.29,2.34,4.56,2.75,7.09-.27,2-4.85,1-6.23.74Z"/><path class="cls-2" d="M179.39,125.42s30-44.45,66.42-57.07c28.9-10,42.23-6.45,66.21,1.87"/><path class="cls-1" d="M180.49,100.65c2.8-32.17,13.92-69.61,43.31-87A60.46,60.46,0,0,1,237,8a66,66,0,0,0-24,15.05c-20.25,20.54-28.38,49.75-32.57,77.58Z"/><path class="cls-1" d="M347.94,108.33c-12.34-14.1-26.72-26.95-44-34.55-20.42-9.09-44.3-8.43-63.57,3.21-2.65,1.66-6,3.86-8.64,5.54a182.3,182.3,0,0,0-24,19.16A290.5,290.5,0,0,0,186.49,124c-.54.56-1.68,2.13-2.51,2.48a5,5,0,0,1-3.55,0,1.84,1.84,0,0,1-1.37-1.26,6.71,6.71,0,0,1,0-1.79l.77-13.69-.36,13.71,0,.86c-.37,2.12,3,2.21,4.27,1.6.76-.36,1.66-1.76,2.26-2.39a276.18,276.18,0,0,1,20.95-22.72,172.38,172.38,0,0,1,24-19.49c2.71-1.71,5.95-3.9,8.65-5.61,18.83-11.59,43.15-12.59,63.25-3.71,18,7.7,32.84,21.3,45.1,36.33Z"/><path class="cls-1" d="M223.7,18.42a7.66,7.66,0,0,1,5.57-5c1.11-.32,3.2-.37,2.93,1.4-.7,2-2.49,2.71-4.16,3.57-1,.37-4.41,2.06-4.34,0Zm0,0c.23,3.1,6.62-2.74,7-3.91,0,0,0,.06,0,.12s.07.12.11.15c-2.68-.37-6.19.69-7.11,3.64Z"/><path class="cls-2" d="M224.64,16.65s.73.63,2.21,0c2.21-.94,2.15-2.27,2.15-2.27"/><path class="cls-1" d="M310.55,18.42c-1.36-2.66-4.59-3.8-7.06-3.68.09-.06.09-.26.1-.23a2.08,2.08,0,0,0,.45.69c.67.82,6.21,5.63,6.51,3.22a1,1,0,0,1,0,.67c-1.49,1.95-8.14-2.21-8.48-4.28-.29-1.72,1.86-1.74,2.95-1.47,2.6.39,5.26,2.4,5.55,5.08Z"/><path class="cls-2" d="M309.62,16.65a2.15,2.15,0,0,1-2.22,0c-2.2-.94-2.14-2.27-2.14-2.27"/><path class="cls-1" d="M182.55,97.3c.13-1.39.28-2.78.45-4.16l.42.07C183.15,94.57,182.86,95.93,182.55,97.3Z"/><polygon class="cls-1" points="183.56 88.99 184.25 84.86 185.29 85.07 184.34 89.14 183.56 88.99"/><polygon class="cls-1" points="185.05 80.74 185.94 76.65 187.3 76.98 186.27 81.02 185.05 80.74"/><polygon class="cls-1" points="186.93 72.57 188.03 68.52 189.51 68.95 188.38 72.96 186.93 72.57"/><polygon class="cls-1" points="189.22 64.5 190.54 60.52 191.98 61 190.71 64.96 189.22 64.5"/><polygon class="cls-1" points="191.99 56.57 193.58 52.68 194.79 53.17 193.33 57.07 191.99 56.57"/><polygon class="cls-1" points="195.33 48.85 197.27 45.12 198.04 45.52 196.35 49.32 195.33 48.85"/><path class="cls-1" d="M199.43,41.51c.8-1.15,1.58-2.31,2.4-3.44l.11.08c-.67,1.22-1.37,2.42-2.05,3.63Z"/><path class="cls-1" d="M184.33,141.73c-2.07-3.22-7.78-10.34-10.3-3.77-2.2,6.08-2.31,13.38,1.88,18.59,2.67,3.33,5.06,7.44,4.65,11.92-.13,5.85-.79,11.77-.15,17.57a13.51,13.51,0,0,0,1.34,4.68,14.64,14.64,0,0,0,7.59,6.13,14.15,14.15,0,0,1-6.57-3.75,9,9,0,0,1-1.69-2c-1.75-3.05-1.94-6.61-2.15-10-.17-4.22,0-8.47.12-12.67a12.61,12.61,0,0,0-1.61-6.88c-1.63-2.89-4.14-5.45-5.31-8.69a19.48,19.48,0,0,1-.47-10.34c2-11.51,8-9.6,12.67-.79Z"/><path class="cls-1" d="M188.61,165.84a263.67,263.67,0,0,1,.76,34.31,139.7,139.7,0,0,1-.76-34.31Z"/><path class="cls-1" d="M240.35,231.75a138.76,138.76,0,0,1,26.06-1.82,18.78,18.78,0,0,1,4.37.42,31.4,31.4,0,0,1,4.15,1.2,89.19,89.19,0,0,1,22.28-1.78A90.23,90.23,0,0,0,274.93,232c-5.77-.35-11.44-1.17-17.24-1.13a157,157,0,0,0-17.34.92Z"/><path class="cls-1" d="M250.2,233.3c8.28-.32,16.69.54,24.95.82,2.75,0,5.48-.89,8.26-.82-2.76.6-5.33,1.77-8.17,2a119.44,119.44,0,0,1-25-2Z"/><path class="cls-1" d="M248.91,236c8,1.28,15.61,4.26,23.67,5.05-4,1-8.24,0-12.19-.85a54.66,54.66,0,0,1-11.48-4.2Z"/><path class="cls-1" d="M255.29,189.1c-4.76,4.45-8.8,10.22-3,15.7a7,7,0,0,0,2.24,1.57,5.43,5.43,0,0,1-2.72-1c-7.42-4.92-3.29-13.31,3.48-16.3Z"/><path class="cls-1" d="M287.75,185.71c7.21,3.48,10,12.61,2.51,17.52,5.2-6.62,2.81-12-2.51-17.52Z"/><path class="cls-1" d="M254.53,203.23c3.38-2.42,8.11-2.44,10.91,1,1.65,1.48,2.48,3.74,4.7,4.44,2.63,1.25,5.68.28,8.07-1.15,2.05-1.08,3.12-3.18,4.69-4.79.55-.49,1.35-1.16,2.11-.8-.77-.18-1.35.56-1.8,1.08-1.31,1.94-2.24,4.22-4.32,5.52-3.28,2.52-8.27,3.24-11.53.25-1.6-1.77-2.65-3.65-4.46-5.16-2.22-1.76-5.58-1.55-8.37-.36Z"/><path class="cls-1" d="M294.5,235.05a25.44,25.44,0,0,1-6.19,3.95,1.61,1.61,0,0,1-1,.06,1.67,1.67,0,0,0-.93.12,48.08,48.08,0,0,1-5.31,1.37l0-.26a17.13,17.13,0,0,0,5.17-1.54,1.54,1.54,0,0,0,.76-.55,1.76,1.76,0,0,1,.7-.64c2.23-.86,4.45-1.78,6.81-2.51Z"/><path class="cls-1" d="M173.57,160c.55,4.85-.36,10.25-3.57,14.16-4.45,5.09-11.73,5.9-17.62,8.48a6.86,6.86,0,0,0-3.53,3A6.75,6.75,0,0,1,152,182c4.25-2.4,9.06-3.62,13.27-6,5.8-2.92,7.8-9.85,8.29-16Z"/><path class="cls-1" d="M173,176.48c-.71,4-2.81,8.77-7.13,10-2.08.56-4.33.19-6.43,0a47.73,47.73,0,0,0-6.1-.53,17.64,17.64,0,0,0-11,4c-2.89,2.72-5.52,6.26-6.41,10.23.29-4.22,2.7-8.11,5.59-11.13a17.75,17.75,0,0,1,11.82-4.66c3.22,0,6.21.74,9.34,1,5.41,1,8.89-4.28,10.33-8.88Z"/><path class="cls-1" d="M135.07,253.51c-5.27-8.88-10-21-4.88-30.94a17.3,17.3,0,0,1,2.9-3.81A82.09,82.09,0,0,1,148,207.89c5-3.24,11.24-5.6,14.19-11-2.38,5.81-8.71,8.61-13.55,12.06a97.23,97.23,0,0,0-14.44,11,15.85,15.85,0,0,0-2.66,3.43c-4.86,9.53-.63,21.1,3.55,30.19Z"/><path class="cls-1" d="M131.2,222.23C124.35,206,134.32,198,148.2,192c3.87-1.86,8.19-3.08,11.22-6.27-2.54,3.61-6.94,5.34-10.7,7.37-13.33,6.71-22.14,12.68-17.52,29.15Z"/><path class="cls-1" d="M196.83,299.47c7.9,19.71,27.29,31.35,48.14,31.73,16.84.2,34.24-3.74,48.51-12.89A61,61,0,0,0,320.78,277c-1.66,15.39-10.19,29.8-22.33,39.44-15.11,11.62-34.65,16.64-53.53,16.21-21.1-.46-41-12.84-48.09-33.16Z"/><path class="cls-1" d="M186.65,308.81c16.6,26.31,45.77,38.51,76.16,32.18a117.49,117.49,0,0,0,31.09-11,71.6,71.6,0,0,0,9.2-6c8.59-6.86,16.78-14.7,22.13-24.4a32.16,32.16,0,0,0,3.62-10.41c-.78,7.45-4.76,14.15-9.24,20-7,8.63-15.31,16.51-25.05,22a117.68,117.68,0,0,1-31.46,11.32c-30.53,6.37-60.94-6.48-76.45-33.71Z"/><polygon class="cls-1" points="191.59 318.92 194.34 322.06 194.18 322.2 191.59 318.92"/><polygon class="cls-1" points="197.25 325.05 200.31 327.88 199.94 328.28 196.97 325.32 197.25 325.05"/><polygon class="cls-1" points="203.51 330.53 206.85 333 206.37 333.68 203.07 331.07 203.51 330.53"/><polygon class="cls-1" points="210.32 335.28 213.92 337.35 213.42 338.25 209.82 336.07 210.32 335.28"/><polygon class="cls-1" points="217.63 339.2 221.44 340.81 220.99 341.94 217.15 340.21 217.63 339.2"/><polygon class="cls-1" points="225.35 342.17 229.33 343.31 228.98 344.64 224.94 343.43 225.35 342.17"/><polygon class="cls-1" points="233.36 344.2 237.45 344.84 237.25 346.31 233.09 345.6 233.36 344.2"/><polygon class="cls-1" points="241.56 345.25 245.69 345.43 245.67 346.95 241.45 346.75 241.56 345.25"/><polygon class="cls-1" points="249.83 345.38 253.96 345.11 254.1 346.66 249.89 346.92 249.83 345.38"/><polygon class="cls-1" points="258.07 344.64 262.16 343.98 262.44 345.5 258.29 346.18 258.07 344.64"/><polygon class="cls-1" points="266.22 343.14 270.24 342.14 270.64 343.59 266.56 344.63 266.22 343.14"/><polygon class="cls-1" points="274.23 340.98 278.18 339.68 278.65 341.03 274.67 342.39 274.23 340.98"/><polygon class="cls-1" points="282.07 338.25 285.93 336.69 286.45 337.91 282.58 339.53 282.07 338.25"/><polygon class="cls-1" points="289.75 335.04 293.47 333.21 294.01 334.2 290.27 336.15 289.75 335.04"/><polygon class="cls-1" points="297.08 331.17 300.56 328.91 301.1 329.67 297.63 332.05 297.08 331.17"/><path class="cls-1" d="M303.9,326.44l3.22-2.64.47.54c-1,.92-2.09,1.85-3.17,2.75Z"/><polygon class="cls-1" points="310.27 321.06 313.31 318.21 313.58 318.48 310.64 321.46 310.27 321.06"/><polygon class="cls-1" points="316.23 315.24 319.03 312.13 319.03 312.13 316.39 315.38 316.23 315.24"/><path class="cls-1" d="M368.73,272.93c14.21,8.62,64.49,39.45,77.69,47.4,1.22.73,2.56,1.48,3.73,2.27a14.58,14.58,0,0,1,3.13,3.25c4.15,6,7,12.8,9.76,19.47,10.65,26.9,18.84,54.69,27.16,82.36,6.52,22.19,12.8,44.44,19,66.7a.58.58,0,0,1,0,.39,8.41,8.41,0,0,1-1.1,2c-6.33,8.3-15.91,13.34-24.93,18.16a326.7,326.7,0,0,1-61.66,22.5c-5.33,1.21-10.79,2.28-16.29,1.84-5.69-.3-10.18-4-14-7.91a43,43,0,0,0,6.29,5.24c7.23,4.38,16.13,2.09,23.85.35s16-4.78,23.46-7.34c12.78-4.56,25.74-9.51,37.78-15.73a111.73,111.73,0,0,0,17.27-10.78c2.83-2.32,5.69-4.77,7.6-7.91a5.34,5.34,0,0,0,.4-.79v.4c-6.29-22.24-12.64-44.47-19.21-66.63-8.28-27.66-16.34-55.43-26.91-82.3-2.75-6.63-5.44-13.34-9.48-19.27a13.28,13.28,0,0,0-2.81-3c-1.2-.89-2.45-1.45-3.66-2.26-25.69-15.81-51.64-32.28-77.12-48.35Z"/><path class="cls-1" d="M92.87,445.08c-.93,4.31-2.5,10.41-2.9,14.72-.28,2.46-.24,4.75,1.14,6.87a15,15,0,0,1,1.76,7.45c-.61-3.23-2.17-5.79-3.85-8.52-2.18-5.93,1.25-15.05,3.85-20.52Z"/><path class="cls-1" d="M97.61,469.38c-2.19,5.5-4.24,11.22-4.34,17.16.19,3.53.84,7.1,1.32,10.61,2.23,14.13,4.34,28.34,8,42.16,4.72,13.69,4.42,28.54,3.3,42.77.11-4.78.11-9.56-.09-14.33-.28-9.53-1.36-19-4.63-28-3.84-13.89-6-28.15-7.78-42.41-.39-3.6-.93-7.13-1-10.77.29-6,2.65-11.78,5.22-17.16Z"/><path class="cls-1" d="M99.53,531.8c-8.63,10.47-24.11,11.91-36.24,7.39-1.72-.71-3.43-1.44-5.1-2.23,1.81.46,3.55,1,5.33,1.5A65.75,65.75,0,0,0,73,540c9.47.73,19.34-1.83,26.58-8.21Z"/><path class="cls-1" d="M31.76,582.08c.62-5.79,3.24-31.5,3.78-36.59a33.22,33.22,0,0,0-.31-7.25q-.81-7.29-1.75-14.59l.22.33c-4.67-2.5-9.42-5.1-14-7.88A104.77,104.77,0,0,1,5.45,505.69c-3.1-3-6.42-6.3-7.47-10.63A5.63,5.63,0,0,1-.9,489.92c10-31.08,21.91-65.65,33.27-97.64,5.82-16.23,11.71-32.45,18.13-48.47,2.81-6.62,5.29-13.53,9.15-19.65,2.64-3.54,6.43-5.94,9.91-8.53,4.73-3.3,9.6-6.37,14.51-9.37,19.67-11.93,40-22.74,60.4-33.33-25.19,13.76-50.58,27.38-74.27,43.61-3.35,2.53-7.05,4.95-9.55,8.34l-.57.85-.51.93c-5.52,10.81-9.63,22.36-14,33.73-16.4,43.95-31.22,88.76-46.48,133,.19,4.15,3.25,7.53,6,10.36,1.24,1.35,3.34,3,4.73,4.22l2.54,1.91c6.8,5.1,14.28,9.28,21.72,13.37a.42.42,0,0,1,.23.32c.75,6.71,1.66,13.42,1.94,20.17-.66,6.8-3.73,31.29-4.52,38.37Z"/><path class="cls-1" d="M58.19,332c-1.1,15,1.7,31.55,12.32,42.88,10.4,12,11.42,29.59,8.35,44.54a74.35,74.35,0,0,0,.69-11.54c-.09-11.28-2.61-23.37-10.22-32-1.2-1.48-2.6-3-3.67-4.59-7.77-11.34-9.51-26-7.47-39.33Z"/><polygon class="cls-1" points="60.82 329.13 60.59 333.3 60.28 333.28 60.82 329.13"/><polygon class="cls-1" points="60.61 337.47 60.87 341.62 60.07 341.67 60.05 337.47 60.61 337.47"/><polygon class="cls-1" points="61.34 345.75 62.07 349.82 60.97 350.04 60.39 345.87 61.34 345.75"/><polygon class="cls-1" points="63.08 353.83 64.37 357.75 63.08 358.22 61.85 354.17 63.08 353.83"/><polygon class="cls-1" points="65.97 361.54 67.92 365.15 66.62 365.93 64.66 362.16 65.97 361.54"/><path class="cls-1" d="M70.21,368.55l1.31,1.57c.45.52.86,1,1.34,1.57l-1.16,1.05c-.45-.5-.91-1.08-1.36-1.62L69,369.48Z"/><polygon class="cls-1" points="75.52 375.04 77.74 378.69 76.4 379.4 74.25 375.92 75.52 375.04"/><polygon class="cls-1" points="79.53 382.55 80.9 386.57 79.57 386.97 78.17 383.11 79.53 382.55"/><polygon class="cls-1" points="81.91 390.69 82.55 394.87 81.41 395.02 80.63 390.96 81.91 390.69"/><polygon class="cls-1" points="82.9 399.07 82.99 403.28 82.15 403.29 81.91 399.14 82.9 399.07"/><polygon class="cls-1" points="82.8 407.48 82.36 411.66 82 411.62 82.18 407.45 82.8 407.48"/><polygon class="cls-1" points="81.66 415.79 81.49 416.55 81.6 415.78 81.66 415.79"/><path class="cls-1" d="M112.23,296.36c-1.19.73-2.4,1.43-3.6,2.13l-.22-.42C109.68,297.49,111,296.91,112.23,296.36Z"/><polygon class="cls-1" points="105.03 300.6 101.42 302.71 100.88 301.73 104.63 299.86 105.03 300.6"/><polygon class="cls-1" points="97.81 304.81 94.21 306.92 93.49 305.66 97.17 303.66 97.81 304.81"/><polygon class="cls-1" points="90.61 309.03 87.03 311.17 86.22 309.82 89.84 307.71 90.61 309.03"/><polygon class="cls-1" points="83.44 313.3 79.87 315.45 79.11 314.22 82.65 312 83.44 313.3"/><polygon class="cls-1" points="76.31 317.62 72.74 319.79 72.14 318.86 75.6 316.51 76.31 317.62"/><polygon class="cls-1" points="69.18 321.98 65.61 324.15 65.36 323.79 68.72 321.29 69.18 321.98"/><path class="cls-1" d="M151.42,274a631.51,631.51,0,0,0-78.5,43.19c-3.63,2.25-7.09,4.76-10.69,7.07q2.52-2,5.09-3.89A360.51,360.51,0,0,1,151.42,274Z"/><path class="cls-1" d="M176.58,127.21a6.3,6.3,0,0,1-.67,5.75,5.12,5.12,0,0,1,.67-5.75Z"/><path class="cls-1" d="M176.23,253.51A104.35,104.35,0,0,1,163.59,275c-1.23,1.62-2.8,3.21-4.14,4.7-4.56,4.51-3.29,11.68,0,16.62-2.74-3.17-4.6-7.46-3.93-11.76.56-4.45,4.41-7.17,6.87-10.54,5.09-6.49,9.43-13.57,13.87-20.55Z"/><path class="cls-1" d="M172.91,309.11c-5,1.43-9.46-2-11.88-6.2-1.21-2.13-2.84-4.3-2.48-6.93,1.25-6.05,7.54-9.72,12.49-12.6,4.92-2.6,10.63-5.9,12.2-11.63-.83,6.06-6.58,10-11.53,12.83-4.42,2.8-10.4,6.27-11.7,11.61-.36,2.16,1.16,4.22,2.07,6.1,2.14,4.16,5.86,7.53,10.83,6.82Z"/><path class="cls-1" d="M192.66,303.36a24.74,24.74,0,0,0,8.88-18.45,124.42,124.42,0,0,0-.93-16c-.06-1.54-.69-3.93,0-5.39-.37,1.5.52,3.76.78,5.26,1.29,6.2,2.19,12.62,1.49,19a21.53,21.53,0,0,1-10.2,15.63Z"/><path class="cls-1" d="M345.15,126.52c.46,15.44.9,31-.83,46.37a28.7,28.7,0,0,1-.59,3.13,66,66,0,0,0-2,12c-.67,5.09-.19,10.4-1.78,15.4-.57,1.95-1.91,6.91-2.45,8.92-1.12,4-2.19,7.94-3.36,11.89.83-4,1.74-8.05,2.61-12.08l1.4-6,.74-3a16.59,16.59,0,0,0,.64-2.92c.58-8.12.45-16.5,2.65-24.64a76.33,76.33,0,0,0,1.44-12.08c.78-11.87,1.06-25,1.49-37Z"/><path class="cls-1" d="M346.73,116.33c7.17,7.91,13.64,17.33,14.94,28.23A60.31,60.31,0,0,1,360,159.21c-.55,2.54-1.22,5-1.78,7.56s-1.13,5.12-.25,7.59c-1.22-2.36-.8-5.19-.5-7.72.79-5.13,1.93-10.16,2.41-15.31a32,32,0,0,0,.15-7.57c-1.48-10.12-7.4-19.17-13.26-27.43Z"/><path class="cls-1" d="M352.59,161.46a16.29,16.29,0,0,0,6.87,13.59,25.89,25.89,0,0,0,5,2.82c2.27.93,4.74,1.48,6.87,3.1,4.23,3.19,5.35,9.05,4.25,14a8.32,8.32,0,0,1-1,2.79,13.92,13.92,0,0,0,.66-5.76c-.39-6.49-3.65-10.44-9.94-12.13a24.82,24.82,0,0,1-5.41-2.75c-5.12-3.31-8.43-9.6-7.23-15.63Z"/><path class="cls-1" d="M232.45,220.46a6.81,6.81,0,0,0-3.86,7.51,3.83,3.83,0,0,0,.84,2.42l-.27.19.87-2.1a.37.37,0,0,1,.66,0L232,230.5l-.57-.14,3.79-2.47a.47.47,0,0,1,.58.05l1.52,1.36-.51-.11,6.13-2.23a.39.39,0,0,1,.18,0l2.35,0-.21,0,5.31-2a.66.66,0,0,1,.65.1l2.52,1.92-.65-.12,4.46-1.43a.8.8,0,0,1,.59.06l2.53,1.39-.36-.09,5.15,0-.25,0,2.17-.73c.28-.21,2.2.61,2.67.72l-.25,0h6.32l-.19,0,2.83-.72a22.06,22.06,0,0,1,3.21.74l-.52.05,2.5-1.22a.74.74,0,0,1,.58,0l3.49,1.26-.84.27,1.35-1.93a.71.71,0,0,1,1-.18l.12.11,1.76,1.94-.51-.22,4.72,0-.22,0,1.64-.54a.62.62,0,0,1,.3,0l3.86.61h-.09l3.67.05-.23.05,2.18-1a.49.49,0,0,1,.54.08l3.46,3.26h-.57l2.37-2.1c1.47-3.76,1.47-9.49-2.25-12.79a10.39,10.39,0,0,1,2.28,2.7,12.6,12.6,0,0,1,.46,10.62L310.69,230a.42.42,0,0,1-.57,0l-3.54-3.16.54.08L305,228a.48.48,0,0,1-.23,0l-3.67.06H301l-3.87-.51.29,0-1.62.59a.52.52,0,0,1-.21,0l-4.72,0a.66.66,0,0,1-.52-.22l-1.78-1.92,1.11-.08-1.33,1.95a.71.71,0,0,1-.84.27L284,227l.58,0-2.49,1.23a.76.76,0,0,1-.53.06l-2.83-.73h.38l-2.83.74a.63.63,0,0,1-.19,0h-6.32a.73.73,0,0,1-.25,0l-2.17-.73h.49c-.1,0-2.38.83-2.41.76h-5.15a22.14,22.14,0,0,1-2.89-1.5l.58.06-4.49,1.36a.7.7,0,0,1-.64-.12l-2.49-2,.66.1-5.37,1.89a.45.45,0,0,1-.2,0l-2.33,0,.2,0-6.2,2.06a.48.48,0,0,1-.51-.11l-1.48-1.4.58.06-3.86,2.36a.41.41,0,0,1-.58-.14l-1.21-2.11.66,0-1,2.07a.26.26,0,0,1-.27.19.79.79,0,0,1-.57-.27,4.64,4.64,0,0,1-.8-2.74,9.52,9.52,0,0,1,.21-3.14,7,7,0,0,1,4.14-4.42Z"/><path class="cls-1" d="M262.73,211.86a16.28,16.28,0,0,1-2.45,9.82,16.24,16.24,0,0,1,2.45-9.82Z"/><path class="cls-1" d="M281.08,212.53a14.17,14.17,0,0,1,2.33,9.15,14.19,14.19,0,0,1-2.33-9.15Z"/><path class="cls-1" d="M242.76,221.68a4.66,4.66,0,0,1-.82,5.15,4.66,4.66,0,0,1,.82-5.15Z"/><path class="cls-1" d="M236.41,221.85a4.67,4.67,0,0,1-1.36,5,4.66,4.66,0,0,1,1.36-5Z"/><path class="cls-1" d="M241.5,221.68a4.66,4.66,0,0,1-.82,5.15,4.66,4.66,0,0,1,.82-5.15Z"/><path class="cls-1" d="M239.14,221a7.81,7.81,0,0,1-1.47,6.74,7.81,7.81,0,0,1,1.47-6.74Z"/><path class="cls-1" d="M248.91,246.59c-.32.77-.63,1.54-1,2.29l-.16-.26,1.86-.11a.28.28,0,0,1,.29.26c.05.86.11,1.73.14,2.59l-.59-.4,1.15-.51a.44.44,0,0,1,.52.1c1.07,1.16,2.11,2.36,3.17,3.54l-.18-.16,2.82,1.46a.67.67,0,0,1,.37.62l0,1.75-1.34-.45,2.77-3.74a.78.78,0,0,1,1.32.13l.88,1.86a12.29,12.29,0,0,1,.06,2.2l-.29-.61c1,.79,2,1.56,2.94,2.36l-1,.11,1.07-1.26a.69.69,0,0,1,.77-.21c1.16.44,2.31.9,3.46,1.37l-.68.19,1.05-1.25a.53.53,0,0,1,.61-.18l3.74,1.45-.42.12,2.6-3a.13.13,0,0,1,.2,0l1.18,1.26L274.89,257l.2,0-2.21,3.29a.37.37,0,0,1-.42.13l-3.85-1.12.6-.18-1,1.31a.58.58,0,0,1-.64.21c-1.19-.39-2.38-.79-3.56-1.21l.77-.21-1,1.3a.7.7,0,0,1-1,.13c-1-.75-2-1.54-3-2.31a.75.75,0,0,1-.29-.59V255.9l.07.33-.87-1.86,1.32.13-2.83,3.72a.74.74,0,0,1-1.32-.46l0-1.75.37.63-2.76-1.57c-1.11-1.2-2.06-2.58-3.09-3.86l.56.13-1.19.42h0a.41.41,0,0,1-.53-.26c0-.89.08-1.81.11-2.71l.29.29s-1.87-.11-1.88-.11a.17.17,0,0,1-.16-.18c.38-.76.89-1.47,1.32-2.21Z"/><path class="cls-1" d="M297.21,244.38c-.34,2.29-.81,4.54-1.32,6.79a.56.56,0,0,1-.67.41l-.09,0-1.89-.61.9-.63.06,2.1a.72.72,0,0,1-.92.7c-1.25-.31-2.49-.67-3.74-1l1-.54c-.43,1.53-.87,3.05-1.34,4.56a.71.71,0,0,1-1.22.25l-1.13-1.31.78.16c-1,.41-1.93.78-2.9,1.18a.52.52,0,0,1-.67-.29,8.49,8.49,0,0,1,.05-1.5l.67.39c-.8.39-1.61.75-2.42,1.12a.23.23,0,0,1-.29-.1c-.32-.66-.65-1.32-.95-2,.47.57.92,1.15,1.37,1.73l-.33-.08c.73-.49,1.44-1,2.18-1.46a.44.44,0,0,1,.6.13,8.56,8.56,0,0,1,.16,1.55l-.76-.49c.91-.47,1.81-1,2.73-1.41a.66.66,0,0,1,.78.16l1.2,1.25-1.24.29c.39-1.53.81-3,1.23-4.56a.77.77,0,0,1,.95-.53c1.24.36,2.49.71,3.72,1.1l-.92.7.06-2.1a.64.64,0,0,1,.66-.67,20.31,20.31,0,0,1,2.07.83l-.76.38c.74-2.18,1.52-4.34,2.43-6.47Z"/><path class="cls-1" d="M266.8,247.87a5.06,5.06,0,0,1,0,5.47,5.1,5.1,0,0,1,0-5.47Z"/><path class="cls-1" d="M264.63,251.83a1.38,1.38,0,0,1-.46,2.44,1.38,1.38,0,0,1,.46-2.44Z"/><path class="cls-1" d="M268.78,252.41a2.33,2.33,0,0,1,0,3.49,2.33,2.33,0,0,1,0-3.49Z"/><path class="cls-1" d="M259.28,249.15c.86.68.63,1.42-.47,1.45-.87-.67-.62-1.41.47-1.45Z"/><path class="cls-1" d="M192.66,200.15c.29,3.51.35,7.17,1.34,10.56a1.59,1.59,0,0,0,.37.66s0,0,0,0,0,0,0,0l.19-.05c2.16-.34,2.67,2.7,3,4.24l-.39-.51,2.74,1.08a.66.66,0,0,1,.3.24l2.87,4.22-.45-.32,6.26,1.56c.79.21.67,1.29.69,1.87a7.16,7.16,0,0,0,0,3l-.63-.59,5.46.89a.71.71,0,0,1,.6.6l.84,5.58-.46-.51,5.53,1.6h-.29l2.11-.66h0a2.67,2.67,0,0,1,2.26,2.21c0,.52,0,.93,0,1.4l-.06,1.37-.15-.19a8.87,8.87,0,0,0,3.63.19,8.15,8.15,0,0,1-3.71.19.18.18,0,0,1-.15-.17c-.08-.8-.05-2-.14-2.73s-.91-1.22-1.65-1.46h.26a13.19,13.19,0,0,1-2.35.82l-5.61-1.33a.61.61,0,0,1-.46-.51l-1-5.55.61.59-5.47-.8c-.82-.15-.7-1.16-.81-1.77-.18-1,.3-2.16.07-3.07l.56.54-6.26-1.62a.77.77,0,0,1-.43-.32L199,217.14l.31.26-2.71-1.18a.64.64,0,0,1-.39-.51,10.38,10.38,0,0,0-.4-2c-.19-.61-.54-1.25-.86-1.37a2.27,2.27,0,0,0-.63,0c-2.45-.23-1.67-10.18-1.65-12.24Z"/><path class="cls-1" d="M312,236c.76,2.43,1.46,4.88,2.12,7.34l-.9-.05c.47-1.58,1-3.15,1.48-4.72a.57.57,0,0,1,.32-.36c1.79-1,3.59-1.94,5.4-2.88L320,236V233.3a.75.75,0,0,1,.45-.7c1.2-.54,2.41-1,3.61-1.55l-.46.7c0-1.65,0-3.3.06-5,.43-1.07,1.82-2.29,2.54-3.3.41-.84,1.59-3,2.27-4.24.64-.89,1.32-1.76,2-2.64.89-.73,1.81-1.44,2.73-2.14-.78.84-1.58,1.66-2.38,2.48a56,56,0,0,0-3.56,7.19c-.74,1.06-1.54,2.08-2.31,3.12l.15-.43c0,1.64.05,3.28.06,4.92a.77.77,0,0,1-.46.71c-1.2.52-2.4,1-3.6,1.55l.47-.71,0,2.74a.73.73,0,0,1-.42.66c-1.82.92-3.66,1.8-5.5,2.69l.32-.36c-.6,1.53-1.19,3.08-1.81,4.6a.47.47,0,0,1-.91,0c-.44-2.51-.85-5-1.2-7.55Z"/><path class="cls-1" d="M188.61,208.41c.16,1.87.46,4.39.55,6l1.42,2.6a.25.25,0,0,1,0,.19l-.89,3.93-.23-.46,1.71.65a.4.4,0,0,1,.25.45c-.16,1.55-.32,3.15.6,4.46.29.55.87.9,1.14,1.43l1.44,6.27-.62-.5,1.57,0a.64.64,0,0,1,.64.49l1.3,4.76-.68-.52,3.28,0a.74.74,0,0,1,.68,1l-2.58,6.28-.32-1,2.61,1.51a.76.76,0,0,1,.34.41l1.41,4-.41-.45,2.62,1.22a.74.74,0,0,1,.38.4c.81,1.87,1.94,4.5,2.62,6.39l-.71-.49h2.09a.74.74,0,0,1,.76.75l0,3.67-.4-.65,3.3,1.68a.67.67,0,0,1,.36.43c.62,2.24,1.24,4.5,1.84,6.75l-.59-.44,1.77,0a.39.39,0,0,1,.18,0l4.16,1.59a.44.44,0,0,1,.27.23l1.19,2.21-.17-.17c1.73,1,3.47,2.07,5.19,3.14l0,0,1.77,1.7a.26.26,0,0,1,.08.26l-.84,2.95-.19-.24,3.84.11h0l1.88,1.12-2-1h0l-3.84.11a.19.19,0,0,1-.19-.24l.68-3,.08.28-1.85-1.59c-1.49-.85-3.79-1.94-5.41-3.06L219.58,272l.27.23-4.22-1.46.2,0-1.75,0a.59.59,0,0,1-.57-.42c-.69-2.24-1.36-4.49-2-6.73l.35.43-3.33-1.62a.73.73,0,0,1-.4-.64l0-3.68.75.75h-2.09a.75.75,0,0,1-.7-.48c-.43-1.06-.8-2.14-1.27-3.18l-1.36-3.15.38.4-2.62-1.22a.79.79,0,0,1-.41-.45l-1.38-4,.34.41-2.6-1.52a.75.75,0,0,1-.32-1l2.63-6.26.67,1-3.28,0a.68.68,0,0,1-.67-.52l-1.22-4.79.63.49-1.57,0a.64.64,0,0,1-.62-.5l-1.23-6.32.16.28a6.12,6.12,0,0,1-1.79-3.08,11.28,11.28,0,0,1,.1-3.44l.26.45-1.69-.7a.37.37,0,0,1-.22-.45l1.1-3.88,0,.2-1.28-2.68c-.13-2-.14-4.09-.2-6.14Z"/><path class="cls-1" d="M242.76,287.63c1.72.87,3.43,1.77,5.14,2.67h-.23l3.19-1.56a.37.37,0,0,1,.52.27l1.05,4.36-.65-.36c2.89-1,5.72-2.4,8.65-3.14l6.56,1.63-.88.43,1.27-3a.76.76,0,0,1,1.15-.32l4.5,3.21-.8-.06,3.69-1.86a.78.78,0,0,1,.54-.06q3.57.94,7.13,1.93l-.88.68,0-3.22a.67.67,0,0,1,.86-.64L288,290l-.68.3,1.44-2.87a.47.47,0,0,1,.43-.26l4.83.12-.12,0,3.28-.92h.08l2.51.09-.15.15.15-3.16.15,3.16a.14.14,0,0,1-.13.15l-2.53.1c.46-.12-3.27,1.19-3.13,1.15a.23.23,0,0,1-.11,0l-4.83.12.45-.29-1.29,2.92a.57.57,0,0,1-.68.3l-4.4-1.22.86-.64,0,3.22a.71.71,0,0,1-.69.71c-2.47-.54-4.91-1.22-7.36-1.84l.54-.06-3.68,1.89a.77.77,0,0,1-.8-.06l-4.5-3.24,1.15-.32-1.28,3a.75.75,0,0,1-.89.43l-6.5-1.77.39,0c-2.79,1-5.59,1.85-8.39,2.77a.47.47,0,0,1-.62-.29l0-.06-.83-4.42.53.27-3.3,1.32a.22.22,0,0,1-.22,0c-1.64-1-3.27-2-4.89-3.1Z"/><path class="cls-1" d="M302.22,281c1.11-.05,2.22-.12,3.33-.16l-.16.16-.16-4a.3.3,0,0,1,.29-.32q1.89-.09,3.78-.12l-.39.23,2.6-5.29,0,0c.93-1.53,1.86-3.06,2.81-4.57a.68.68,0,0,1,.56-.32s2.92-.05,2.93,0l-.72.72c0-.14-.1-4,0-4l1.24-3.42a.61.61,0,0,1,.07-.14q1.74-2.91,3.52-5.81a.77.77,0,0,1,.62-.37l2.3-.11-.72.76,0-4.27a.73.73,0,0,1,.73-.73l2.08,0-.7.7c0-1.47,0-2.93.07-4.4a.61.61,0,0,1,.4-.55l2.94-1.06-.35.51.13-5.57c1-1.72,2.41-3.24,3.54-4.89.22-1,.8-2.95,1.16-4.25-.27,1.49-.48,3-.81,4.48-1,1.63-2.06,3.28-3.12,4.9l.07-.24.14,5.57a.55.55,0,0,1-.35.52l-2.89,1.21.4-.59c0,1.45.05,2.9.07,4.36a.69.69,0,0,1-.7.7l-2.08,0,.72-.72,0,4.27a.76.76,0,0,1-.72.76l-2.3.13.62-.37c-1.06,1.73-2.65,4.45-3.46,5.68l-1.27,3.41,0-.26,0,3.75a.71.71,0,0,1-.72.71l-2.91,0,.57-.32c-.93,1.44-2.1,3.17-2.95,4.42l-2.86,5.16a.4.4,0,0,1-.38.23c-1.25,0-2.5-.06-3.75-.11l.32-.32-.16,4a.17.17,0,0,1-.16.17c-1.11,0-2.22-.11-3.33-.17Z"/><path class="cls-1" d="M324.39,260.08c-1.3,5.89-4.38,16.58-1.32,21.91a4,4,0,0,0,1.87,1.48,64.22,64.22,0,0,1,7.77,3.92c2.13,1.35,8.52,5.08,8.06,7.85,0-2.58-6.55-5.54-8.65-6.78-2.54-1.3-5.13-2.5-7.76-3.58a5.34,5.34,0,0,1-2.06-1.36c-4.51-5.6-.36-17.49,2.09-23.44Z"/><path class="cls-1" d="M383.54,237.73c1.25-5.85-1.05-12-4.14-17-2.13-3.48-5.34-5.81-8.22-8.68a45.83,45.83,0,0,1-7.37-9.81c-.9-1.81-2-3.64-2.24-5.68a20.29,20.29,0,0,0,2.89,5.28,67.21,67.21,0,0,0,12.27,13.23c5.58,5.39,9.64,15.06,6.81,22.62Z"/><path class="cls-1" d="M366.3,221.68c8.52,3,19.15,9.68,18.21,20.06a17.16,17.16,0,0,1-4.31,10.64c-1.06,1.41-3.16,2.56-3.19,4.45-.32-2,1.71-3.38,2.59-4.92A18,18,0,0,0,383,241.66c.65-9.66-9.33-15.79-16.73-20Z"/><path class="cls-1" d="M400.71,496.57c-1.88,10.91-4,21.73-7.46,32.29-1,2.69-2.47,4.58-3.22,7.55-2.37,7.88-4.34,15.93-6,24A137.18,137.18,0,0,1,386.62,544,68.94,68.94,0,0,1,390,532a21.56,21.56,0,0,0,1.74-3.66c3.43-10.23,5.94-21.36,8.94-31.75Z"/><path class="cls-1" d="M463.79,523c-.16,12.33-.94,24.63-1,37-.1,7.42,1.42,14.71,1,22.13-.46-4.92-1.2-9.79-2-14.65a90.72,90.72,0,0,1-.52-14.9A278,278,0,0,1,463.79,523Z"/><path class="cls-1" d="M210.47,146.57c9.53-9,25.39-13.71,36.72-5.16a32.4,32.4,0,0,1,8.71,9.92,40.7,40.7,0,0,0-9.4-8.91c-11.23-7.63-25.77-3.13-36,4.15Z"/><path class="cls-1" d="M226.52,146.12a7.17,7.17,0,0,0,6,7.06.24.24,0,0,1,0,.47,30.71,30.71,0,0,1-9.54-1.2c-2.29-.76-5.14-2-5.89-4.66a4,4,0,0,1,.29-2.87l-.09.36a.79.79,0,0,1,.25-.6,27.1,27.1,0,0,1,7-4.4,20.28,20.28,0,0,1,8-1.72.24.24,0,0,1,0,.48,7.2,7.2,0,0,0-6,7.08Zm0,0a7.84,7.84,0,0,1,5.9-7.55l.06.47a19.4,19.4,0,0,0-7.52,2.28,35.53,35.53,0,0,0-6.4,4.47l0,0a5.07,5.07,0,0,1,.22-.53c-1.37,3.16,2,4.94,4.58,6a30.2,30.2,0,0,0,9.1,1.91l-.06.46a7.79,7.79,0,0,1-5.86-7.52Z"/><path class="cls-1" d="M251.28,152.05c-2.56-.54-5.21-.08-7.76.33s-5.1,1.1-7.72,1.45a.46.46,0,0,1-.19-.9c6.22-1.77,6.87-10.51.93-13.1a.68.68,0,0,1,.41-1.3,20.42,20.42,0,0,1,8.22,4.6,42.18,42.18,0,0,1,6.13,7c.27.48,1.14,2.13,0,1.89Zm0,0c1.2.23.17-1.52,0-1.91a28.68,28.68,0,0,0-10.35-8.89,19.22,19.22,0,0,0-4.25-1.39l.41-1.29c7.41,2.77,6.57,13.7-1.2,15.25l-.15-.91c5.15-.18,10.42-1.76,15.57-.86Z"/><path class="cls-1" d="M252.58,153.29a35.83,35.83,0,0,0-5.27-.3c-.09-.05-.17-.22-.26-.17-.83,0-1.68.06-2.51.14-2.6.24-5.36,1.1-8,1.37a36.61,36.61,0,0,1-16.71-1.47,25.48,25.48,0,0,1-4.7-2.22,2.15,2.15,0,0,1-.4-3.34c.1-.1.87-.89,1-1,.65-.57,1.28-1.51,2.18-1.77a.66.66,0,0,0-.51.21l1.24.92c-1.25,3.16,2.75,4.89,5.24,5.77a32,32,0,0,0,9.75,1.48c5,.1,10-1.46,15-1.32a10.92,10.92,0,0,1,2.54.33c.2,0,.38.08.45,0,.15-.52-.24-1.18-.47-1.67a.08.08,0,0,1,0-.12.08.08,0,0,1,.09,0c.36.56.72,1.12,1.09,1.66l.55.83a.42.42,0,0,1-.4.67Zm0,0a.41.41,0,0,0,.38-.66c-.57-.78-1.14-1.65-1.73-2.42l.12-.07a5.44,5.44,0,0,1,.55,1.17c.2.61,0,1.05-.72.86-2.46-.46-5,0-7.45.38-3,.49-7.06,1.41-10,1.41-5,.23-19.11-1.37-16.38-9l1.24.92a.93.93,0,0,1-.59.25l.49-.18c-.52.46-1.05,1-1.57,1.49l-.78.78c-.34.33-.33.34-.39.53-.1.48.44.72.78.94a31.86,31.86,0,0,0,22.08,4.27,38.74,38.74,0,0,1,8.49-1.1c.09.05.17-.12.26-.16a27.49,27.49,0,0,1,5.27.63Z"/><path class="cls-3" d="M215,148.23l.33-.36a1.37,1.37,0,0,0,.21,2.07l-.35-.23A1,1,0,0,1,215,148.23Z"/><path class="cls-3" d="M217.05,146.12c-.71.67-1.3,1.27-1.76,1.75C215.73,147.39,216.32,146.79,217.05,146.12Z"/><path class="cls-3" d="M218,145.3s0,0,0,0v0Z"/><path class="cls-1" d="M241.46,146.12a7.88,7.88,0,0,1-5.69,7.55s-3.35.22-3.38.21c-8.8-1.46-8.79-14,0-15.54a15.82,15.82,0,0,1,4.5.62,7.9,7.9,0,0,1,4.58,7.16Zm0,0a7.1,7.1,0,0,0-4.75-6.69,17.73,17.73,0,0,0-4.14-.17,7.11,7.11,0,0,0-.12,13.68l3.29.13a7.17,7.17,0,0,0,5.72-6.95Z"/><circle class="cls-1" cx="233.99" cy="145.73" r="4.06"/><circle class="cls-4" cx="229.65" cy="147.16" r="0.6"/><circle class="cls-4" cx="230.66" cy="143.84" r="1.8"/><path class="cls-1" d="M329.81,146.29c-10.69-6.29-24.79-9.76-35.91-2.72a39.77,39.77,0,0,0-9.35,8.57,31.28,31.28,0,0,1,8.68-9.59c11.13-7.92,26.58-4.31,36.58,3.74Z"/><path class="cls-1" d="M313.74,146a7.79,7.79,0,0,1-5.61,7.72l-.07-.46a29.89,29.89,0,0,0,9-2.21c2.52-1.13,5.86-3,4.38-6.14,0-.09.24.54.24.52l0,0a36.71,36.71,0,0,0-6.55-4.25,19.43,19.43,0,0,0-7.59-2l0-.48a7.83,7.83,0,0,1,6.15,7.35Zm0,0a7.2,7.2,0,0,0-6.23-6.87.24.24,0,0,1,0-.48,20.35,20.35,0,0,1,8.07,1.45,26.84,26.84,0,0,1,7.13,4.17.75.75,0,0,1,.28.57c0,.1-.1-.36-.1-.34,2,3.76-2.26,6.79-5.35,7.72a31.22,31.22,0,0,1-9.49,1.51.24.24,0,0,1-.05-.47,7.18,7.18,0,0,0,5.72-7.26Z"/><path class="cls-1" d="M289.19,152.72c5.11-1.08,10.44.33,15.59.34l-.12.91c-7.82-1.29-9-12.19-1.7-15.2l.45,1.28a18.9,18.9,0,0,0-4.2,1.53,28.4,28.4,0,0,0-10,9.23c-.2.4-1.15,2.17,0,1.91Zm0,0c-1.16.28-.32-1.42-.08-1.89a42.4,42.4,0,0,1,5.89-7.24,20.43,20.43,0,0,1,8.06-4.86.68.68,0,0,1,.45,1.28,7,7,0,0,0,1.37,13.06.46.46,0,0,1-.16.91c-2.63-.26-5.18-.81-7.76-1.19s-5.23-.7-7.77-.07Z"/><path class="cls-1" d="M287.93,154a28.36,28.36,0,0,1,5.25-.8c.09,0,.18.21.26.16a38.3,38.3,0,0,1,8.53.81,31.79,31.79,0,0,0,21.92-5c.32-.22.87-.48.75-1,0-.24-1-1-1.21-1.27-.54-.53-1.08-1-1.62-1.44l.5.16a.88.88,0,0,1-.6-.23l1.21-1c3,7.57-11.06,9.65-16.07,9.58-3,.1-7.13-.69-10.1-1.07-2.47-.29-5-.68-7.46-.14-.19,0-.51.15-.72-.13a1,1,0,0,1,0-.7,5.55,5.55,0,0,1,.51-1.2l.12.08c-.38.54-.75,1.09-1.11,1.64l-.54.83a.41.41,0,0,0,.4.64Zm0,0a.42.42,0,0,1-.42-.65l.52-.84c.36-.45.77-1.48,1.13-1.73,0,0,0,.08,0,.12-.22.49-.58,1.17-.41,1.68.06.09.25.05.44,0a11,11,0,0,1,2.53-.41c5-.31,10.11,1.08,15.08.83a32.41,32.41,0,0,0,9.7-1.81c2.45-1,6.4-2.83,5-6l1.21-1a.68.68,0,0,0-.51-.19c.91.24,1.56,1.15,2.23,1.7l1,1a2.15,2.15,0,0,1-.3,3.35,24.9,24.9,0,0,1-4.62,2.37,36.65,36.65,0,0,1-16.65,2c-2.61-.19-5.39-1-8-1.11-.83-.05-1.68-.07-2.52-.05-.09,0-.16.12-.25.17a37.25,37.25,0,0,0-5.26.47Z"/><path class="cls-3" d="M325.37,147.69l-.35-.34a1.36,1.36,0,0,1-.14,2.07l.35-.24A1,1,0,0,0,325.37,147.69Z"/><path class="cls-3" d="M323.21,145.65c.73.65,1.33,1.23,1.81,1.7C324.57,146.88,324,146.3,323.21,145.65Z"/><path class="cls-3" d="M322.28,144.87s0,0,0,0v0Z"/><path class="cls-1" d="M298.81,146.46a7.16,7.16,0,0,0,5.95,6.76L308,153a7.11,7.11,0,0,0-.57-13.67,18,18,0,0,0-4.13.31,7.1,7.1,0,0,0-4.53,6.84Zm0,0a7.9,7.9,0,0,1,4.34-7.3,15.77,15.77,0,0,1,4.48-.77c8.84,1.2,9.25,13.82.48,15.53l-3.37-.1a7.88,7.88,0,0,1-5.93-7.36Z"/><circle class="cls-1" cx="306.27" cy="145.83" r="4.06"/><circle class="cls-4" cx="310.65" cy="147.11" r="0.6"/><circle class="cls-4" cx="309.53" cy="143.82" r="1.8"/><path class="cls-1" d="M286,160c5.74,4.29,10.87,9.2,17.07,12.84-7-1.59-13-7.09-17.07-12.84Z"/></g></svg>