<svg xmlns="http://www.w3.org/2000/svg" viewBox="0 0 518.16 538.06"><defs><style>.cls-1,.cls-4{fill:#1d1d1b;}.cls-2,.cls-3{fill:none;}.cls-2,.cls-3,.cls-4{stroke:#1d1d1b;stroke-width:1.47px;}.cls-2,.cls-4{stroke-miterlimit:10;}.cls-3{stroke-linejoin:round;}.cls-5{fill:#fff;}</style></defs><g id="Vazgon"><path class="cls-1" d="M250.46,109.29a8.63,8.63,0,0,1,.28-7.05,8.63,8.63,0,0,1-.28,7.05Z"/><path class="cls-1" d="M250.06,114a14.48,14.48,0,0,1-.46-9.26,14.61,14.61,0,0,1,.46,9.26Z"/><path class="cls-1" d="M249.33,115.3a28.21,28.21,0,0,1-.89-12.94,27.94,27.94,0,0,1,.89,12.94Z"/><path class="cls-2" d="M251,114.94a1.74,1.74,0,0,1-.44-1.44l1.17-10.22.27,2.35.38-1.58.21.78s8.4-7.34,14.8-7.77c6-.4,19.42-.08,21,0a.8.8,0,0,1,.3.06c1,.44,7,3.06,7.73,4.15s5.22,8.75,5.78,9.69a1.36,1.36,0,0,1,.1.21l1.16,2.85s-15.43-5.81-22.53-5-23.75,4.52-26,6.48C253.34,116.79,251.78,115.71,251,114.94Z"/><path class="cls-1" d="M244.64,172s-6.07-.1-6.08-.1l-4-1.2c.18,0-3.94-.28-3.66-.27l-7.68,2-.19,0-.08-.18-1.46-3.13.32.15-2.22.57.12-.06s-3.17,2.77-3.17,2.78L213.09,175l.11-.13-2.34,4.33-.18.32-.34-.14L207,178l.59-.35-.41,3.45,0,.17-.13.11-3.85,3.49.13-.18-3.06,7.46,0-.33,1.67,6.54,0-.1,4.06,8.82-1.19.3-.42-6.4,0-.3.23-.21,2.1-1.92-.17.28a9.57,9.57,0,0,1,.42-1c.73-1.62,2.09-1.94,2.71-.07h0s0,0,0,0l-.08-.07a.63.63,0,0,0-.43-.09.54.54,0,0,0-.41.28,25.44,25.44,0,0,0,.09-4.29c0-.08,2.27-2.93,2.34-3.06l.13-.07,3-1.59.11-.06h.13l2.09-.25h.14c.83.22,2,.69,2.78.4a26,26,0,0,1,4.63-2.82,13,13,0,0,0,1.66-.58,2.83,2.83,0,0,0,.79-.5,16,16,0,0,1,1.88-3.45l.59-.89.59.9,1.73,2.63-.91-.26,3.65-1.74c.6-.37,2.3-1.27,3.42-.55.5.32.41.59,1.11.51a2.14,2.14,0,0,1,1.08.18s-.07,0-.1,0,0,0,0,0a9.63,9.63,0,0,0,2.59-2.14l.25,0,2.7-.39-.07,0c.82-.33.59-1.4,1.2-1.92,1.33-.87,2.88.51,3.93,1.22l-.34-.15,2.89.4-.52.14a16,16,0,0,1,2.7-1.63,1.28,1.28,0,0,1,.94-.09c.67.28.84.92,1.15,1.41a8.8,8.8,0,0,0,1.67,2.56,7.78,7.78,0,0,1,.94-.77,9.31,9.31,0,0,1,4.57-.35c1.72.27,3.1,1.55,4.41,2.6l-.67-.13,2.37-.85.44-.16.31.36a3.06,3.06,0,0,0,2.17,1.26,17.69,17.69,0,0,1,2-.71c1.41-.24,2.56.83,3.32,1.83l-.92-.15a10.55,10.55,0,0,1,2.42-1.48,1.16,1.16,0,0,1,.47,0c1.2.45,1.56,1.38,2.27,2.29l-.11-.13a11.54,11.54,0,0,0,3.8,2.46h0a.32.32,0,0,0-.14,0,.58.58,0,0,0-.28.16.57.57,0,0,0-.16.44,5.26,5.26,0,0,1,0-3.46c1.4-2.21,3.56,1.6,4.31,2.7.45.65.94,1.31,1.42,2,.77,1.21,1.87,1.81,2.49,3.22a11.49,11.49,0,0,1,.18,1.14.48.48,0,0,0-.29-.27.54.54,0,0,0-.59.18c.16-.88.35-3.07.43-4.27,0-.32,0-.51.36-.75a.62.62,0,0,1,.53,0c.68.36.77.77,1.19,1.28.72,1,1.54,2.5,2,3.33l1.06,1.4.53.71.27.36.14.2.06.11a.46.46,0,0,1-.76.48c-.61-.72-.34-1.49-.23-2.24a15.27,15.27,0,0,1,.52-1.75l0,.14.11-3.08v.08l-.89-5.13c-.2-1.19-.57-3.31-.77-4.48s-1.28-1.51-2.06-2.17a34.19,34.19,0,0,0-2.92-2.62,19.34,19.34,0,0,1-2.07-3.39l.18.11c-1.72-.13-3.62-.13-5.13-1.1-.31-.29-.44-.53-.76-.64-.59-.3-1.58.18-2-.52-.69-1.17-2.43-1.19-3.67-1.31l-4.17-.23-1.38-2.18s1.48,2.21,1.39,2.13l4.17.13c1.31.09,3.1.1,3.86,1.33.41.57,1.3.07,1.91.39s.82.87,1.72,1.08a15.93,15.93,0,0,0,4.19.51,19.32,19.32,0,0,0,2.13,3.34c1.22.83,2.26,2,3.42,2.91a3.37,3.37,0,0,1,2,2.71c.45,2.33,1.24,6.62,1.69,9,0,0,0,.06,0,.08l-.07,3.08a12.25,12.25,0,0,0-.61,2.58.91.91,0,0,0,.12.61h0a.61.61,0,0,0-.15-.1.46.46,0,0,0-.54.21.42.42,0,0,0,0,.42l-.12-.16c-.43-.6-1.41-1.82-1.87-2.43a26.39,26.39,0,0,0-2.8-4.24.39.39,0,0,0,.29,0c.18-.12.16-.16.18-.21s0,0,0,0c-.08,1.21-.18,2.85-.34,4a2.4,2.4,0,0,1-.23.88.56.56,0,0,1-.31.23.53.53,0,0,1-.35,0,.6.6,0,0,1-.23-.16c-.27-.35-.21-1.13-.31-1.38a5.35,5.35,0,0,0-1.08-1.33,37.24,37.24,0,0,1-3-3.94,8.85,8.85,0,0,0-2.07-2.4c.22-.13,0,0,0,.29a5,5,0,0,0,.23,2.46.9.9,0,0,1,0,.34.53.53,0,0,1-.16.27.71.71,0,0,1-.33.19,1.89,1.89,0,0,1-.93-.18,14.32,14.32,0,0,1-3.9-2.61c-.25-.38-.54-.78-.83-1.14a4.52,4.52,0,0,0-.68-.66s.18,0,.13,0a13.81,13.81,0,0,0-2.51,1.66c-.81-1.14-1.83-2.4-3.29-1.52-1.52,1.06-3.52,0-4.55-1.3l.75.21c-.3.1-2.53.94-2.73,1-1.16-.93-2.58-2.27-4-2.52a12.28,12.28,0,0,0-2.27-.06c-.67.08-1.29,0-1.78.54a3,3,0,0,1-.59.48c-2.09,1.08-3.19-2.76-4.06-3.88,0,0,.19.08.24.07s0,0-.07,0a15.83,15.83,0,0,0-2.65,1.65l-.28,0-2.9-.4-.18,0a6.33,6.33,0,0,0-2.36-1.31s0,0,.07,0a.1.1,0,0,0,0-.07h0a2.81,2.81,0,0,1-1.83,2.27h-.07l-2.7.39.43-.22c-1,.94-1.85,2-3.29,2.41a1.39,1.39,0,0,1-.7-.09c-.32-.12-.64,0-1.1-.06a2.33,2.33,0,0,1-1.21-.72c-.57-.2-1.39.25-2,.62-.22.11-4.09,1.92-4.23,2-.28-.4-1.76-2.72-2.06-3.16h1.19a15.22,15.22,0,0,0-1.72,3.06c-.41,1.23-2.65,1.79-3.2,1.93a20,20,0,0,0-3.61,2.11,3.79,3.79,0,0,1-1.73.91,8.61,8.61,0,0,1-2.95-.53l.3,0-2.09.24.24-.07-3,1.58.22-.19-2.12,2.75.14-.43a18.13,18.13,0,0,1-.23,4.64.76.76,0,0,1-.58.46.74.74,0,0,1-.72-.32c-.18-.27-.28-.62-.38-.78l0,0a.14.14,0,0,0,0,0s.17.06.22,0,.1-.05.06,0a2,2,0,0,0-.42.63,9.57,9.57,0,0,0-.42,1l-.12.11-2.11,1.9.21-.51c.14,2.17.45,7.71.59,9.83-1-2.12-4.37-9.79-5.39-12.05v0l-1.58-6.56,0-.18.06-.16,3.15-7.42,0-.11.08-.07,3.9-3.43-.15.28c0-.4.5-3.71.53-4l.52.22,3.35,1.42-.52.18,2.4-4.31,0-.08.07-.05,3.51-2.38c-.14.1,3.22-2.7,3.19-2.68l.06,0h.06c.14-.06,2.38-.55,2.46-.59l.09.21,1.39,3.16-.27-.13,7.71-1.82h.05l3.74.34,4,1.29,6,.23Z"/><path class="cls-1" d="M273.58,168.76c-2.32.6-4.57,1.23-6.9,1.61-1.32-.1-2.35-1.42-2.93-2.32a4.62,4.62,0,0,0-2.07-.08c-1.46.08-2.91.2-4.37.25l-3.73-.35.62-.27c-1,1.27-2,2.55-3,3.8l-.15.19-.19,0c-1.18.16-2.36.28-3.54.41l.19-.1c-1,.91-2.09,1.82-3.18,2.69.88-1.12,1.81-2.19,2.73-3.27l.14,0c1.16-.26,2.31-.54,3.47-.77l-.34.21c1-1.45,2-2.87,3-4.29l.4,0,3.73.27a58.53,58.53,0,0,1,5.9-.17,2,2,0,0,1,1.55.85c.44.83,1.41,2.08,2.11,1.89,2.2-.24,4.4-.46,6.59-.57Z"/><path class="cls-1" d="M319.85,185.48l-1.08,3.16-.65,6.33a.11.11,0,0,1,0,.05l-1.6,2.72,0-.13.79,3.06,0,.08,0,.08s-1.25,2.14-1.19,2l-3.22,7.56v0l-.74,3.07,0,.08-.05.07-1.61,1.95,0-.05-1.21,2,0-.1-.58,2.26a4.47,4.47,0,0,1-1.76,1.82c-.11.51.66,1.53,1,2l-.29.28-1.4,1.31.14-.23-.47,2v-.05l-.59,4.47,0,.29-.28.11-2.79,1.1.32-.62,1,3.78.05.21a55.24,55.24,0,0,1-3.64,6.25s-.44.41-.18.17a14.11,14.11,0,0,0,.17,3.34l.06.42-2.87,1.59a.1.1,0,0,0,.05,0s0,0,0,0a8.73,8.73,0,0,0-.27,2.66l-.52.09-2.4.4.48-.37-1.35,3-.12.26-.28.09-3.2,1c.59-.26-2.92,1.5-2.79,1.45l.13-.09a3,3,0,0,1-2.26.94c-1-.29-.8-1.5-.7-2.16v0h0l1.33.18h0c-.08.64-.26,1.87-.34,2.52l-.06.45-.45.12-3.07.76.38-.24c-1.22,1.52-2.75,1.2-3.07-.76l0-.14,1.35-.33v0l.08.33c.25,1,.58,2.35.83,3.31L277,259.7l.93-.39c-.91,2-1.7,4.21-3.59,5.59l-.2.12-.24,0-4.51-.41-.16,0-.15-.08-.68-.41a.17.17,0,0,0,.11,0,.36.36,0,0,0,.2-.06c.06-.06,0,0-.05.1a4,4,0,0,1-.82,1.37,5.11,5.11,0,0,1-2.48.8,15.06,15.06,0,0,1-2.22.07,1,1,0,0,1-.35-.06.76.76,0,0,1-.37-1,.87.87,0,0,1,.27-.3l-.06.06a.74.74,0,0,0-.1.26.54.54,0,0,0,.07.34s0,0,0,0c-.46-.05-1,.44-1.53.66s-1.17.19-1.73.35a19,19,0,0,0-1.91.58l-.25-.12-1.94-.89.46.05-4.16,1-.39.09a22,22,0,0,1-1.9-2.18l0,0a.34.34,0,0,0,.23.12c.07,0,0,0-.12.05a15.58,15.58,0,0,0-3.68,2.9,6.39,6.39,0,0,1-2.92,1.18,2.68,2.68,0,0,1-1.24,0,.89.89,0,0,1-.44-.28,9.46,9.46,0,0,0-1.84-1.54l.54.1c-.61.13-2.58.64-3.2.78-1.08.27-1.83-.91-2.26-1.68a4.4,4.4,0,0,0-.45-.76,5.28,5.28,0,0,0-1.72-.78h.33l-3,.74c-.39.06-1.17.39-1.65.24-1-.37-.87-1.57-.65-2.38l0,.09a1.87,1.87,0,0,0-.07-.78c-.06-.12-.1-.29-.18-.35s0,0,0,0,0,0,0,0a1.69,1.69,0,0,0-.71.19,6.25,6.25,0,0,0-.85.45l-.1.07-.1,0-5.06,1.22-.57.13-.13-.56c-.23-.72-1-4.42-1.23-5.06-1.15.1-2.78,1.12-4.12,1.53-2,.66-2-1.4-1.7-2.7.06-.3.08-.81.08-.64a4.84,4.84,0,0,0-1.74-.76,22.64,22.64,0,0,1-4.11-3.83c-.61-.59-2.27-.3-3.13-.49a.54.54,0,0,1-.3-.31c0-.08,0,0,0,0s0,0,0,0a18,18,0,0,0-1.23-1.39l-.16-.18.08-.22a9.69,9.69,0,0,0,.42-1.58c0-.13,0-.43,0-.3s.18.08.12.08a3.55,3.55,0,0,0-.66.31,7.37,7.37,0,0,1-.69.34c-.09,0-.06.06-.31.05a.82.82,0,0,1-.44-.27c-1.6-2.12-2.08-4.64-3.21-7a2.09,2.09,0,0,0-.26-.36.35.35,0,0,0-.11-.09s0,0,0,0-.14,0-.2,0c-.52-.16-.58-.5-.83-.86a17.63,17.63,0,0,1-1.14-3l0-.07,1.3-2.79.1.23-4.31-1.66-.06,0v-.06l-1.81-7.79,2,7.73-.07-.08,4.34,1.56.17.07-.08.17L195,237.8v-.15a9.07,9.07,0,0,0,1.63,3.36s-.07,0,.06,0a.58.58,0,0,1,.24,0c1.06.76,1.42,2.45,1.83,3.49a22.08,22.08,0,0,0,2.11,4c-.16,0,0,0,0,0a10.49,10.49,0,0,1,1.47-.71c1.37-.13.47,2.07.28,2.79l-.09-.4c.33.34.64.67,1,1l.23.28.12.15a.83.83,0,0,1,.16.27s0,.1,0,0a.34.34,0,0,0-.22-.26h0c.63,0,1.24,0,1.9.07a2.47,2.47,0,0,1,1.56.58,21.14,21.14,0,0,0,4,3.65l-.17-.08a4.85,4.85,0,0,1,2.14,1,.87.87,0,0,1,.21.49c0,.64-.16,1.29-.17,1.9a1.21,1.21,0,0,0,.1.67s.08.06.44-.07c1.56-.45,2.94-1.71,4.7-1.59.81.11.86,1.16,1,1.74l1,4.07-.71-.42,5.05-1.29-.2.09a6.2,6.2,0,0,1,1-.57c1.83-.92,2.84.38,2.68,2.21a4.39,4.39,0,0,0-.12.71c0,.18.07.39,0,.24s-.19,0,.14-.12l3.94-1a6.88,6.88,0,0,1,2.4,1.1,3.77,3.77,0,0,1,.71,1.09,4.19,4.19,0,0,0,.79,1.05h0c.64-.17,2.52-.62,3.19-.79l.3-.08.24.18a9.63,9.63,0,0,1,2.1,1.78c0,.05,0,0,0,0s-.14-.11-.15-.12a6.28,6.28,0,0,0,2.73-.83c1-.87,4.22-4.43,5.59-3.09a21.16,21.16,0,0,0,1.64,1.89l-.67-.19,4.15-1,.24-.06.22.11,2,.87-.53,0a20.52,20.52,0,0,1,3.32-.85c.74-.41,1.75-1.07,2.71-.6a1.05,1.05,0,0,1,.32,1.81l0,0a.69.69,0,0,0,.22-.33.72.72,0,0,0-.56-.91h.1a7.6,7.6,0,0,0,3.6-.56c.05-.05,0,0,.09-.12l.38-.8a1.61,1.61,0,0,1,.48-.6,1.16,1.16,0,0,1,1.15-.09c.25.13.27.15.46.26l.38.23-.31-.1,4.51.42-.44.1c1.47-1.14,2.27-3.18,3-4.86l.27-.68,3.23,1.38-1,.81c-.15-.63-.42-1.67-.56-2.29v0l1.34-.33h0v0l0,.09,0,.16a2.51,2.51,0,0,0,.15.48c.06.12.05.05-.06,0s0,0,.16-.09a2.8,2.8,0,0,0,.5-.53l.22-.05,3.07-.75-.51.56c.1-.66.27-1.89.36-2.53l1.33.18a6.36,6.36,0,0,0-.08.86l-.06-.08A.5.5,0,0,0,285,256c-.08,0,0,0,0,0a5.41,5.41,0,0,0,1.16-.72l2.89-1.48.05,0h.06l3.21-1-.41.35c.19-.34,1.4-3.11,1.51-3.33.85-.13,2-.33,2.73-.45l-.53.63c.11-1.05-.08-2.38.8-3.15l.08,0,2.5-1.37-.33.64a15.09,15.09,0,0,1-.14-3.62,1.62,1.62,0,0,1,.2-.55c1.6-1.8,2.49-4,3.75-6.1l-.05.4-.91-3.8-.11-.46,3.24-1.22-.32.41s.66-4.47.65-4.49l.5-2,0-.13.09-.09,1.41-1.3,0,.6a5.46,5.46,0,0,1-.89-1.79,1.11,1.11,0,0,1,.35-1.14l.13-.07.05,0a4,4,0,0,0,1.32-1.33l0,.1.6-2.25,0,0,0-.05,1.23-2,0,0,0,0,1.64-1.92-.07.14.81-3.05v-.06s3.41-7.49,3.41-7.5l1.25-2,0,.16-.73-3.07,0-.08,0-.06,1.66-2.68,0,.05.83-6.3s1.18-3.14,1.18-3.15Z"/><path class="cls-1" d="M269.06,192.66c-2.89,2.64-6.81,3.85-10.5,4.9-1.24.34-2.46.62-3.71,1.05,1.9-1.84,4.51-2.64,6.9-3.57s4.88-1.6,7.31-2.38Z"/><path class="cls-1" d="M217.69,193.72a60.13,60.13,0,0,1,18.2-5.08,23.32,23.32,0,0,1,6.45.24,7.17,7.17,0,0,0,4.22-.19c5.75-2.5,12.08-4.06,18.39-3.5,4.55.88,9.18,1.75,13.77.32a17.32,17.32,0,0,1-4.53,1.2c-3.22.57-6.16-.1-9.33-.44-6.15-.26-12.24,1.41-17.85,3.81a8.76,8.76,0,0,1-5,.18,24,24,0,0,0-6.06-.36,80.25,80.25,0,0,0-18.29,3.82Z"/><path class="cls-1" d="M221.5,190.82A90.83,90.83,0,0,1,236,184.48c2.67-.84,5.64-1.52,8.46-.82a3.22,3.22,0,0,0,.81.11,5.55,5.55,0,0,0,2.25-.63,12.88,12.88,0,0,1,4-.89c1.84-.09,3.49.46,5.29.53a51,51,0,0,0,5.25.16,33.05,33.05,0,0,1-5.27.56c-2.56.06-5.15-.53-7.62.44-1.32.37-2.5,1.31-3.93,1.26a6.34,6.34,0,0,1-1.44-.21c-4.23-.67-8.4,1.18-12.39,2.4l-9.94,3.43Z"/><path class="cls-1" d="M219.24,194.13c3.79,4.78,8.46,9,14.2,11.15,4.32,1.56,9,1.44,13.54,1.61a37.8,37.8,0,0,0,4.64-.14,40.45,40.45,0,0,1-16.36.61c-7-1.67-12.75-7-16-13.23Z"/><path class="cls-1" d="M221.5,192.66c3.58,2.26,7.22,4.77,11.31,5.89,4.14.7,8.82.57,12.81.78,2-.12,4-.21,6-.21-2,.46-3.94.83-5.91,1.17-4.42.25-8.8.51-13.23-.35-4.3-1.3-7.87-4.17-11-7.28Z"/><path class="cls-1" d="M239,189.38a72.78,72.78,0,0,1,2.56,7.59l-.05-.13A3.07,3.07,0,0,0,242.7,198a2.85,2.85,0,0,0,1.64.08c1.34-.14,2.72-.4,4.08-.62l-.29.14a1.57,1.57,0,0,0,.6-1.16c-.26-1.89-.66-3.86-.86-5.79q.8,1.81,1.41,3.69c.29,1,.9,2.19.42,3.23a3.18,3.18,0,0,1-.82,1.12,36.87,36.87,0,0,1-4.38.86,3.62,3.62,0,0,1-4.2-2.26,72.22,72.22,0,0,1-1.28-7.9Z"/><path class="cls-1" d="M248.2,189a68.07,68.07,0,0,1,2.59,8c0-.16,0-.07,0-.07a1.38,1.38,0,0,0,.42.37s0,0,0,0,0,0,.07,0a44.61,44.61,0,0,0,6.5-1.41l-.08,0a1.12,1.12,0,0,0,.5-.56c.31-.65-.41-3-.48-3.68-.32-1.8-.62-3.59-.82-5.42,1,2.46,1.84,5.27,2.58,7.82a2.62,2.62,0,0,1-1.26,3.16c-1.39.41-2.78.8-4.21,1.09a8,8,0,0,1-3.27.25,1.32,1.32,0,0,1-.39-.22,1.75,1.75,0,0,1-.82-1.45A75.18,75.18,0,0,1,248.2,189Z"/><path class="cls-1" d="M232.85,190.9c.53,1.33.77,2.73,1.3,4a16.58,16.58,0,0,0,1.85,2.55c.17.17.07,0-.17.05l2.07-.14.83-.06c.11,0,.32-.05.27,0,1.35-1,2.23-2,.82.29-.35.64-1.14.73-1.74.91a17.06,17.06,0,0,1-2.13.42,1.27,1.27,0,0,1-.94-.4,9.35,9.35,0,0,1-2-3.09,10.84,10.84,0,0,1-.12-4.5Z"/><path class="cls-1" d="M227.63,190.63c.87,1.66,1.22,3.53,2.06,5.13.45.45,1.24,1.53,1.7,1.94.06.05.1.06.08.07s-.15.07,0,0c.74-.48,1.52-1.38,2.26-2a6.79,6.79,0,0,1-1.6,2.92c-1.24.92-2.48-.94-3.22-1.7a3.13,3.13,0,0,1-.57-.78,12.37,12.37,0,0,1-.67-5.63Z"/><path class="cls-1" d="M225.6,191.13a7.1,7.1,0,0,1,1.65,3.79l-.07-.16s.52,1.14.39,1.11c0,.18.46.1.68.09a.92.92,0,0,1-.93.64,3,3,0,0,1-1.36-1.2,7.17,7.17,0,0,1-.36-4.27Z"/><path class="cls-1" d="M223.66,191.74a3.71,3.71,0,0,1,1.39,2.7c.07.24,0,.54.22.74-.6.35-1.3-.29-1.65-.74a3.05,3.05,0,0,1,0-2.7Z"/><path class="cls-1" d="M258.94,193.2c.56.28,1.24.83,1.82.76l.68-.19c.94-.26,1.9-.52,2.86-.75l-.42.26c.73-1,1.48-1.93,2.28-2.84L266,191a27.06,27.06,0,0,1-.55-5,19.15,19.15,0,0,1,1,2.32c.34.87.63,1.75.9,2.65-.75,1.1-1.57,2.17-2.42,3.19l-.18.22-.24,0a21.62,21.62,0,0,1-3.78.37c-1-.1-1.4-.92-1.87-1.59Z"/><path class="cls-1" d="M266.57,192a7.53,7.53,0,0,1,.84.61l-.35-.1a16.59,16.59,0,0,1,3.28-1.73l-.46.65a14.64,14.64,0,0,1,1-5,15.35,15.35,0,0,1,.43,5.6,16.58,16.58,0,0,1-4,1.09l-.29,0a7,7,0,0,1-.42-1.11Z"/><path class="cls-1" d="M271,189.33a7.36,7.36,0,0,1,1.23,1l-.49-.2c.47-.23,1-.43,1.42-.64a5.57,5.57,0,0,0,1.55-.85c.56-1.38.87-3.51,1.26-.56.33,2.4-2.64,3-4.46,3a8,8,0,0,1-.51-1.7Z"/><path class="cls-1" d="M276,187.12a2.12,2.12,0,0,0,.89,0s.07-.05,0-.07,0,0,0-.06a13.4,13.4,0,0,1,1.75-1c.5.73-.07,1.6-.66,2-.83.65-2.07.29-2-.85Z"/><path class="cls-2" d="M254.47,208.24s1.9,4.75,1.47,5.93"/><path class="cls-2" d="M253.38,211.66a20.44,20.44,0,0,1-.25,5.82"/><path class="cls-2" d="M261.83,204.74c.86,3,1.08,6.1,1.8,7.26"/><path class="cls-2" d="M232.51,209s.64,3.21.14,4"/><path class="cls-2" d="M235.14,213a6.5,6.5,0,0,1-.07,4"/><path class="cls-1" d="M248.82,236.56a23.51,23.51,0,0,1,1.82,7c.18,2.38.39,5-.86,7.19,0-4.7-1.25-9.45-1-14.17Z"/><path class="cls-1" d="M245.28,246.59a6.7,6.7,0,0,1-.3,6.17,6.73,6.73,0,0,1,.3-6.17Z"/><path class="cls-1" d="M253.06,240.59a4.41,4.41,0,0,1,1.25,4.22,9.47,9.47,0,0,1-.3,1.48,4.09,4.09,0,0,1-1.1-2.82,12.25,12.25,0,0,1,.15-2.88Z"/><path class="cls-1" d="M226.19,239.62a7.65,7.65,0,0,1,.72,5.38,2.55,2.55,0,0,1-1.23,1.52,8.67,8.67,0,0,0,.09-1.72c-.06-1.68-.43-3.6.42-5.18Z"/><path class="cls-1" d="M228.16,247.6a4.34,4.34,0,0,1,0,3.41,4.21,4.21,0,0,1-1.88,2.4c-.15.07-.45.07-.49-.13.25.06.27-.37.33-.55a17.28,17.28,0,0,1,2.07-5.13Z"/><path class="cls-1" d="M219,234.61c1.08,1.36,2,3.53.54,4.95-.61-1.6-1.47-3.31-.54-4.95Z"/><path class="cls-1" d="M278.77,170.9a12.11,12.11,0,0,1,.7,3.71s0,.1,0,.12a2.26,2.26,0,0,1,.22,1.91,8.37,8.37,0,0,0-1.24-1.18l-.1-.13a4,4,0,0,1,.37-4.43Z"/><path class="cls-1" d="M282,173.09c.56.24.61.95.85,1.28a2.09,2.09,0,0,1,.65,2.43,4.21,4.21,0,0,1-.92-.67c-.35-.39-.88-.7-1-1.28-.16-.79.21-1,.46-1.76Z"/><path class="cls-1" d="M223.34,176.1a2.7,2.7,0,0,0,.38,1.61,3.22,3.22,0,0,1-.61,3.35,9.11,9.11,0,0,1-.73-3c-.12-.71.07-1.84,1-2Z"/><path class="cls-1" d="M225.78,177.94a5.39,5.39,0,0,1,1.12,1.39,1.41,1.41,0,0,1-1.13,1.88,5.56,5.56,0,0,1-.15-1,3.15,3.15,0,0,0-.08-.38,1.59,1.59,0,0,1,.24-1.93Z"/><path class="cls-1" d="M329.4,104c.28,4.79.49,9.62,1.08,14.37.36,2.37,1,4.84.82,7.26-.15,3.53-.74,7.32-1.21,10.81-.77,3.65.72,6.94.87,10.58.23,3.48-.1,8.15-3.64,10a6.91,6.91,0,0,1-3.56.69,7.39,7.39,0,0,0,3.37-1c4.94-3.61,2.24-11.54,1.34-16.6a45.05,45.05,0,0,1,.65-7.36c.5-4.1,1.34-8.3.43-12.36A89,89,0,0,1,329.4,104Z"/><path class="cls-1" d="M322.52,139.13c1.72,10.56,2.75,21.35,1.53,32-.42,3.1-1.93,7.26-2.81,10.28,0-.33.11-.92.15-1.25.43-3,1.28-6.21,1.51-9.17.64-10.6-.3-21.26-.38-31.89Z"/><path class="cls-1" d="M318.65,123.5c2.74-3.82,5.58-7.48,8.2-11.28,2.44-3.8,5.49-7.64,5.81-12.29,1.43,7.67-8.48,18.84-14,23.57Z"/><path class="cls-1" d="M331.06,99.64a5.67,5.67,0,0,0,1.69-4.45c-.13-1-.18-2.11-.23-3.09-.08-1.33-.17-2.68-.88-3.48A11.14,11.14,0,0,1,330.18,87a2.66,2.66,0,0,1-.14-1.38c.19-5-1-10-2.4-14.87a15.54,15.54,0,0,1,.16-2.09c.11.67.11,1.41.24,2a32.4,32.4,0,0,1,2.26,5.75,30.78,30.78,0,0,1,1.18,10c.23.38.89.92,1.24,1.4,1.38,1.85.88,4.29.88,6.39v1a5.52,5.52,0,0,1-2.53,4.49Z"/><path class="cls-1" d="M293.85,52.33c7-.33,20.72-.25,26,4.58A5.8,5.8,0,0,1,321,59.28a27.4,27.4,0,0,1,1.15,7.19,7.11,7.11,0,0,0,.47,2.33c-.82-1.16-1-3.26-1.35-4.62a24.78,24.78,0,0,0-2-6l-.31-.38c-1.68-1.48-4-2.07-6.2-2.64-6.18-1.46-12.57-2-18.88-2.82Z"/><path class="cls-1" d="M294.64,43.17a55.21,55.21,0,0,1,8.3-1.13c3.47-.09,7.34-.39,10.62,1.24a11,11,0,0,1,4.33,4.92,39,39,0,0,1,1.31,4,13.52,13.52,0,0,1,.63,4.17,18,18,0,0,0-1.31-3.91c-1.26-3.17-2.59-6.22-5.67-7.94a6.31,6.31,0,0,0-1.77-.62c-5.37-1.08-11-.65-16.44-.74Z"/><path class="cls-1" d="M225.79,34.22c-3.26-5.16-8.63-15.63-3.88-21.16A11.28,11.28,0,0,1,226,10.78c2.81-1,5.73-2.4,8.8-2.08h-.16c1.63-.06,4-.21,5.58-.22-1.57.33-3.89.7-5.49,1h-.16c-3.49.23-6.83,2.11-10,3.51-6.66,3.26-.77,16.16,1.26,21.27Z"/><path class="cls-1" d="M233,31.42c-1.87-3.51-6-12.41-1.42-15.13,3.65-1.64,5.53-5.39,8.48-7.95a3,3,0,0,1,2.07-.79l-.18,0a12.18,12.18,0,0,1,8.25,1.55,30.19,30.19,0,0,0-4-.9,15.27,15.27,0,0,0-4.16.4c-.9.07-1.73,1.22-2.36,1.92a34.74,34.74,0,0,1-5,5.53A11.13,11.13,0,0,1,233,17.15a5.88,5.88,0,0,0-1.4.81C229.32,20.89,232,28,233,31.42Z"/><path class="cls-1" d="M243.92,28c-3.36-5.76-5.19-16.11,3-18.71,3.37-1.35,8-2.05,10.06,1.78a3.36,3.36,0,0,0,.7.82c2,.74,4.31.38,6.18,1.36a16,16,0,0,1,2.3,1.26c-.8-.33-1.62-.64-2.43-.9-2.22-.75-4.35,0-6.58-.8-1.16-.76-1.64-2.12-2.76-2.7-2.17-1.11-4.72-.24-7,.56C240.05,13.06,242,22.38,243.92,28Z"/><path class="cls-1" d="M253.14,26.43c-.53-3.77.12-8.66,3.91-10.63,4.28-3.11,6.48-3.07,11.24-.94a7.33,7.33,0,0,1,1.47.86c.5.38.65.93,1.13,1.23-.52-.15-.88-.66-1.35-.89a24.3,24.3,0,0,0-4.64-1.25,6.77,6.77,0,0,0-5.69,1.34l-1.39.87c-3.46,1.7-4.14,5.85-4.68,9.41Z"/><path class="cls-1" d="M262.18,27.63c.32-4,1.11-8.1,3.91-11.28a3.86,3.86,0,0,1,3.24-1.23,23,23,0,0,1,5.73,1.8,6.26,6.26,0,0,1,2.39,1.8,8.08,8.08,0,0,0-2.65-1.13,42.15,42.15,0,0,0-5.66-1.08,2.45,2.45,0,0,0-2,.89c-2.48,2.73-3.57,6.76-4.94,10.23Z"/><path class="cls-1" d="M269.11,30.92c.2-3.6,1.22-8.42,5.31-9.45,1.19-.21,2.36-.44,3.56-.68,2.3-.25,8.26-2,9.64.69.8,1.45,1.75,2.82,2.69,4.2A22.87,22.87,0,0,1,286.86,22c-.34-.56-.82-.64-1.58-.7a38.59,38.59,0,0,0-7,1c-1.19.21-2.4.44-3.61.6-3.41.83-4.5,5-5.53,8.08Z"/><path class="cls-1" d="M277.91,35.47c2.8-5.2,8.48-11.61,15.12-9.33,2.51,1.05,4.56,2.79,7,3.89a6,6,0,0,1,2.44,1.49c2.73,3.43,6.42,6.06,8.95,9.73-2.44-2.61-5.47-4.44-8-6.94-.81-.75-1.51-1.6-2.29-2.3a17.1,17.1,0,0,0-1.67-.71c-2.43-1.05-4.55-2.74-6.89-3.81-6-2-11.17,3.71-14.62,8Z"/><path class="cls-1" d="M164.83,79.57c-4.54-1.55-6,1.74-8.39,4.66a16.34,16.34,0,0,0-3,4.28c-.65,1.65-.1,3.46,0,5.16.15.81.36,2,.48,2.88-.42-.9-.8-1.82-1.15-2.74-1.75-4.63-.76-7,2.5-10.51,1.31-1.38,2.29-3.06,3.95-4a5.07,5.07,0,0,1,5.54.32Z"/><path class="cls-1" d="M163.39,94.23c-3.16-.66-8.1-1.49-8.77,2.73a28.64,28.64,0,0,0-.84,4.4c-.07.65.53,1.28.73,2.06-.25-.3-.52-.56-.8-.84-1.41-1.59-.61-4-.46-5.89.69-5.29,6.73-4.87,10.14-2.46Z"/><path class="cls-1" d="M165.14,138.33a4.56,4.56,0,0,1-1.07-2.15c0-1.58.46-3.13.43-4.66a2,2,0,0,0-.24-.94l-.57-1c-1-1.67-1.16-3.75-2.13-5.36a1.55,1.55,0,0,0-.63-.53,7.2,7.2,0,0,1-4.88-8c.21-1.67-.93-3-.56-4.65.45-2.37,1.51-4.47,1.75-6.85a5.66,5.66,0,0,1,.94-2.75,2.6,2.6,0,0,1,2.58-1,2.5,2.5,0,0,0-2.24,1.26,5.19,5.19,0,0,0-.54,2.59,20.69,20.69,0,0,1-.78,4.73c-.4,1.53-.76,3-.15,4.17a5.4,5.4,0,0,1,.42,2.62,5.59,5.59,0,0,0,2.19,5.63c.8.77,2.39,1,3,2.1,1.06,1.78,1.11,4,2,5.65a4.64,4.64,0,0,1,.73,2.43c-.09,1.62-.74,3.1-1,4.65a5,5,0,0,0,.72,2.15Z"/><path class="cls-1" d="M167.42,62.66c-3.54,1.61-7.34,2.83-10.37,5.23a23.87,23.87,0,0,0-3.39,5,4.55,4.55,0,0,0-.64,2.33c0,1.51-.16,3.07-.19,4.56-.11,1.24.4,2.37.35,3.6-.29-1.22-1-2.31-1.07-3.55-.21-1.68-.24-3.36-.35-5,.1-2.18,1.4-4,2.5-5.77a10,10,0,0,1,2.64-2.85,29.63,29.63,0,0,1,10.52-3.57Z"/><path class="cls-1" d="M170.05,47c-2.6,1.15-5.76,2-7.73,4-1,2.67-3.49,4.54-5.09,6.74a4.72,4.72,0,0,1-.9,1.44c-1,1.05-.93,2.49-1.43,3.76s-1.93,2.31-2.61,3.42a.75.75,0,0,0-.08.47,22.27,22.27,0,0,1,.73,3.45,1.79,1.79,0,0,1,0,.6,2.68,2.68,0,0,0,.22,1.49,2.57,2.57,0,0,1-.53-1.58,1.59,1.59,0,0,0-.06-.45,33.25,33.25,0,0,0-1.17-3.25c-.4-1.17.77-2.26,1.32-3a6.27,6.27,0,0,0,1.41-3.67c.19-1.16,1.19-2.11,1.69-3,1.38-2.61,4.15-4.13,5.37-6.78a2.69,2.69,0,0,1,.66-.8c2.51-1.77,5.33-2.32,8.23-2.88Z"/><path class="cls-1" d="M173.94,37.57c-2.17.9-5,1.43-6.61,3A19.61,19.61,0,0,1,164,44.62c-1.31,1.1-1.34,3.45-2.5,4.8-.38.28,0,1.23.14,1.68A3.86,3.86,0,0,1,161,50a.93.93,0,0,1,.17-1c.3-.86.36-1.84.64-2.81.26-1.83,1.84-2.9,2.92-4.37.8-1,1.58-2.49,2.81-3a15.94,15.94,0,0,1,6.45-1.21Z"/><path class="cls-1" d="M175.23,51.53c-2.93.95-6.36,1.38-8.25,3.93a16.37,16.37,0,0,1-2,2.68,25.84,25.84,0,0,0-2.3,2c-.54.8-.87,2-1.43,2.83-.68,1.35-2,2.61-2.24,4.05a1.67,1.67,0,0,1-.3,1.62,1.59,1.59,0,0,0-.08-1.47,1.51,1.51,0,0,1,0-1,24,24,0,0,1,1.62-3.78c.53-1,.67-2,1.28-3s1.66-1.5,2.45-2.34a18,18,0,0,0,1.93-2.46c2.18-2.76,6.15-3,9.36-3.09Z"/><path class="cls-1" d="M185.87,39.88c-3.53.55-7.49.54-10.73,1.86a1.07,1.07,0,0,0-.46.4,25.5,25.5,0,0,1-4.36,5.11,7.42,7.42,0,0,0-2.18,2.65c-.63,1.1-1.51,2.09-2.08,3.08s.17,2.49-.63,3.5a2.88,2.88,0,0,0,0-1.79,2.81,2.81,0,0,1,0-2c.9-1.85,1.68-3.3,2.65-5,1.15-1.54,2.69-2.47,3.8-4.14.61-.76,1.23-1.62,1.83-2.4a5,5,0,0,1,2.76-1.18,35,35,0,0,1,9.43,0Z"/><path class="cls-1" d="M194.13,33.59c-3.83-.74-7.6-1.84-11.36-2.79-.38-.09-.22-.08-.59,0a25.75,25.75,0,0,0-5,2.3c-.8.7-1,1.74-2,2.52-.38.25-.44.63-.61,1.09a12.65,12.65,0,0,1-1.06,2.69c-.1.35.08.55,0,1a1.76,1.76,0,0,1-.82.83,4.37,4.37,0,0,0-1.37,2.39,4,4,0,0,1,1.35-3.15c.33-.35-.06-.5,0-1.2a19.56,19.56,0,0,0,.79-2.84,2.9,2.9,0,0,1,1.07-1.94,16.77,16.77,0,0,1,1.69-2.43,19.22,19.22,0,0,1,6-2.72,2.12,2.12,0,0,1,.88.11,91.88,91.88,0,0,1,11,4.14Z"/><path class="cls-1" d="M216,34.5a55.42,55.42,0,0,1-4-8.37c-1.07-3-2.16-6-1.86-9.3a5.35,5.35,0,0,1,1.07-2.35,19.55,19.55,0,0,1,2.9-3.79,5.78,5.78,0,0,1,4.72-1.25,21.92,21.92,0,0,0,5.1-.58c.39,0,1.33.27,1.72.33h-1.15a2,2,0,0,0-1.07.13c-2.06,1-4.59,1-6.75,1.31a5.64,5.64,0,0,0-3,2.71c-.4.64-1.46,2.2-1.81,2.84-.64,1.59-.22,3.42.09,5.19A114.3,114.3,0,0,0,216,34.5Z"/><path class="cls-1" d="M208.5,33.25c-2.31-3.74-7.89-14.32-4.65-18.24.92-1,1.31-2,2.37-3.07a4.49,4.49,0,0,1,2-.79l1.87-.34c1.25-.2,2.49-.41,3.76-.55-1.19.46-2.39.85-3.58,1.25l-1.8.58c-1.37.34-1.73,1-2.4,2.16-.41.67-.9,1.35-1.35,2a4.44,4.44,0,0,0-.33,2.71c.62,4.86,2.62,9.61,4.14,14.31Z"/><path class="cls-1" d="M201.87,33.24c-2-3.61-4-7.78-7.84-9.5-1.32-.54-2.46-.21-3.87.06s-2.88.43-4.31.6a9.12,9.12,0,0,0-3,.59,4.31,4.31,0,0,1-1.31,2.5c-.73.82-1.58,1.51-2.33,2.27-.54.87-1.21,1.81-1.78,2.67.41-1,.85-2,1.33-3,.64-.9,1.4-1.66,2-2.54a4.24,4.24,0,0,0,.86-1.63,2.44,2.44,0,0,1,.07-.65c.23-.77,1.19-1.05,1.79-1.19,2.15-.47,4.29-.65,6.43-1.06,6.65-2.07,10.57,5.62,12,10.89Z"/><path class="cls-1" d="M202.57,13c-4.1.82-7.14,3.42-10.41,5.81a68.71,68.71,0,0,0-6.36,3.6,18.74,18.74,0,0,1,5.6-4.77c3.08-2.55,6.93-5.29,11.17-4.64Z"/><path class="cls-1" d="M225.61,151.91c-2.16,3.51-5,7.66-4,11.84a9.25,9.25,0,0,0,8.46,6.22,7.2,7.2,0,0,1-6.26-1.2c-6.93-4.79-3.38-12.33,1.79-16.86Z"/><path class="cls-1" d="M257.91,145.46a17.45,17.45,0,0,1,9.52,10.46,12.77,12.77,0,0,1,.33,5,6.33,6.33,0,0,1-4.32,3.57,5.3,5.3,0,0,1-1.82,0,7,7,0,0,0,1.69-.47c1.46-.43,3-2.64,3.25-3.37.32-6.33-4.05-11.36-8.65-15.27Z"/><path class="cls-1" d="M229,165.47a9.79,9.79,0,0,1,5.54.74c1.56.8,2.87,2.39,4.5,2.72a22.66,22.66,0,0,0,10.26-1.42c1.64-.74,2.5-2.49,3.92-3.56a4,4,0,0,1,1.74-.69,4.35,4.35,0,0,0-1.47,1c-1.22,1.39-1.92,3.33-3.65,4.27a19.49,19.49,0,0,1-7.28,1.92,11.4,11.4,0,0,1-3.88-.17,8.4,8.4,0,0,1-3.28-2.12c-1.6-1.73-4-2.4-6.4-2.69Z"/><path class="cls-1" d="M254.58,123.61c10.95-14.23,29.15-13.49,41.93-2.11-14.14-9.3-29.31-10.28-41.93,2.11Z"/><path class="cls-3" d="M282.57,122.92c-.06,1.89-1.41,3.5-3.48,4.46,9.06-1.12,12.92-4.19,12.92-4.19a25.55,25.55,0,0,0-16.37-6C279.63,117.58,282.65,120,282.57,122.92Z"/><path class="cls-1" d="M255.51,126c.57.54,1.33,1.12,2.11.88a8.57,8.57,0,0,1,3.6-.39,90.61,90.61,0,0,0,10,.55l-.21,1.3c-6.58-1.89-7.13-9.18-.42-11.37l.36,1.33c-5.71,1.08-10.89,4.15-15.45,7.7Zm0,0a35.43,35.43,0,0,1,6.87-5.63,26.82,26.82,0,0,1,8.31-3.42.69.69,0,0,1,.82.52.7.7,0,0,1-.43.8c-5.42,1.91-4.83,7.12.37,8.81a.67.67,0,0,1-.23,1.29,61,61,0,0,1-10.1-1.16,11.25,11.25,0,0,0-4,0,3,3,0,0,1-1.64-1.22Z"/><path class="cls-1" d="M266.51,122.46c0,2.65,2.42,4.51,4.78,5.09a58.8,58.8,0,0,0,7.73-.77c5.45-3.21,2.2-8.3-3.39-9.23a24.16,24.16,0,0,0-4.79.27s.16,0,.16-.15l-.12.16c-2.13.59-4.28,2.26-4.37,4.63Zm0,0c.06-2.41,2.18-4.12,4.26-5l-.12.16a.22.22,0,0,1,.2-.19,22.81,22.81,0,0,1,4.83-.75c3.43.15,7.67,2.29,7.62,6.25-.07,2.36-2.07,4.31-4.13,5a54.62,54.62,0,0,1-8,0c-2.32-.87-4.74-2.81-4.67-5.49Z"/><ellipse class="cls-4" cx="274.55" cy="122.47" rx="2.71" ry="3.27" transform="translate(144.26 393.4) rotate(-88.36)"/><ellipse class="cls-5" cx="275.99" cy="121.56" rx="0.66" ry="0.79" transform="translate(146.58 393.95) rotate(-88.36)"/><ellipse class="cls-5" cx="274.64" cy="121.8" rx="0.28" ry="0.34" transform="translate(145.02 392.84) rotate(-88.36)"/><ellipse class="cls-5" cx="275.23" cy="122.62" rx="0.15" ry="0.19" transform="translate(144.78 394.23) rotate(-88.36)"/><path class="cls-1" d="M279.09,127.38c9.06-1.12,12.92-4.19,12.92-4.19a25.55,25.55,0,0,0-16.37-6s9.42.76,13.63,5.73A20.26,20.26,0,0,1,279.09,127.38Z"/><path class="cls-1" d="M279.09,127.38c4.37-.86,8.91-2,12.57-4.62l0,.83a24.89,24.89,0,0,0-3.58-2.41,25.83,25.83,0,0,0-12.41-3.32l.05-1.45a26.35,26.35,0,0,1,11,3.55,13.44,13.44,0,0,1,3,2.61.46.46,0,0,1-.06.65,20.09,20.09,0,0,1-10.52,4.16Zm0,0a22.07,22.07,0,0,0,9.83-4.87l0,.68a13,13,0,0,0-2.82-2.23,27.48,27.48,0,0,0-10.52-3.1.73.73,0,0,1,.08-1.45,25.26,25.26,0,0,1,16.76,6.37.53.53,0,0,1,.05.77c-3.92,2.64-8.75,3.45-13.35,3.83Z"/><path class="cls-1" d="M270.39,130.66c-3.13,1.47-6.77,1-10,.26a16,16,0,0,0-5.77.53,8.89,8.89,0,0,1,7.95-1.58,37.73,37.73,0,0,0,7.82.79Z"/><path class="cls-1" d="M165.4,241c-9.41,3.7-28.16,11-37.59,14.63-17.1,2.67-34.22,7.66-48.8,17.2a53.46,53.46,0,0,0-5.77,4.38c-3.25,4.39-6.43,8.85-9.56,13.34-10.16,14.55-20.08,29.38-28.16,45.2-4.26,8.55-7.19,17.77-11.09,26.48-4.35,10.06-9,20-14,29.73q10.68-22.21,19.3-45.32a116.65,116.65,0,0,1,4.78-11.41C45,314.39,58.35,295.15,72.13,276.35c8.61-7.47,19.24-12.17,29.92-15.85a149.8,149.8,0,0,1,25.63-5.74c8.82-3.28,28.49-10.43,37.72-13.76Z"/><path class="cls-1" d="M75.09,279.89c4.48,11.06,7.56,22.79,8,34.77,0,8.66-1.75,18.06-2.72,26.68-.43,3-.81,5.89-1.28,8.83.14-3,.38-5.93.57-8.9l.72-8.89c.4-5.89,1.36-11.8,1.23-17.69-.38-11.81-3.15-23.49-6.52-34.8Z"/><path class="cls-1" d="M330.5,233.14c6.08,26.87-8.86,55.39-30.89,70.61-11.26,7.95-25.15,10.82-38.71,11.52-17.42.82-35.44-2.35-50.36-11.35-22-13.7-41.61-37.47-42.16-64.35,2.21-3.54,7.13-3.26,10.71-2.48-2.77-.53-5.88-.77-8.45.61a5.64,5.64,0,0,0-2,1.86,61.68,61.68,0,0,0,5.18,21.94c6,13.84,16.4,25.54,28.12,34.9a78.33,78.33,0,0,0,38.81,16.47,106.41,106.41,0,0,0,20.1,1c13.35-.65,26.95-3.36,38.08-11.14,21.85-14.89,37-42.86,31.59-69.56Z"/><path class="cls-1" d="M317,205.89c.71,10.17-.35,20.77,0,30.92-1.52-5-1.29-10.32-1.32-15.46a111.19,111.19,0,0,1,1.3-15.46Z"/><path class="cls-1" d="M321.15,231.9c4.19,2.91,8.3,6,12.87,8.32.72.27,16.93,7.45,18.1,8,16.06,7.1,32.12,14.25,48.49,20.59,2.73,1,5.48,2,8.25,2.8,2.16.59,4.36.46,6.48,1.22,6.38,2,12.21,5.37,17.82,8.86,1.54,1.05,3.3,2,4.46,3.5l.71.85,1.39,1.7c23.65,29.85,46.38,60.56,65.83,93.33,5.77,10.18,11.49,20.53,15.06,31.71-3.8-11.09-9.71-21.3-15.68-31.34-20.24-33-43.61-64.17-67.7-94.49l-.7-.85c-1-1.41-2.69-2.22-4.13-3.23a87.32,87.32,0,0,0-15.4-8.08c-2.72-1.22-5.66-1.26-8.48-1.91-2.87-.81-5.62-1.84-8.36-2.89-16.38-6.41-32.33-13.84-48.33-21.12l-15.93-7.41-2-.91c-4.55-2.38-8.6-5.6-12.75-8.61Z"/><path class="cls-1" d="M434.07,293.7c-7,31.93-9.22,64.66-10.19,97.27q-.21-6.12-.29-12.26c.13-28.56,2.59-57.48,10.48-85Z"/><polygon class="cls-1" points="434.89 308.04 434.3 311.92 434.03 311.87 434.89 308.04"/><polygon class="cls-1" points="433.75 315.81 433.25 319.7 432.57 319.6 433.28 315.73 433.75 315.81"/><polygon class="cls-1" points="432.77 323.6 432.31 327.5 431.35 327.37 431.94 323.48 432.77 323.6"/><polygon class="cls-1" points="431.88 331.4 431.49 335.3 430.28 335.17 430.8 331.27 431.88 331.4"/><polygon class="cls-1" points="431.1 339.21 430.73 343.11 429.41 342.99 429.83 339.07 431.1 339.21"/><polygon class="cls-1" points="430.38 347.02 430.07 350.93 428.67 350.82 429.02 346.9 430.38 347.02"/><path class="cls-1" d="M429.78,354.85c-.09,1.3-.17,2.61-.28,3.91l-1.45-.1c.08-1.31.18-2.62.28-3.92Z"/><polygon class="cls-1" points="429.22 362.68 428.97 366.6 427.6 366.52 427.81 362.59 429.22 362.68"/><polygon class="cls-1" points="428.74 370.51 428.54 374.43 427.25 374.38 427.42 370.45 428.74 370.51"/><polygon class="cls-1" points="428.37 378.36 428.17 382.28 427.05 382.24 427.12 378.31 428.37 378.36"/><polygon class="cls-1" points="428 386.2 427.86 390.13 426.99 390.11 427.01 386.18 428 386.2"/><polygon class="cls-1" points="427.73 394.05 427.59 397.98 427.07 397.98 427 394.05 427.73 394.05"/><polygon class="cls-1" points="427.48 401.91 427.37 405.84 427.31 405.84 427.17 401.91 427.48 401.91"/><path class="cls-1" d="M166.93,246.72c-10.47,4.75-20.93,9.57-32.06,12.63A189,189,0,0,0,85.41,273l-5.25,2.29A150.57,150.57,0,0,1,134.57,258c10.62-2.77,22-7.54,32.36-11.32Z"/><polygon class="cls-1" points="167.08 249.35 163.51 251 163.4 250.74 167.08 249.35"/><polygon class="cls-1" points="159.92 252.6 156.31 254.18 156.04 253.5 159.72 252.13 159.92 252.6"/><polygon class="cls-1" points="152.67 255.69 149.03 257.17 148.67 256.22 152.36 254.88 152.67 255.69"/><path class="cls-1" d="M145.36,258.61c-1.24.45-2.47.92-3.71,1.36l-.4-1.2c1.23-.43,2.47-.83,3.71-1.25Z"/><polygon class="cls-1" points="137.89 261.2 134.01 262.2 133.77 260.87 137.52 259.95 137.89 261.2"/><polygon class="cls-1" points="130.09 262.73 126.24 263.36 125.99 261.94 129.9 261.34 130.09 262.73"/><polygon class="cls-1" points="122.4 264.09 118.57 264.89 118.26 263.51 122.11 262.66 122.4 264.09"/><polygon class="cls-1" points="114.76 265.79 110.98 266.78 110.62 265.51 114.43 264.46 114.76 265.79"/><path class="cls-1" d="M107.22,267.86c-1.25.38-2.49.78-3.75,1.15l-.38-1.14c1.25-.43,2.5-.82,3.75-1.23Z"/><polygon class="cls-1" points="99.75 270.22 96.05 271.51 95.72 270.65 99.39 269.22 99.75 270.22"/><path class="cls-1" d="M92.37,272.89c-1.2.49-2.43,1-3.64,1.44l-.24-.54c1.19-.55,2.38-1.1,3.59-1.63Z"/><polygon class="cls-1" points="85.1 275.83 81.5 277.41 81.45 277.32 84.95 275.5 85.1 275.83"/><path class="cls-1" d="M425.58,453.51c.32,10.48-1,20.93-2.19,31.32-1,7-3.76,13.49-5.4,20.27a31,31,0,0,0-1.12,10.14,162.92,162.92,0,0,1,.59,21c-.2-3.49-.38-7-.68-10.44s-.57-6.94-1-10.38c-1.06-10.69,4.78-20.41,6.27-30.72,1.38-10,3.06-21.08,3.57-31.14Z"/><path class="cls-1" d="M267.23,39.29c6,.67,19.76,2.33,23.1,7.77a9.85,9.85,0,0,1,.58,2.48c.69,2.21,2.61,3.65,4.54,4.88s4.36,2.24,6.41,3.66a3.42,3.42,0,0,1,1.61,2.45c.32,5.54-3,11.44-.42,16.63.81,1.48,3,4.7,3.92,6.16,1.57,2.75,3.78,5.74,3.37,9.07.07-3.3-2.25-6-4-8.65l-2.84-4a13,13,0,0,1-2.38-4.47c-.7-3.34,0-6.67.48-9.94.18-1.82.91-3.87.15-5.42-3.35-2.88-8.16-3.89-11-7.62a7.12,7.12,0,0,1-1.2-2.4,14.68,14.68,0,0,0-.44-2.27C286,42.73,273,40.56,267.23,39.29Z"/><path class="cls-1" d="M169.53,87.33q1.68-10.76,4.39-21.32a54.36,54.36,0,0,1,3.59-10.39,7.24,7.24,0,0,1,1.77-2.3A48.16,48.16,0,0,0,184,46.89c3.27-4.37,7.81-12.57,13.75-13.16a67.69,67.69,0,0,1,13.65-.09,47.9,47.9,0,0,1,10.62,2.44,57.72,57.72,0,0,0-21.45-1.44c-1.69.26-3.53.17-5,1-4.52,2.81-7.26,7.75-10.31,12-1.71,2.41-3.3,5-5.53,7.05a5.93,5.93,0,0,0-1,1.49c-4.42,9.78-6.45,20.68-9.16,31.07Z"/><path class="cls-1" d="M230,114.22a8.63,8.63,0,0,1-.27-7,8.59,8.59,0,0,1,.27,7Z"/><path class="cls-1" d="M230.42,118.93a14.55,14.55,0,0,1,.46-9.26,14.61,14.61,0,0,1-.46,9.26Z"/><path class="cls-1" d="M231.14,120.23A28,28,0,0,1,232,107.3a28,28,0,0,1-.89,12.93Z"/><path class="cls-2" d="M229.49,119.87a1.74,1.74,0,0,0,.45-1.44l-1.18-10.21-.26,2.34-.38-1.58-.22.78s-12.25-7.77-18.65-8.19c-6-.4-15.66,4.34-15.87,2.79-.14-1.06-2.45,1.26-2.55,1.3-1,.43-3.86.42-4.55,1.51s-5.12,8-5.68,8.91c0,.07-.82,2.23-.85,2.31l-.71,7.3s13.21-11.19,20.55-11.83c7.12-.61,23.74,4.52,26,6.48C227.14,121.72,228.7,120.64,229.49,119.87Z"/><path class="cls-1" d="M225.17,126.68c-14.69-9.87-29.41-6.1-41.6,5.63,10.48-13.54,28.23-17.6,41.6-5.63Z"/><path class="cls-3" d="M197.53,131.14c.4,1.85,2,3.18,4.24,3.75-9.1.57-13.47-1.75-13.47-1.75a25.6,25.6,0,0,1,15-9C199.44,125.36,196.92,128.32,197.53,131.14Z"/><path class="cls-1" d="M224.7,129.24c-.36.71-1,1.63-1.95,1.58a8,8,0,0,0-3.34.64,59.57,59.57,0,0,1-9.71,3,.66.66,0,0,1-.47-1.22c4.81-2.62,4.41-7.85-1.25-8.73a.69.69,0,0,1,.14-1.37,26.79,26.79,0,0,1,8.79,1.84,35.32,35.32,0,0,1,7.79,4.27Zm0,0c-5.13-2.66-10.78-4.72-16.6-4.73l.11-1.37a8.08,8.08,0,0,1,3.66,1.4c4,2.9,1.89,8-2,9.85l-.44-1.24a89.36,89.36,0,0,0,9.75-2.38,8.49,8.49,0,0,1,3.61-.28c.8.09,1.44-.62,1.9-1.25Z"/><path class="cls-1" d="M213.23,127.74c.57,2.63-1.46,5-3.58,6.25a54.27,54.27,0,0,1-7.84,1.51c-2.16-.31-4.49-1.86-5-4.17-.77-3.89,3-6.77,6.34-7.55a22.51,22.51,0,0,1,4.89-.14.2.2,0,0,1,.23.14l-.14-.13c2.2.44,4.59,1.74,5.09,4.09Zm0,0c-.52-2.32-2.95-3.56-5.14-3.75l-.15-.13a.16.16,0,0,0,.18.12,23,23,0,0,0-4.76.62c-5.31,1.93-7.58,7.54-1.63,9.69a57.76,57.76,0,0,0,7.74-.67c2.22-1,4.29-3.29,3.76-5.88Z"/><ellipse class="cls-4" cx="205.34" cy="129.23" rx="3.27" ry="2.71" transform="translate(-22.72 46.44) rotate(-12.23)"/><ellipse class="cls-5" cx="203.75" cy="128.59" rx="0.79" ry="0.66" transform="translate(-22.62 46.09) rotate(-12.23)"/><ellipse class="cls-5" cx="205.12" cy="128.59" rx="0.34" ry="0.28" transform="translate(-22.59 46.38) rotate(-12.23)"/><ellipse class="cls-5" cx="204.69" cy="129.5" rx="0.19" ry="0.15" transform="translate(-22.79 46.31) rotate(-12.23)"/><path class="cls-1" d="M201.77,134.89c-9.1.57-13.47-1.75-13.47-1.75a25.6,25.6,0,0,1,15-9s-9.11,2.49-12.34,8.14A20.22,20.22,0,0,0,201.77,134.89Z"/><path class="cls-1" d="M201.77,134.89c-4.57.48-9.38.53-13.73-1.26a.52.52,0,0,1-.18-.81,25.15,25.15,0,0,1,15.3-9.35.72.72,0,0,1,.32,1.41,27.67,27.67,0,0,0-9.75,5,12.67,12.67,0,0,0-2.36,2.71l-.16-.66a22,22,0,0,0,10.56,3Zm0,0a20.17,20.17,0,0,1-11.11-2.15.47.47,0,0,1-.17-.63,13.51,13.51,0,0,1,2.45-3.12,26.26,26.26,0,0,1,10.15-5.51l.32,1.42a25.81,25.81,0,0,0-11.59,5.54,24.44,24.44,0,0,0-3.07,3l-.19-.82c4.07,1.86,8.76,2.2,13.21,2.24Z"/><path class="cls-1" d="M210.93,136.52a38.71,38.71,0,0,0,7.54-2.22,8.9,8.9,0,0,1,8.1.09,16,16,0,0,0-5.76.54c-3,1.35-6.54,2.45-9.88,1.59Z"/><path class="cls-1" d="M166.32,134.19c-.22,3.51-.47,8.18-.74,11.15l2.34,6.42,0,.06v.09L168,155c.46,2.35,1.09,5.65,1.56,8.33l-.09.18-1.8,3.94-.08-.69,3,3.7.33.41c-1.12,1.57-2.6,3.33-3,5.22,0,.16,0,.07,0,0a42.11,42.11,0,0,1,5.21,2c0,.11,0,4.45,0,4.69-.07-.59,1.42,9.47,1.37,9.11.56,2.91,1.11,5.82,1.63,8.74l-.2-.34a29.49,29.49,0,0,1,4.7,4.71c1,1.4-.95,3.62.07,4.82,1.49,1.41,3.69,2.48,4.83,4.38a1,1,0,0,1,.06.83,5.4,5.4,0,0,0-.08,4.16,5.4,5.4,0,0,1-.19-4.28c.11-.35-.2-.77-.5-1.1-1.32-1.36-3-2.22-4.61-3.48-1.24-1.24-.09-3-.14-4.4a2.13,2.13,0,0,0-.6-1A39.1,39.1,0,0,0,175,201c-.65-2.95-1.26-5.89-1.86-8.84,0-.1-1.48-9.25-1.5-9.35v-.06l0-4.21.43.66c-.9-.39-1.82-.75-2.73-1.1-.56-.22-1.13-.42-1.71-.59a1.38,1.38,0,0,1-1-.87,3.33,3.33,0,0,1,.42-2.33,22.94,22.94,0,0,1,2.52-3.87v.84l-2.95-3.73-.25-.32.17-.37,1.84-3.91,0,.37c-.47-2.77-.88-5.56-1.31-8.35l.06-3.1,0,.15-2.11-6.49c.37-3.79.9-7.6,1.39-11.38Z"/><path class="cls-1" d="M185.76,225.45c1.37,7.92-.71,14.85-9,17.36,7.49-5.12,7.8-8.88,9-17.36Z"/><path class="cls-1" d="M193,138.81c-3.42,3-7.07,5.36-9.46,9.28.4-4.76,5.12-8.18,9.46-9.28Z"/><path class="cls-1" d="M176.76,166.53c2.59,3.83,5,7.75,7.37,11.73l.17.27-.15.33a21.87,21.87,0,0,0-1,2.56,66.86,66.86,0,0,0,3,7.91l-.29-.33c3.43,2.05,6.85,4.13,10.2,6.31l.12.08c.72,1.78,1.49,3.54,2.18,5.34-1-1.62-1.88-3.29-2.82-4.93-2.67-1.11-7.17-3.82-10.4-5.57l-.2-.11-.09-.22a51.26,51.26,0,0,1-3-8.13,1.7,1.7,0,0,1,0-.6,19.21,19.21,0,0,1,1.26-2.88l0,.61c-2.19-4.07-4.3-8.17-6.24-12.37Z"/><path class="cls-1" d="M310.39,145.46c1,5.89,1.8,11.82,2.47,17.76l-.67.11L308,164l.62-.72c0,2.59,0,5.18-.06,7.77q-1,2.64-2.11,5.26l0-.3c.2,1.79.62,3.52-.19,5.29-.93,1.21-2,2.93-2.88,4.2a44,44,0,0,1,2.31-4.54c.47-1.45,0-3.36-.33-4.87l.05-.16q.89-2.64,1.82-5.25l0,.24c0-2.76-.07-5.52-.05-8.28.24,0,4.42-.64,4.8-.69l-.6.77c-.48-5.74-.87-11.48-1-17.24Z"/></g></svg>